{"glyphs":{"0":{"ha":942,"x_min":44,"x_max":932,"o":"m 401 -14 q 197 31 279 -12 q 80 158 115 75 q 61 353 44 240 q 77 440 68 392 q 97 535 86 488 q 119 624 108 583 q 206 817 149 736 q 355 942 264 897 q 572 986 446 986 q 774 942 690 986 q 894 817 857 897 q 914 624 932 736 q 897 535 907 583 q 877 440 888 488 q 856 353 867 392 q 769 158 826 240 q 622 31 713 75 q 401 -14 532 -12 m 419 188 q 534 231 490 188 q 599 360 578 274 q 619 444 610 400 q 638 532 629 488 q 653 615 647 576 q 647 743 668 700 q 554 788 626 786 q 440 743 482 786 q 376 615 397 700 q 356 532 367 576 q 338 444 346 488 q 321 360 329 400 q 328 231 307 274 q 419 188 350 188 z "},"1":{"ha":686,"x_min":74,"x_max":711,"o":"m 294 0 q 271 10 279 0 q 265 35 263 21 l 403 679 l 190 540 q 163 533 175 531 q 143 549 150 536 l 78 665 q 78 692 74 678 q 99 715 83 707 l 471 963 q 487 970 481 968 q 504 972 493 972 l 679 972 q 703 963 694 972 q 708 938 711 953 l 515 35 q 501 10 513 21 q 474 0 489 0 l 294 0 z "},"2":{"ha":903,"x_min":-6,"x_max":918,"o":"m 25 0 q 2 10 10 0 q -3 35 -6 21 l 18 133 q 31 163 21 143 q 68 201 40 183 l 242 343 q 455 487 371 428 q 584 592 539 546 q 638 678 629 638 q 629 756 647 725 q 551 788 611 788 q 481 770 511 788 q 430 725 450 753 q 397 668 410 697 q 374 643 389 650 q 344 636 360 636 l 171 636 q 151 644 157 636 q 147 665 144 653 q 202 791 163 732 q 301 894 242 850 q 434 965 360 939 q 593 990 508 990 q 787 952 713 990 q 890 847 861 914 q 899 689 918 779 q 843 562 885 621 q 735 449 801 503 q 581 339 668 396 l 425 210 l 783 210 q 806 200 799 210 q 811 175 814 190 l 781 35 q 765 10 778 21 q 738 0 753 0 l 25 0 z "},"3":{"ha":915,"x_min":24,"x_max":940,"o":"m 381 -14 q 202 12 274 -14 q 91 78 131 38 q 38 166 51 119 q 31 256 24 213 q 44 276 33 268 q 67 285 54 285 l 249 285 q 274 278 265 285 q 288 258 282 272 q 310 215 292 232 q 358 192 328 199 q 424 186 388 186 q 540 219 494 186 q 599 308 586 251 q 579 394 611 368 q 479 419 547 419 l 325 419 q 301 429 310 419 q 297 454 293 439 l 313 532 q 326 561 317 549 q 346 579 336 574 l 614 772 l 229 772 q 206 782 214 772 q 201 807 199 792 l 229 938 q 244 963 232 953 q 271 972 257 972 l 910 972 q 933 963 925 972 q 938 938 940 953 l 913 819 q 901 792 910 804 q 882 774 892 781 l 628 578 l 639 575 q 771 533 715 565 q 850 442 826 501 q 854 293 874 383 q 766 130 833 199 q 599 24 699 61 q 381 -14 499 -14 z "},"4":{"ha":964,"x_min":-1,"x_max":917,"o":"m 472 0 q 449 10 457 0 q 443 35 440 21 l 476 192 l 28 192 q 6 201 13 192 q 0 226 -1 211 l 28 358 q 38 383 32 374 q 51 399 43 392 l 574 949 q 629 972 596 972 l 849 972 q 872 963 864 972 q 878 938 881 953 l 763 399 l 885 399 q 909 388 901 399 q 914 364 917 378 l 883 226 q 869 201 882 211 q 842 192 857 192 l 718 192 l 685 35 q 670 10 682 21 q 643 0 658 0 l 472 0 m 296 389 l 525 389 l 593 710 l 296 389 z "},"5":{"ha":896,"x_min":1,"x_max":894,"o":"m 371 -15 q 160 25 244 -15 q 39 131 76 65 q 14 275 1 197 q 26 296 17 288 q 49 304 36 304 l 235 304 q 263 297 253 304 q 274 278 272 290 q 292 225 278 246 q 332 194 307 204 q 390 185 357 185 q 467 201 431 185 q 532 251 504 218 q 569 329 560 283 q 553 430 582 392 q 457 468 525 468 q 401 460 425 468 q 361 442 378 453 q 331 423 344 431 q 304 415 317 415 l 121 415 q 101 426 107 415 q 99 450 94 438 l 251 931 q 273 962 258 951 q 306 972 288 972 l 863 972 q 886 963 878 972 q 892 938 894 953 l 863 807 q 848 782 860 792 q 821 772 836 772 l 418 772 l 361 593 q 438 626 396 613 q 553 640 481 640 q 674 616 618 640 q 769 548 731 592 q 824 444 808 504 q 824 313 839 385 q 748 141 804 215 q 598 26 692 67 q 371 -15 504 -15 z "},"6":{"ha":904,"x_min":28,"x_max":883,"o":"m 389 -14 q 182 31 265 -14 q 63 153 99 75 q 49 333 28 232 q 81 419 58 376 q 130 499 103 461 q 183 567 157 538 q 226 615 208 597 l 540 944 q 561 962 547 951 q 596 972 575 972 l 781 972 q 799 963 793 972 q 803 942 806 954 q 799 931 801 936 q 794 924 797 926 l 551 668 q 573 672 561 671 q 594 672 585 672 q 713 644 657 669 q 809 576 768 619 q 867 473 850 533 q 868 339 883 413 q 781 162 849 242 q 613 34 714 82 q 389 -14 511 -14 m 429 186 q 508 203 469 186 q 575 254 547 221 q 613 335 603 288 q 609 416 624 383 q 564 465 594 449 q 490 482 533 482 q 411 465 450 482 q 344 416 372 449 q 306 335 317 383 q 310 254 296 288 q 356 203 324 221 q 429 186 388 186 z "},"7":{"ha":796,"x_min":103,"x_max":893,"o":"m 128 0 q 109 9 115 0 q 106 31 103 18 q 111 43 107 39 l 585 763 l 168 763 q 147 773 154 763 q 142 799 139 783 l 171 938 q 186 963 174 953 q 214 972 199 972 l 863 972 q 886 963 879 972 q 890 938 893 953 l 865 814 q 853 779 860 793 q 836 751 846 765 l 363 33 q 343 13 357 25 q 307 0 329 0 l 128 0 z "},"8":{"ha":936,"x_min":19,"x_max":914,"o":"m 397 -14 q 181 30 267 -14 q 57 144 94 74 q 36 297 19 215 q 104 430 53 374 q 219 517 156 486 q 165 599 185 549 q 160 714 146 650 q 227 853 175 792 q 366 950 279 914 q 569 986 453 986 q 765 947 686 986 q 878 844 843 908 q 899 701 914 779 q 852 594 886 639 q 761 517 818 550 q 840 416 817 479 q 849 282 864 353 q 776 131 831 199 q 627 25 721 64 q 397 -14 533 -14 m 411 164 q 496 180 457 164 q 563 224 535 196 q 599 292 590 253 q 575 385 611 351 q 472 418 539 418 q 388 403 428 418 q 321 360 349 388 q 285 292 293 332 q 309 197 272 231 q 411 164 346 164 m 501 586 q 577 601 542 586 q 636 640 613 615 q 667 697 660 664 q 649 778 679 747 q 556 808 618 808 q 478 794 514 808 q 420 756 443 781 q 389 697 397 731 q 408 617 379 647 q 501 586 436 586 z "},"9":{"ha":890,"x_min":93,"x_max":929,"o":"m 174 0 q 155 9 161 0 q 151 31 149 18 q 156 42 153 38 q 161 49 158 46 l 414 317 q 372 313 393 313 q 256 341 310 317 q 163 408 201 365 q 108 508 124 450 q 108 639 93 567 q 161 767 122 706 q 260 878 200 829 q 400 957 319 928 q 579 986 481 986 q 749 960 679 986 q 861 888 819 935 q 916 780 903 842 q 914 649 929 718 q 867 531 901 585 q 788 428 832 476 q 701 332 744 381 l 414 28 q 394 10 408 21 q 358 0 381 0 l 174 0 m 478 496 q 556 513 519 496 q 619 563 593 531 q 656 640 646 594 q 653 719 665 686 q 610 769 640 751 q 540 786 581 786 q 462 769 499 786 q 399 719 425 751 q 363 640 372 686 q 366 563 354 594 q 408 513 378 531 q 478 496 438 496 z "},"A":{"ha":1001,"x_min":-74,"x_max":913,"o":"m -43 0 q -67 14 -60 0 q -65 42 -74 28 l 450 933 q 474 960 458 949 q 513 972 489 972 l 726 972 q 760 960 750 972 q 772 933 771 949 l 908 42 q 901 11 913 22 q 876 0 890 0 l 708 0 q 678 10 688 0 q 667 33 669 19 l 643 171 l 272 171 l 189 29 q 170 10 182 19 q 138 0 158 0 l -43 0 m 371 371 l 629 371 l 578 738 l 371 371 z "},"Á":{"ha":1001,"x_min":-74,"x_max":961,"o":"m -43 0 q -67 14 -60 0 q -65 42 -74 28 l 450 933 q 474 960 458 949 q 513 972 489 972 l 726 972 q 760 960 750 972 q 772 933 771 949 l 908 42 q 901 11 913 22 q 876 0 890 0 l 708 0 q 678 10 688 0 q 667 33 669 19 l 643 171 l 272 171 l 189 29 q 170 10 182 19 q 138 0 158 0 l -43 0 m 371 371 l 629 371 l 578 738 l 371 371 m 540 1042 q 521 1063 518 1042 q 532 1081 524 1074 l 688 1231 q 717 1252 706 1247 q 744 1257 728 1257 l 939 1257 q 956 1250 950 1257 q 960 1232 961 1243 q 949 1213 960 1221 l 732 1061 q 706 1047 718 1051 q 675 1042 694 1042 l 540 1042 z "},"Ă":{"ha":1001,"x_min":-74,"x_max":913,"o":"m -43 0 q -67 14 -60 0 q -65 42 -74 28 l 450 933 q 474 960 458 949 q 513 972 489 972 l 726 972 q 760 960 750 972 q 772 933 771 949 l 908 42 q 901 11 913 22 q 876 0 890 0 l 708 0 q 678 10 688 0 q 667 33 669 19 l 643 171 l 272 171 l 189 29 q 170 10 182 19 q 138 0 158 0 l -43 0 m 371 371 l 629 371 l 578 738 l 371 371 m 635 1032 q 520 1059 565 1032 q 457 1131 475 1086 q 450 1228 439 1175 q 461 1247 453 1239 q 482 1254 469 1254 l 576 1254 q 594 1247 589 1254 q 597 1228 600 1239 q 599 1171 592 1196 q 646 1146 607 1146 q 704 1171 685 1146 q 731 1228 724 1196 q 742 1247 733 1239 q 763 1254 750 1254 l 857 1254 q 875 1247 869 1254 q 878 1228 881 1239 q 840 1131 867 1175 q 763 1059 813 1086 q 635 1032 714 1032 z "},"Â":{"ha":1001,"x_min":-74,"x_max":913,"o":"m -43 0 q -67 14 -60 0 q -65 42 -74 28 l 450 933 q 474 960 458 949 q 513 972 489 972 l 726 972 q 760 960 750 972 q 772 933 771 949 l 908 42 q 901 11 913 22 q 876 0 890 0 l 708 0 q 678 10 688 0 q 667 33 669 19 l 643 171 l 272 171 l 189 29 q 170 10 182 19 q 138 0 158 0 l -43 0 m 371 371 l 629 371 l 578 738 l 371 371 m 376 1042 q 360 1061 357 1042 q 371 1081 361 1072 l 550 1233 q 578 1253 567 1249 q 603 1257 590 1257 l 721 1257 q 745 1253 735 1257 q 765 1233 756 1249 l 878 1081 q 882 1061 885 1072 q 857 1042 878 1042 l 792 1042 q 770 1044 781 1042 q 750 1051 760 1046 l 643 1119 l 508 1051 q 485 1044 496 1046 q 463 1042 475 1042 l 376 1042 z "},"Ä":{"ha":1001,"x_min":-74,"x_max":924,"o":"m -43 0 q -67 14 -60 0 q -65 42 -74 28 l 450 933 q 474 960 458 949 q 513 972 489 972 l 726 972 q 760 960 750 972 q 772 933 771 949 l 908 42 q 901 11 913 22 q 876 0 890 0 l 708 0 q 678 10 688 0 q 667 33 669 19 l 643 171 l 272 171 l 189 29 q 170 10 182 19 q 138 0 158 0 l -43 0 m 371 371 l 629 371 l 578 738 l 371 371 m 726 1042 q 706 1050 713 1042 q 703 1074 700 1058 l 729 1200 q 742 1223 732 1214 q 768 1232 753 1232 l 894 1232 q 915 1223 908 1232 q 919 1200 922 1214 l 893 1074 q 879 1050 890 1058 q 854 1042 868 1042 l 726 1042 m 399 1042 q 378 1050 385 1042 q 374 1074 371 1058 l 400 1200 q 414 1223 403 1214 q 439 1232 425 1232 l 567 1232 q 588 1223 581 1232 q 592 1200 594 1214 l 564 1074 q 550 1050 561 1058 q 525 1042 539 1042 l 399 1042 z "},"À":{"ha":1001,"x_min":-74,"x_max":913,"o":"m -43 0 q -67 14 -60 0 q -65 42 -74 28 l 450 933 q 474 960 458 949 q 513 972 489 972 l 726 972 q 760 960 750 972 q 772 933 771 949 l 908 42 q 901 11 913 22 q 876 0 890 0 l 708 0 q 678 10 688 0 q 667 33 669 19 l 643 171 l 272 171 l 189 29 q 170 10 182 19 q 138 0 158 0 l -43 0 m 371 371 l 629 371 l 578 738 l 371 371 m 576 1042 q 547 1047 557 1042 q 528 1061 538 1051 l 376 1211 q 372 1231 369 1218 q 404 1257 376 1257 l 590 1257 q 616 1252 607 1257 q 636 1231 625 1247 l 726 1082 q 729 1064 732 1074 q 703 1042 725 1042 l 576 1042 z "},"Ā":{"ha":1001,"x_min":-74,"x_max":913,"o":"m -43 0 q -67 14 -60 0 q -65 42 -74 28 l 450 933 q 474 960 458 949 q 513 972 489 972 l 726 972 q 760 960 750 972 q 772 933 771 949 l 908 42 q 901 11 913 22 q 876 0 890 0 l 708 0 q 678 10 688 0 q 667 33 669 19 l 643 171 l 272 171 l 189 29 q 170 10 182 19 q 138 0 158 0 l -43 0 m 371 371 l 629 371 l 578 738 l 371 371 m 411 1042 q 391 1051 397 1042 q 388 1074 385 1060 l 408 1175 q 422 1198 411 1189 q 447 1207 433 1207 l 878 1207 q 898 1198 892 1207 q 901 1175 904 1189 l 881 1074 q 868 1051 879 1060 q 843 1042 857 1042 l 411 1042 z "},"Ą":{"ha":994,"x_min":-71,"x_max":906,"o":"m 760 -306 q 644 -276 686 -306 q 588 -197 601 -247 q 589 -85 575 -147 q 620 -14 597 -43 q 674 29 643 15 q 658 40 663 32 q 654 54 654 47 l 635 171 l 263 171 l 179 29 q 161 10 174 21 q 126 0 149 0 l -46 0 q -64 9 -57 0 q -68 29 -71 18 q -67 35 -68 32 q -64 42 -65 39 l 451 933 q 475 960 460 949 q 514 972 490 972 l 721 972 q 756 960 744 972 q 768 933 767 949 l 904 42 q 905 35 906 39 q 903 29 904 32 q 890 9 900 18 q 867 0 879 0 l 825 0 q 761 -27 786 -1 q 729 -85 736 -53 q 736 -144 721 -119 q 794 -169 751 -169 l 811 -169 q 833 -180 825 -169 q 839 -204 842 -190 l 824 -271 q 808 -295 821 -285 q 782 -306 796 -306 l 760 -306 m 361 371 l 621 371 l 569 738 l 361 371 z "},"Å":{"ha":1001,"x_min":-74,"x_max":913,"o":"m -43 0 q -67 14 -60 0 q -65 42 -74 28 l 450 933 q 474 960 458 949 q 513 972 489 972 l 726 972 q 760 960 750 972 q 772 933 771 949 l 908 42 q 901 11 913 22 q 876 0 890 0 l 708 0 q 678 10 688 0 q 667 33 669 19 l 643 171 l 272 171 l 189 29 q 170 10 182 19 q 138 0 158 0 l -43 0 m 371 371 l 629 371 l 578 738 l 371 371 m 624 1028 q 540 1063 571 1028 q 519 1150 508 1097 q 576 1237 532 1203 q 672 1271 619 1271 q 757 1237 725 1271 q 776 1150 789 1203 q 721 1062 765 1096 q 624 1028 676 1028 m 638 1108 q 672 1120 657 1108 q 690 1150 686 1132 q 685 1180 694 1168 q 658 1192 676 1192 q 625 1180 639 1192 q 607 1150 611 1168 q 612 1120 603 1132 q 638 1108 621 1108 z "},"Ã":{"ha":1001,"x_min":-74,"x_max":914,"o":"m -43 0 q -67 14 -60 0 q -65 42 -74 28 l 450 933 q 474 960 458 949 q 513 972 489 972 l 726 972 q 760 960 750 972 q 772 933 771 949 l 908 42 q 901 11 913 22 q 876 0 890 0 l 708 0 q 678 10 688 0 q 667 33 669 19 l 643 171 l 272 171 l 189 29 q 170 10 182 19 q 138 0 158 0 l -43 0 m 371 371 l 629 371 l 578 738 l 371 371 m 729 1035 q 666 1047 690 1035 q 622 1072 642 1060 q 578 1083 603 1083 q 544 1074 556 1083 q 524 1053 533 1064 q 500 1042 515 1042 l 417 1042 q 401 1049 407 1042 q 397 1065 396 1057 q 415 1118 401 1088 q 449 1177 428 1149 q 503 1224 471 1206 q 581 1243 536 1243 q 643 1231 618 1243 q 688 1206 668 1218 q 731 1193 707 1193 q 764 1204 753 1193 q 784 1226 775 1215 q 808 1236 793 1236 l 892 1236 q 909 1228 904 1236 q 911 1211 914 1221 q 894 1159 907 1189 q 858 1101 881 1129 q 804 1053 836 1072 q 729 1035 772 1035 z "},"Æ":{"ha":1374,"x_min":-64,"x_max":1417,"o":"m -35 0 q -59 15 -54 0 q -56 44 -64 31 l 457 933 q 481 961 465 950 q 518 972 497 972 l 1386 972 q 1409 963 1401 972 q 1414 938 1417 953 l 1386 807 q 1372 782 1383 792 q 1344 772 1360 772 l 928 772 l 888 585 l 1272 585 q 1296 574 1288 585 q 1301 549 1304 564 l 1275 428 q 1260 403 1272 414 q 1232 393 1247 393 l 847 393 l 806 200 l 1233 200 q 1256 190 1249 200 q 1261 165 1264 181 l 1233 35 q 1219 10 1231 21 q 1192 0 1207 0 l 558 0 q 535 10 543 0 q 529 35 526 21 l 558 171 l 281 171 l 196 29 q 177 10 189 19 q 144 0 165 0 l -35 0 m 379 371 l 600 371 l 686 768 l 601 768 l 379 371 z "},"Ǽ":{"ha":1374,"x_min":-64,"x_max":1417,"o":"m -35 0 q -59 15 -54 0 q -56 44 -64 31 l 457 933 q 481 961 465 950 q 518 972 497 972 l 1386 972 q 1409 963 1401 972 q 1414 938 1417 953 l 1386 807 q 1372 782 1383 792 q 1344 772 1360 772 l 928 772 l 888 585 l 1272 585 q 1296 574 1288 585 q 1301 549 1304 564 l 1275 428 q 1260 403 1272 414 q 1232 393 1247 393 l 847 393 l 806 200 l 1233 200 q 1256 190 1249 200 q 1261 165 1264 181 l 1233 35 q 1219 10 1231 21 q 1192 0 1207 0 l 558 0 q 535 10 543 0 q 529 35 526 21 l 558 171 l 281 171 l 196 29 q 177 10 189 19 q 144 0 165 0 l -35 0 m 379 371 l 600 371 l 686 768 l 601 768 l 379 371 m 772 1042 q 753 1063 750 1042 q 764 1081 756 1074 l 919 1231 q 949 1252 938 1247 q 976 1257 960 1257 l 1171 1257 q 1188 1250 1182 1257 q 1192 1232 1193 1243 q 1181 1213 1192 1221 l 964 1061 q 938 1047 950 1051 q 907 1042 926 1042 l 772 1042 z "},"B":{"ha":979,"x_min":14,"x_max":979,"o":"m 44 0 q 22 10 31 0 q 17 35 14 21 l 208 938 q 224 963 211 953 q 250 972 236 972 l 657 972 q 843 939 769 972 q 948 844 917 906 q 961 697 979 782 q 923 606 950 644 q 865 544 896 568 q 806 510 833 521 q 883 427 854 483 q 896 294 913 371 q 828 137 876 203 q 699 35 781 71 q 499 0 618 0 l 44 0 m 297 181 l 490 181 q 588 215 549 181 q 636 294 626 250 q 626 376 647 343 q 540 410 604 410 l 346 410 l 297 181 m 383 586 l 561 586 q 654 616 618 586 q 700 690 690 646 q 690 763 710 735 q 614 792 671 792 l 428 792 l 383 586 z "},"C":{"ha":974,"x_min":42,"x_max":994,"o":"m 426 -14 q 256 10 332 -14 q 131 81 181 33 q 61 199 81 129 q 57 363 42 269 q 81 485 67 419 q 110 610 96 550 q 204 815 140 731 q 367 943 268 900 q 597 986 465 986 q 763 964 686 986 q 892 898 839 942 q 970 792 946 854 q 979 651 994 731 q 967 631 976 639 q 946 622 958 622 l 757 622 q 730 630 739 622 q 718 658 721 638 q 681 758 719 731 q 578 786 642 786 q 446 744 501 786 q 367 603 390 701 q 317 369 338 489 q 335 228 300 271 q 444 186 369 186 q 560 214 510 186 q 644 314 611 242 q 667 342 656 335 q 696 350 678 350 l 885 350 q 904 342 897 350 q 908 321 911 333 q 848 181 889 243 q 746 76 807 119 q 605 9 685 32 q 426 -14 525 -14 z "},"Ć":{"ha":974,"x_min":42,"x_max":994,"o":"m 426 -14 q 256 10 332 -14 q 131 81 181 33 q 61 199 81 129 q 57 363 42 269 q 81 485 67 419 q 110 610 96 550 q 204 815 140 731 q 367 943 268 900 q 597 986 465 986 q 763 964 686 986 q 892 898 839 942 q 970 792 946 854 q 979 651 994 731 q 967 631 976 639 q 946 622 958 622 l 757 622 q 730 630 739 622 q 718 658 721 638 q 681 758 719 731 q 578 786 642 786 q 446 744 501 786 q 367 603 390 701 q 317 369 338 489 q 335 228 300 271 q 444 186 369 186 q 560 214 510 186 q 644 314 611 242 q 667 342 656 335 q 696 350 678 350 l 885 350 q 904 342 897 350 q 908 321 911 333 q 848 181 889 243 q 746 76 807 119 q 605 9 685 32 q 426 -14 525 -14 m 542 1042 q 522 1063 519 1042 q 533 1081 525 1074 l 689 1231 q 718 1252 707 1247 q 746 1257 729 1257 l 940 1257 q 957 1250 951 1257 q 961 1232 963 1243 q 950 1213 961 1221 l 733 1061 q 708 1047 719 1051 q 676 1042 696 1042 l 542 1042 z "},"Č":{"ha":974,"x_min":42,"x_max":994,"o":"m 426 -14 q 256 10 332 -14 q 131 81 181 33 q 61 199 81 129 q 57 363 42 269 q 81 485 67 419 q 110 610 96 550 q 204 815 140 731 q 367 943 268 900 q 597 986 465 986 q 763 964 686 986 q 892 898 839 942 q 970 792 946 854 q 979 651 994 731 q 967 631 976 639 q 946 622 958 622 l 757 622 q 730 630 739 622 q 718 658 721 638 q 681 758 719 731 q 578 786 642 786 q 446 744 501 786 q 367 603 390 701 q 317 369 338 489 q 335 228 300 271 q 444 186 369 186 q 560 214 510 186 q 644 314 611 242 q 667 342 656 335 q 696 350 678 350 l 885 350 q 904 342 897 350 q 908 321 911 333 q 848 181 889 243 q 746 76 807 119 q 605 9 685 32 q 426 -14 525 -14 m 568 1042 q 546 1047 556 1042 q 525 1065 536 1051 l 413 1218 q 408 1238 406 1226 q 433 1257 413 1257 l 497 1257 q 520 1255 510 1257 q 540 1247 531 1253 l 646 1179 l 782 1247 q 804 1255 793 1253 q 826 1257 815 1257 l 914 1257 q 931 1238 933 1257 q 918 1219 929 1228 l 740 1065 q 712 1047 724 1051 q 686 1042 700 1042 l 568 1042 z "},"Ç":{"ha":974,"x_min":38,"x_max":993,"o":"m 336 -306 q 271 -293 299 -306 q 234 -264 243 -281 q 242 -235 225 -247 l 272 -212 q 294 -205 286 -201 q 315 -216 303 -208 q 353 -224 326 -224 q 390 -212 374 -224 q 410 -182 406 -200 q 403 -153 414 -165 q 372 -142 393 -142 q 340 -147 356 -142 q 313 -152 325 -151 q 293 -144 300 -153 l 272 -117 q 268 -99 265 -108 q 282 -72 271 -89 l 324 -8 q 154 50 221 4 q 63 174 88 96 q 57 363 38 253 q 81 485 67 419 q 110 610 94 550 q 211 815 140 731 q 385 943 282 900 q 618 986 489 986 q 783 963 710 986 q 905 897 856 940 q 974 791 954 853 q 978 651 993 729 q 965 631 976 639 q 942 622 954 622 l 754 622 q 728 630 736 622 q 718 658 721 638 q 677 759 715 732 q 575 786 639 786 q 444 744 499 786 q 365 603 390 701 q 340 488 351 546 q 317 369 328 429 q 335 228 300 271 q 447 186 371 186 q 561 214 511 186 q 646 314 611 242 q 667 342 656 335 q 696 350 678 350 l 883 350 q 903 342 896 350 q 907 321 911 333 q 844 181 890 243 q 731 76 797 119 q 581 9 664 32 q 406 -14 497 -14 l 367 -69 q 390 -63 375 -65 q 414 -61 406 -61 q 487 -94 464 -61 q 499 -182 510 -128 q 443 -270 486 -235 q 336 -306 400 -306 z "},"Ĉ":{"ha":974,"x_min":42,"x_max":994,"o":"m 426 -14 q 256 10 332 -14 q 131 81 181 33 q 61 199 81 129 q 57 363 42 269 q 81 485 67 419 q 110 610 96 550 q 204 815 140 731 q 367 943 268 900 q 597 986 465 986 q 763 964 686 986 q 892 898 839 942 q 970 792 946 854 q 979 651 994 731 q 967 631 976 639 q 946 622 958 622 l 757 622 q 730 630 739 622 q 718 658 721 638 q 681 758 719 731 q 578 786 642 786 q 446 744 501 786 q 367 603 390 701 q 317 369 338 489 q 335 228 300 271 q 444 186 369 186 q 560 214 510 186 q 644 314 611 242 q 667 342 656 335 q 696 350 678 350 l 885 350 q 904 342 897 350 q 908 321 911 333 q 848 181 889 243 q 746 76 807 119 q 605 9 685 32 q 426 -14 525 -14 m 378 1042 q 361 1061 358 1042 q 372 1081 363 1072 l 551 1233 q 580 1253 568 1249 q 604 1257 592 1257 l 722 1257 q 747 1253 736 1257 q 767 1233 757 1249 l 879 1081 q 883 1061 886 1072 q 858 1042 879 1042 l 793 1042 q 772 1044 782 1042 q 751 1051 761 1046 l 644 1119 l 510 1051 q 487 1044 497 1046 q 464 1042 476 1042 l 378 1042 z "},"Ċ":{"ha":974,"x_min":42,"x_max":994,"o":"m 426 -14 q 256 10 332 -14 q 131 81 181 33 q 61 199 81 129 q 57 363 42 269 q 81 485 67 419 q 110 610 96 550 q 204 815 140 731 q 367 943 268 900 q 597 986 465 986 q 763 964 686 986 q 892 898 839 942 q 970 792 946 854 q 979 651 994 731 q 967 631 976 639 q 946 622 958 622 l 757 622 q 730 630 739 622 q 718 658 721 638 q 681 758 719 731 q 578 786 642 786 q 446 744 501 786 q 367 603 390 701 q 317 369 338 489 q 335 228 300 271 q 444 186 369 186 q 560 214 510 186 q 644 314 611 242 q 667 342 656 335 q 696 350 678 350 l 885 350 q 904 342 897 350 q 908 321 911 333 q 848 181 889 243 q 746 76 807 119 q 605 9 685 32 q 426 -14 525 -14 m 556 1042 q 535 1050 542 1042 q 531 1074 528 1058 l 561 1217 q 574 1240 564 1231 q 600 1249 585 1249 l 743 1249 q 764 1240 757 1249 q 768 1217 771 1231 l 738 1074 q 724 1050 735 1058 q 699 1042 713 1042 l 556 1042 z "},"D":{"ha":994,"x_min":14,"x_max":983,"o":"m 44 0 q 22 10 31 0 q 17 35 14 21 l 208 938 q 224 963 211 953 q 250 972 236 972 l 589 972 q 755 947 679 972 q 884 874 831 922 q 960 756 938 826 q 965 593 983 685 q 946 486 956 532 q 921 381 936 440 q 830 167 889 251 q 675 41 771 82 q 435 0 579 0 l 44 0 m 301 200 l 447 200 q 552 219 508 200 q 624 278 596 238 q 668 383 653 318 q 685 456 678 424 q 699 519 693 488 q 713 590 706 551 q 692 728 729 685 q 563 772 654 772 l 424 772 l 301 200 z "},"Ð":{"ha":1017,"x_min":24,"x_max":1006,"o":"m 68 0 q 44 10 53 0 q 39 35 36 21 l 118 407 l 53 407 q 31 417 38 407 q 25 442 24 426 l 46 538 q 61 563 49 553 q 88 572 74 572 l 154 572 l 231 938 q 246 963 233 953 q 274 972 258 972 l 611 972 q 778 947 701 972 q 907 874 854 922 q 983 756 960 826 q 989 593 1006 685 q 968 486 978 532 q 943 381 958 440 q 852 167 911 251 q 697 41 793 82 q 458 0 601 0 l 68 0 m 324 200 l 471 200 q 574 219 531 200 q 647 278 618 238 q 690 383 675 318 q 708 456 701 424 q 722 519 715 488 q 735 590 728 551 q 715 728 751 685 q 585 772 678 772 l 446 772 l 404 572 l 531 572 q 552 563 544 572 q 557 538 560 553 l 538 442 q 522 417 535 426 q 494 407 510 407 l 368 407 l 324 200 z "},"Ď":{"ha":994,"x_min":14,"x_max":983,"o":"m 44 0 q 22 10 31 0 q 17 35 14 21 l 208 938 q 224 963 211 953 q 250 972 236 972 l 589 972 q 755 947 679 972 q 884 874 831 922 q 960 756 938 826 q 965 593 983 685 q 946 486 956 532 q 921 381 936 440 q 830 167 889 251 q 675 41 771 82 q 435 0 579 0 l 44 0 m 301 200 l 447 200 q 552 219 508 200 q 624 278 596 238 q 668 383 653 318 q 685 456 678 424 q 699 519 693 488 q 713 590 706 551 q 692 728 729 685 q 563 772 654 772 l 424 772 l 301 200 m 513 1042 q 490 1047 500 1042 q 469 1065 481 1051 l 357 1218 q 353 1238 350 1226 q 378 1257 357 1257 l 442 1257 q 465 1255 454 1257 q 485 1247 475 1253 l 590 1179 l 726 1247 q 749 1255 738 1253 q 771 1257 760 1257 l 858 1257 q 875 1238 878 1257 q 863 1219 874 1228 l 685 1065 q 656 1047 668 1051 q 631 1042 644 1042 l 513 1042 z "},"Đ":{"ha":1017,"x_min":24,"x_max":1006,"o":"m 68 0 q 44 10 53 0 q 39 35 36 21 l 118 407 l 53 407 q 31 417 38 407 q 25 442 24 426 l 46 538 q 61 563 49 553 q 88 572 74 572 l 154 572 l 231 938 q 246 963 233 953 q 274 972 258 972 l 611 972 q 778 947 701 972 q 907 874 854 922 q 983 756 960 826 q 989 593 1006 685 q 968 486 978 532 q 943 381 958 440 q 852 167 911 251 q 697 41 793 82 q 458 0 601 0 l 68 0 m 324 200 l 471 200 q 574 219 531 200 q 647 278 618 238 q 690 383 675 318 q 708 456 701 424 q 722 519 715 488 q 735 590 728 551 q 715 728 751 685 q 585 772 678 772 l 446 772 l 404 572 l 531 572 q 552 563 544 572 q 557 538 560 553 l 538 442 q 522 417 535 426 q 494 407 510 407 l 368 407 l 324 200 z "},"E":{"ha":886,"x_min":14,"x_max":931,"o":"m 44 0 q 22 10 31 0 q 17 35 14 21 l 208 938 q 224 963 211 953 q 250 972 236 972 l 899 972 q 922 963 914 972 q 928 938 931 953 l 900 807 q 885 782 897 792 q 857 772 872 772 l 415 772 l 374 585 l 786 585 q 809 574 801 585 q 814 549 817 564 l 788 428 q 773 403 785 414 q 746 393 761 393 l 333 393 l 293 200 l 746 200 q 769 190 761 200 q 774 165 776 181 l 746 35 q 731 10 743 21 q 704 0 719 0 l 44 0 z "},"É":{"ha":886,"x_min":14,"x_max":931,"o":"m 44 0 q 22 10 31 0 q 17 35 14 21 l 208 938 q 224 963 211 953 q 250 972 236 972 l 899 972 q 922 963 914 972 q 928 938 931 953 l 900 807 q 885 782 897 792 q 857 772 872 772 l 415 772 l 374 585 l 786 585 q 809 574 801 585 q 814 549 817 564 l 788 428 q 773 403 785 414 q 746 393 761 393 l 333 393 l 293 200 l 746 200 q 769 190 761 200 q 774 165 776 181 l 746 35 q 731 10 743 21 q 704 0 719 0 l 44 0 m 496 1042 q 476 1063 474 1042 q 488 1081 479 1074 l 643 1231 q 672 1252 661 1247 q 700 1257 683 1257 l 894 1257 q 911 1250 906 1257 q 915 1232 917 1243 q 904 1213 915 1221 l 688 1061 q 662 1047 674 1051 q 631 1042 650 1042 l 496 1042 z "},"Ĕ":{"ha":886,"x_min":14,"x_max":931,"o":"m 44 0 q 22 10 31 0 q 17 35 14 21 l 208 938 q 224 963 211 953 q 250 972 236 972 l 899 972 q 922 963 914 972 q 928 938 931 953 l 900 807 q 885 782 897 792 q 857 772 872 772 l 415 772 l 374 585 l 786 585 q 809 574 801 585 q 814 549 817 564 l 788 428 q 773 403 785 414 q 746 393 761 393 l 333 393 l 293 200 l 746 200 q 769 190 761 200 q 774 165 776 181 l 746 35 q 731 10 743 21 q 704 0 719 0 l 44 0 m 589 1032 q 474 1059 519 1032 q 411 1131 429 1086 q 404 1228 393 1175 q 415 1247 407 1239 q 436 1254 424 1254 l 531 1254 q 549 1247 543 1254 q 551 1228 554 1239 q 553 1171 546 1196 q 600 1146 561 1146 q 658 1171 639 1146 q 685 1228 678 1196 q 696 1247 688 1239 q 717 1254 704 1254 l 811 1254 q 829 1247 824 1254 q 832 1228 835 1239 q 794 1131 821 1175 q 717 1059 767 1086 q 589 1032 668 1032 z "},"Ě":{"ha":886,"x_min":14,"x_max":931,"o":"m 44 0 q 22 10 31 0 q 17 35 14 21 l 208 938 q 224 963 211 953 q 250 972 236 972 l 899 972 q 922 963 914 972 q 928 938 931 953 l 900 807 q 885 782 897 792 q 857 772 872 772 l 415 772 l 374 585 l 786 585 q 809 574 801 585 q 814 549 817 564 l 788 428 q 773 403 785 414 q 746 393 761 393 l 333 393 l 293 200 l 746 200 q 769 190 761 200 q 774 165 776 181 l 746 35 q 731 10 743 21 q 704 0 719 0 l 44 0 m 522 1042 q 500 1047 510 1042 q 479 1065 490 1051 l 367 1218 q 363 1238 360 1226 q 388 1257 367 1257 l 451 1257 q 474 1255 464 1257 q 494 1247 485 1253 l 600 1179 l 736 1247 q 758 1255 747 1253 q 781 1257 769 1257 l 868 1257 q 885 1238 888 1257 q 872 1219 883 1228 l 694 1065 q 666 1047 678 1051 q 640 1042 654 1042 l 522 1042 z "},"Ê":{"ha":886,"x_min":14,"x_max":931,"o":"m 44 0 q 22 10 31 0 q 17 35 14 21 l 208 938 q 224 963 211 953 q 250 972 236 972 l 899 972 q 922 963 914 972 q 928 938 931 953 l 900 807 q 885 782 897 792 q 857 772 872 772 l 415 772 l 374 585 l 786 585 q 809 574 801 585 q 814 549 817 564 l 788 428 q 773 403 785 414 q 746 393 761 393 l 333 393 l 293 200 l 746 200 q 769 190 761 200 q 774 165 776 181 l 746 35 q 731 10 743 21 q 704 0 719 0 l 44 0 m 332 1042 q 315 1061 313 1042 q 326 1081 317 1072 l 506 1233 q 534 1253 522 1249 q 558 1257 546 1257 l 676 1257 q 701 1253 690 1257 q 721 1233 711 1249 l 833 1081 q 838 1061 840 1072 q 813 1042 833 1042 l 747 1042 q 726 1044 736 1042 q 706 1051 715 1046 l 599 1119 l 464 1051 q 441 1044 451 1046 q 418 1042 431 1042 l 332 1042 z "},"Ë":{"ha":886,"x_min":14,"x_max":931,"o":"m 44 0 q 22 10 31 0 q 17 35 14 21 l 208 938 q 224 963 211 953 q 250 972 236 972 l 899 972 q 922 963 914 972 q 928 938 931 953 l 900 807 q 885 782 897 792 q 857 772 872 772 l 415 772 l 374 585 l 786 585 q 809 574 801 585 q 814 549 817 564 l 788 428 q 773 403 785 414 q 746 393 761 393 l 333 393 l 293 200 l 746 200 q 769 190 761 200 q 774 165 776 181 l 746 35 q 731 10 743 21 q 704 0 719 0 l 44 0 m 682 1042 q 662 1050 668 1042 q 658 1074 656 1058 l 685 1200 q 698 1223 688 1214 q 724 1232 708 1232 l 850 1232 q 871 1223 864 1232 q 875 1200 878 1214 l 849 1074 q 835 1050 846 1058 q 810 1042 824 1042 l 682 1042 m 354 1042 q 333 1050 340 1042 q 329 1074 326 1058 l 356 1200 q 369 1223 358 1214 q 394 1232 381 1232 l 522 1232 q 543 1223 536 1232 q 547 1200 550 1214 l 519 1074 q 506 1050 517 1058 q 481 1042 494 1042 l 354 1042 z "},"Ė":{"ha":886,"x_min":14,"x_max":931,"o":"m 44 0 q 22 10 31 0 q 17 35 14 21 l 208 938 q 224 963 211 953 q 250 972 236 972 l 899 972 q 922 963 914 972 q 928 938 931 953 l 900 807 q 885 782 897 792 q 857 772 872 772 l 415 772 l 374 585 l 786 585 q 809 574 801 585 q 814 549 817 564 l 788 428 q 773 403 785 414 q 746 393 761 393 l 333 393 l 293 200 l 746 200 q 769 190 761 200 q 774 165 776 181 l 746 35 q 731 10 743 21 q 704 0 719 0 l 44 0 m 510 1042 q 489 1050 496 1042 q 485 1074 482 1058 l 515 1217 q 528 1240 518 1231 q 554 1249 539 1249 l 697 1249 q 718 1240 711 1249 q 722 1217 725 1231 l 692 1074 q 678 1050 689 1058 q 653 1042 667 1042 l 510 1042 z "},"È":{"ha":886,"x_min":14,"x_max":931,"o":"m 44 0 q 22 10 31 0 q 17 35 14 21 l 208 938 q 224 963 211 953 q 250 972 236 972 l 899 972 q 922 963 914 972 q 928 938 931 953 l 900 807 q 885 782 897 792 q 857 772 872 772 l 415 772 l 374 585 l 786 585 q 809 574 801 585 q 814 549 817 564 l 788 428 q 773 403 785 414 q 746 393 761 393 l 333 393 l 293 200 l 746 200 q 769 190 761 200 q 774 165 776 181 l 746 35 q 731 10 743 21 q 704 0 719 0 l 44 0 m 531 1042 q 501 1047 511 1042 q 482 1061 492 1051 l 331 1211 q 326 1231 324 1218 q 358 1257 331 1257 l 544 1257 q 570 1252 561 1257 q 590 1231 579 1247 l 681 1082 q 683 1064 686 1074 q 657 1042 679 1042 l 531 1042 z "},"Ē":{"ha":886,"x_min":14,"x_max":931,"o":"m 44 0 q 22 10 31 0 q 17 35 14 21 l 208 938 q 224 963 211 953 q 250 972 236 972 l 899 972 q 922 963 914 972 q 928 938 931 953 l 900 807 q 885 782 897 792 q 857 772 872 772 l 415 772 l 374 585 l 786 585 q 809 574 801 585 q 814 549 817 564 l 788 428 q 773 403 785 414 q 746 393 761 393 l 333 393 l 293 200 l 746 200 q 769 190 761 200 q 774 165 776 181 l 746 35 q 731 10 743 21 q 704 0 719 0 l 44 0 m 365 1042 q 345 1051 351 1042 q 342 1074 339 1060 l 363 1175 q 376 1198 365 1189 q 401 1207 388 1207 l 832 1207 q 852 1198 846 1207 q 856 1175 858 1189 l 835 1074 q 822 1051 833 1060 q 797 1042 811 1042 l 365 1042 z "},"Ę":{"ha":886,"x_min":14,"x_max":931,"o":"m 626 -306 q 508 -274 553 -306 q 447 -191 463 -243 q 446 -76 432 -139 q 458 -35 450 -54 q 475 0 465 -17 l 44 0 q 22 10 31 0 q 17 35 14 21 l 208 938 q 224 963 211 953 q 250 972 236 972 l 899 972 q 922 963 914 972 q 928 938 931 953 l 900 807 q 884 782 896 792 q 857 772 872 772 l 415 772 l 374 585 l 786 585 q 809 574 801 585 q 814 549 817 564 l 788 428 q 773 403 785 414 q 746 393 761 393 l 333 393 l 293 200 l 746 200 q 769 190 761 200 q 774 165 776 181 l 746 35 q 731 10 743 21 q 704 0 719 0 l 679 0 q 617 -27 640 -1 q 586 -85 593 -53 q 594 -144 579 -119 q 651 -169 610 -169 l 668 -169 q 691 -180 683 -169 q 696 -204 699 -190 l 681 -271 q 667 -295 679 -285 q 639 -306 654 -306 l 626 -306 z "},"F":{"ha":860,"x_min":14,"x_max":919,"o":"m 44 0 q 22 10 31 0 q 17 35 14 21 l 208 938 q 224 963 211 953 q 250 972 236 972 l 889 972 q 912 963 904 972 q 917 938 919 953 l 888 797 q 873 772 885 782 q 846 763 861 763 l 417 763 l 374 558 l 774 558 q 797 548 789 558 q 801 522 804 538 l 772 383 q 757 359 769 369 q 729 349 744 349 l 329 349 l 261 35 q 247 10 258 21 q 219 0 235 0 l 44 0 z "},"G":{"ha":1000,"x_min":56,"x_max":1022,"o":"m 428 -14 q 210 30 296 -14 q 90 158 125 74 q 76 363 56 242 q 102 490 88 422 q 131 618 117 557 q 231 818 160 736 q 406 943 301 900 q 640 986 511 986 q 819 960 744 986 q 940 892 894 935 q 1004 797 986 849 q 1014 696 1022 746 q 1001 675 1011 683 q 976 667 990 667 l 774 667 q 753 672 760 667 q 742 686 746 676 q 724 730 738 707 q 681 769 710 753 q 599 786 651 786 q 465 744 519 786 q 388 611 411 703 q 360 492 374 553 q 336 369 347 431 q 358 229 319 272 q 475 186 396 186 q 572 204 526 186 q 649 260 617 222 q 692 358 681 299 l 697 385 l 567 385 q 544 395 551 385 q 539 421 536 406 l 561 524 q 576 549 564 539 q 604 560 589 560 l 954 560 q 977 549 969 560 q 982 524 985 539 l 949 365 q 851 161 924 246 q 669 31 778 76 q 428 -14 560 -14 z "},"Ğ":{"ha":1000,"x_min":56,"x_max":1022,"o":"m 428 -14 q 210 30 296 -14 q 90 158 125 74 q 76 363 56 242 q 102 490 88 422 q 131 618 117 557 q 231 818 160 736 q 406 943 301 900 q 640 986 511 986 q 819 960 744 986 q 940 892 894 935 q 1004 797 986 849 q 1014 696 1022 746 q 1001 675 1011 683 q 976 667 990 667 l 774 667 q 753 672 760 667 q 742 686 746 676 q 724 730 738 707 q 681 769 710 753 q 599 786 651 786 q 465 744 519 786 q 388 611 411 703 q 360 492 374 553 q 336 369 347 431 q 358 229 319 272 q 475 186 396 186 q 572 204 526 186 q 649 260 617 222 q 692 358 681 299 l 697 385 l 567 385 q 544 395 551 385 q 539 421 536 406 l 561 524 q 576 549 564 539 q 604 560 589 560 l 954 560 q 977 549 969 560 q 982 524 985 539 l 949 365 q 851 161 924 246 q 669 31 778 76 q 428 -14 560 -14 m 640 1032 q 526 1059 571 1032 q 463 1131 481 1086 q 456 1228 444 1175 q 467 1247 458 1239 q 488 1254 475 1254 l 582 1254 q 600 1247 594 1254 q 603 1228 606 1239 q 605 1171 597 1196 q 651 1146 613 1146 q 710 1171 690 1146 q 736 1228 729 1196 q 747 1247 739 1239 q 768 1254 756 1254 l 863 1254 q 881 1247 875 1254 q 883 1228 886 1239 q 845 1131 872 1175 q 769 1059 818 1086 q 640 1032 719 1032 z "},"Ĝ":{"ha":1000,"x_min":56,"x_max":1022,"o":"m 428 -14 q 210 30 296 -14 q 90 158 125 74 q 76 363 56 242 q 102 490 88 422 q 131 618 117 557 q 231 818 160 736 q 406 943 301 900 q 640 986 511 986 q 819 960 744 986 q 940 892 894 935 q 1004 797 986 849 q 1014 696 1022 746 q 1001 675 1011 683 q 976 667 990 667 l 774 667 q 753 672 760 667 q 742 686 746 676 q 724 730 738 707 q 681 769 710 753 q 599 786 651 786 q 465 744 519 786 q 388 611 411 703 q 360 492 374 553 q 336 369 347 431 q 358 229 319 272 q 475 186 396 186 q 572 204 526 186 q 649 260 617 222 q 692 358 681 299 l 697 385 l 567 385 q 544 395 551 385 q 539 421 536 406 l 561 524 q 576 549 564 539 q 604 560 589 560 l 954 560 q 977 549 969 560 q 982 524 985 539 l 949 365 q 851 161 924 246 q 669 31 778 76 q 428 -14 560 -14 m 383 1042 q 367 1061 364 1042 q 378 1081 368 1072 l 557 1233 q 585 1253 574 1249 q 610 1257 597 1257 l 728 1257 q 752 1253 742 1257 q 772 1233 763 1249 l 885 1081 q 889 1061 892 1072 q 864 1042 885 1042 l 799 1042 q 777 1044 788 1042 q 757 1051 767 1046 l 650 1119 l 515 1051 q 492 1044 503 1046 q 469 1042 482 1042 l 383 1042 z "},"Ģ":{"ha":1000,"x_min":56,"x_max":1022,"o":"m 428 -14 q 210 30 296 -14 q 90 158 125 74 q 76 363 56 242 q 102 490 88 422 q 131 618 117 557 q 231 818 160 736 q 406 943 301 900 q 640 986 511 986 q 819 960 744 986 q 940 892 894 935 q 1004 797 986 849 q 1014 696 1022 746 q 1001 675 1011 683 q 976 667 990 667 l 774 667 q 753 672 760 667 q 742 686 746 676 q 724 730 738 707 q 681 769 710 753 q 599 786 651 786 q 465 744 519 786 q 388 611 411 703 q 360 492 374 553 q 336 369 347 431 q 358 229 319 272 q 475 186 396 186 q 572 204 526 186 q 649 260 617 222 q 692 358 681 299 l 697 385 l 567 385 q 544 395 551 385 q 539 421 536 406 l 561 524 q 576 549 564 539 q 604 560 589 560 l 954 560 q 977 549 969 560 q 982 524 985 539 l 949 365 q 851 161 924 246 q 669 31 778 76 q 428 -14 560 -14 m 226 -326 q 208 -317 214 -326 q 207 -294 201 -307 l 272 -117 q 294 -84 279 -99 q 333 -69 310 -69 l 488 -69 q 504 -77 499 -69 q 508 -93 510 -85 q 503 -112 508 -103 l 396 -287 q 374 -314 388 -301 q 338 -326 360 -326 l 226 -326 z "},"Ġ":{"ha":1000,"x_min":56,"x_max":1022,"o":"m 428 -14 q 210 30 296 -14 q 90 158 125 74 q 76 363 56 242 q 102 490 88 422 q 131 618 117 557 q 231 818 160 736 q 406 943 301 900 q 640 986 511 986 q 819 960 744 986 q 940 892 894 935 q 1004 797 986 849 q 1014 696 1022 746 q 1001 675 1011 683 q 976 667 990 667 l 774 667 q 753 672 760 667 q 742 686 746 676 q 724 730 738 707 q 681 769 710 753 q 599 786 651 786 q 465 744 519 786 q 388 611 411 703 q 360 492 374 553 q 336 369 347 431 q 358 229 319 272 q 475 186 396 186 q 572 204 526 186 q 649 260 617 222 q 692 358 681 299 l 697 385 l 567 385 q 544 395 551 385 q 539 421 536 406 l 561 524 q 576 549 564 539 q 604 560 589 560 l 954 560 q 977 549 969 560 q 982 524 985 539 l 949 365 q 851 161 924 246 q 669 31 778 76 q 428 -14 560 -14 m 561 1042 q 540 1050 547 1042 q 536 1074 533 1058 l 567 1217 q 580 1240 569 1231 q 606 1249 590 1249 l 749 1249 q 769 1240 763 1249 q 774 1217 776 1231 l 743 1074 q 729 1050 740 1058 q 704 1042 718 1042 l 561 1042 z "},"H":{"ha":1035,"x_min":14,"x_max":1053,"o":"m 44 0 q 22 10 31 0 q 17 35 14 19 l 208 938 q 224 963 211 953 q 250 972 236 972 l 429 972 q 453 963 444 972 q 458 938 461 953 l 388 603 l 729 603 l 800 938 q 815 963 803 953 q 842 972 826 972 l 1021 972 q 1044 963 1036 972 q 1050 938 1053 953 l 857 35 q 842 10 854 21 q 815 0 831 0 l 636 0 q 613 10 621 0 q 608 35 606 21 l 682 381 l 340 381 l 267 35 q 251 10 264 21 q 224 0 239 0 l 44 0 z "},"Ħ":{"ha":1039,"x_min":14,"x_max":1061,"o":"m 160 718 q 137 728 144 718 q 132 753 129 739 l 146 821 q 161 846 149 836 q 189 856 174 856 l 1031 856 q 1053 846 1046 856 q 1058 821 1061 836 l 1044 753 q 1029 728 1042 739 q 1001 718 1017 718 l 160 718 m 44 0 q 22 10 31 0 q 17 35 14 19 l 208 938 q 224 963 211 953 q 250 972 236 972 l 429 972 q 453 963 444 972 q 458 938 461 953 l 388 603 l 729 603 l 800 938 q 815 963 803 953 q 842 972 826 972 l 1021 972 q 1044 963 1036 972 q 1050 938 1053 953 l 857 35 q 842 10 854 21 q 815 0 831 0 l 636 0 q 613 10 621 0 q 608 35 606 21 l 682 381 l 340 381 l 267 35 q 251 10 264 21 q 224 0 239 0 l 44 0 z "},"Ĥ":{"ha":1035,"x_min":14,"x_max":1053,"o":"m 44 0 q 22 10 31 0 q 17 35 14 19 l 208 938 q 224 963 211 953 q 250 972 236 972 l 429 972 q 453 963 444 972 q 458 938 461 953 l 388 603 l 729 603 l 800 938 q 815 963 803 953 q 842 972 826 972 l 1021 972 q 1044 963 1036 972 q 1050 938 1053 953 l 857 35 q 842 10 854 21 q 815 0 831 0 l 636 0 q 613 10 621 0 q 608 35 606 21 l 682 381 l 340 381 l 267 35 q 251 10 264 21 q 224 0 239 0 l 44 0 m 388 1042 q 371 1061 368 1042 q 382 1081 372 1072 l 561 1233 q 590 1253 578 1249 q 614 1257 601 1257 l 732 1257 q 756 1253 746 1257 q 776 1233 767 1249 l 889 1081 q 893 1061 896 1072 q 868 1042 889 1042 l 803 1042 q 781 1044 792 1042 q 761 1051 771 1046 l 654 1119 l 519 1051 q 497 1044 507 1046 q 474 1042 486 1042 l 388 1042 z "},"I":{"ha":450,"x_min":13,"x_max":468,"o":"m 44 0 q 21 10 29 0 q 15 35 13 21 l 208 938 q 224 963 211 953 q 250 972 236 972 l 438 972 q 460 963 451 972 q 465 938 468 953 l 274 35 q 258 10 271 21 q 232 0 246 0 l 44 0 z "},"Ĳ":{"ha":1008,"x_min":14,"x_max":1033,"o":"m 408 -14 q 386 -3 393 -14 q 382 21 379 7 l 413 168 q 428 194 417 183 q 456 204 440 204 q 588 251 538 204 q 657 392 638 299 l 774 938 q 788 963 776 953 q 815 972 800 972 l 1003 972 q 1026 963 1018 972 q 1031 938 1033 953 l 907 357 q 820 142 879 224 q 661 23 761 60 q 408 -14 561 -14 m 44 0 q 22 10 31 0 q 17 35 14 21 l 208 938 q 224 963 211 953 q 250 972 236 972 l 438 972 q 460 963 451 972 q 465 938 468 953 l 274 35 q 258 10 271 21 q 232 0 246 0 l 44 0 z "},"Í":{"ha":450,"x_min":13,"x_max":694,"o":"m 44 0 q 21 10 29 0 q 15 35 13 21 l 208 938 q 224 963 211 953 q 250 972 236 972 l 438 972 q 460 963 451 972 q 465 938 468 953 l 274 35 q 258 10 271 21 q 232 0 246 0 l 44 0 m 274 1042 q 254 1063 251 1042 q 265 1081 257 1074 l 421 1231 q 450 1252 439 1247 q 478 1257 461 1257 l 672 1257 q 689 1250 683 1257 q 693 1232 694 1243 q 682 1213 693 1221 l 465 1061 q 440 1047 451 1051 q 408 1042 428 1042 l 274 1042 z "},"Ĭ":{"ha":450,"x_min":13,"x_max":613,"o":"m 44 0 q 21 10 29 0 q 15 35 13 21 l 208 938 q 224 963 211 953 q 250 972 236 972 l 438 972 q 460 963 451 972 q 465 938 468 953 l 274 35 q 258 10 271 21 q 232 0 246 0 l 44 0 m 367 1032 q 252 1059 297 1032 q 189 1131 207 1086 q 182 1228 171 1175 q 193 1247 185 1239 q 214 1254 201 1254 l 308 1254 q 326 1247 321 1254 q 329 1228 332 1239 q 331 1171 324 1196 q 378 1146 339 1146 q 436 1171 417 1146 q 463 1228 456 1196 q 474 1247 465 1239 q 494 1254 482 1254 l 589 1254 q 607 1247 601 1254 q 610 1228 613 1239 q 572 1131 599 1175 q 495 1059 544 1086 q 367 1032 446 1032 z "},"Î":{"ha":450,"x_min":13,"x_max":617,"o":"m 44 0 q 21 10 29 0 q 15 35 13 21 l 208 938 q 224 963 211 953 q 250 972 236 972 l 438 972 q 460 963 451 972 q 465 938 468 953 l 274 35 q 258 10 271 21 q 232 0 246 0 l 44 0 m 110 1042 q 93 1061 90 1042 q 104 1081 94 1072 l 283 1233 q 312 1253 300 1249 q 336 1257 324 1257 l 454 1257 q 478 1253 468 1257 q 499 1233 489 1249 l 611 1081 q 615 1061 618 1072 q 590 1042 611 1042 l 525 1042 q 503 1044 514 1042 q 483 1051 493 1046 l 376 1119 l 242 1051 q 219 1044 229 1046 q 196 1042 208 1042 l 110 1042 z "},"Ï":{"ha":450,"x_min":13,"x_max":656,"o":"m 44 0 q 21 10 29 0 q 15 35 13 21 l 208 938 q 224 963 211 953 q 250 972 236 972 l 438 972 q 460 963 451 972 q 465 938 468 953 l 274 35 q 258 10 271 21 q 232 0 246 0 l 44 0 m 460 1042 q 440 1050 446 1042 q 436 1074 433 1058 l 463 1200 q 476 1223 465 1214 q 501 1232 486 1232 l 628 1232 q 649 1223 642 1232 q 653 1200 656 1214 l 626 1074 q 613 1050 624 1058 q 588 1042 601 1042 l 460 1042 m 132 1042 q 111 1050 118 1042 q 107 1074 104 1058 l 133 1200 q 147 1223 136 1214 q 172 1232 158 1232 l 300 1232 q 321 1223 314 1232 q 325 1200 328 1214 l 297 1074 q 283 1050 294 1058 q 258 1042 272 1042 l 132 1042 z "},"İ":{"ha":450,"x_min":13,"x_max":503,"o":"m 44 0 q 21 10 29 0 q 15 35 13 21 l 208 938 q 224 963 211 953 q 250 972 236 972 l 438 972 q 460 963 451 972 q 465 938 468 953 l 274 35 q 258 10 271 21 q 232 0 246 0 l 44 0 m 288 1042 q 267 1050 274 1042 q 263 1074 260 1058 l 293 1217 q 306 1240 296 1231 q 332 1249 317 1249 l 475 1249 q 496 1240 489 1249 q 500 1217 503 1231 l 469 1074 q 456 1050 467 1058 q 431 1042 444 1042 l 288 1042 z "},"Ì":{"ha":450,"x_min":13,"x_max":468,"o":"m 44 0 q 21 10 29 0 q 15 35 13 21 l 208 938 q 224 963 211 953 q 250 972 236 972 l 438 972 q 460 963 451 972 q 465 938 468 953 l 274 35 q 258 10 271 21 q 232 0 246 0 l 44 0 m 308 1042 q 279 1047 289 1042 q 260 1061 269 1051 l 108 1211 q 104 1231 101 1218 q 136 1257 108 1257 l 322 1257 q 348 1252 339 1257 q 368 1231 357 1247 l 458 1082 q 461 1064 464 1074 q 435 1042 457 1042 l 308 1042 z "},"Ī":{"ha":450,"x_min":13,"x_max":638,"o":"m 44 0 q 21 10 29 0 q 15 35 13 21 l 208 938 q 224 963 211 953 q 250 972 236 972 l 438 972 q 460 963 451 972 q 465 938 468 953 l 274 35 q 258 10 271 21 q 232 0 246 0 l 44 0 m 143 1042 q 123 1051 129 1042 q 119 1074 117 1060 l 140 1175 q 154 1198 143 1189 q 179 1207 165 1207 l 610 1207 q 630 1198 624 1207 q 633 1175 636 1189 l 613 1074 q 600 1051 611 1060 q 575 1042 589 1042 l 143 1042 z "},"Į":{"ha":460,"x_min":-11,"x_max":497,"o":"m 172 -307 q 56 -278 99 -307 q 1 -199 14 -250 q 3 -86 -11 -149 q 33 -14 10 -43 q 88 29 57 15 l 69 33 q 55 43 60 35 q 51 63 50 51 l 238 938 q 253 963 240 953 q 281 972 265 972 l 467 972 q 490 963 482 972 q 494 938 497 953 l 303 35 q 288 10 300 21 q 260 0 275 0 l 243 0 q 176 -26 201 0 q 143 -86 150 -53 q 150 -146 135 -119 q 207 -172 165 -172 l 224 -172 q 247 -182 239 -172 q 251 -207 254 -192 l 238 -272 q 222 -297 235 -287 q 194 -307 210 -307 l 172 -307 z "},"Ĩ":{"ha":450,"x_min":13,"x_max":646,"o":"m 44 0 q 21 10 29 0 q 15 35 13 21 l 208 938 q 224 963 211 953 q 250 972 236 972 l 438 972 q 460 963 451 972 q 465 938 468 953 l 274 35 q 258 10 271 21 q 232 0 246 0 l 44 0 m 461 1035 q 398 1047 422 1035 q 354 1072 374 1060 q 310 1083 335 1083 q 276 1074 288 1083 q 256 1053 265 1064 q 232 1042 247 1042 l 149 1042 q 133 1049 139 1042 q 129 1065 128 1057 q 147 1118 133 1088 q 181 1177 160 1149 q 235 1224 203 1206 q 313 1243 268 1243 q 375 1231 350 1243 q 419 1206 400 1218 q 463 1193 439 1193 q 496 1204 485 1193 q 516 1226 507 1215 q 540 1236 525 1236 l 624 1236 q 641 1228 636 1236 q 643 1211 646 1221 q 626 1159 639 1189 q 590 1101 613 1129 q 536 1053 568 1072 q 461 1035 504 1035 z "},"J":{"ha":926,"x_min":-10,"x_max":953,"o":"m 368 -14 q 227 6 297 -14 q 101 67 157 26 q 18 167 46 107 q 4 306 -10 226 q 17 327 7 318 q 39 336 26 336 l 228 336 q 256 326 247 336 q 267 297 264 317 q 296 213 267 239 q 385 186 325 186 q 506 231 460 186 q 569 364 551 276 l 654 765 l 206 765 q 183 775 190 765 q 178 800 175 785 l 207 938 q 222 963 210 953 q 249 972 233 972 l 921 972 q 944 963 936 972 q 950 938 953 953 l 826 357 q 744 153 801 236 q 594 28 688 71 q 368 -14 501 -14 z "},"Ĵ":{"ha":926,"x_min":-10,"x_max":953,"o":"m 368 -14 q 227 6 297 -14 q 101 67 157 26 q 18 167 46 107 q 4 306 -10 226 q 17 327 7 318 q 39 336 26 336 l 228 336 q 256 326 247 336 q 267 297 264 317 q 296 213 267 239 q 385 186 325 186 q 506 231 460 186 q 569 364 551 276 l 654 765 l 206 765 q 183 775 190 765 q 178 800 175 785 l 207 938 q 222 963 210 953 q 249 972 233 972 l 921 972 q 944 963 936 972 q 950 938 953 953 l 826 357 q 744 153 801 236 q 594 28 688 71 q 368 -14 501 -14 m 349 1042 q 332 1061 329 1042 q 343 1081 333 1072 l 522 1233 q 551 1253 539 1249 q 575 1257 563 1257 l 693 1257 q 717 1253 707 1257 q 738 1233 728 1249 l 850 1081 q 854 1061 857 1072 q 829 1042 850 1042 l 764 1042 q 742 1044 753 1042 q 722 1051 732 1046 l 615 1119 l 481 1051 q 458 1044 468 1046 q 435 1042 447 1042 l 349 1042 z "},"K":{"ha":911,"x_min":14,"x_max":992,"o":"m 44 0 q 22 10 31 0 q 17 35 14 21 l 208 938 q 223 963 211 953 q 249 972 235 972 l 425 972 q 449 963 440 972 q 454 938 457 953 l 389 635 l 697 946 q 719 963 706 954 q 757 972 733 972 l 963 972 q 987 956 982 972 q 981 926 992 939 l 554 489 l 817 46 q 815 14 828 28 q 788 0 803 0 l 593 0 q 560 8 571 0 q 543 28 549 17 l 335 375 l 261 35 q 247 10 258 21 q 221 0 236 0 l 44 0 z "},"Ķ":{"ha":911,"x_min":14,"x_max":992,"o":"m 44 0 q 22 10 31 0 q 17 35 14 21 l 208 938 q 223 963 211 953 q 249 972 235 972 l 425 972 q 449 963 440 972 q 454 938 457 953 l 389 635 l 697 946 q 719 963 706 954 q 757 972 733 972 l 963 972 q 987 956 982 972 q 981 926 992 939 l 554 489 l 817 46 q 815 14 828 28 q 788 0 803 0 l 593 0 q 560 8 571 0 q 543 28 549 17 l 335 375 l 261 35 q 247 10 258 21 q 221 0 236 0 l 44 0 m 192 -326 q 173 -317 179 -326 q 172 -294 167 -307 l 238 -117 q 260 -84 244 -99 q 299 -69 275 -69 l 453 -69 q 469 -77 464 -69 q 474 -93 475 -85 q 468 -112 474 -103 l 361 -287 q 339 -314 353 -301 q 303 -326 325 -326 l 192 -326 z "},"L":{"ha":822,"x_min":14,"x_max":757,"o":"m 44 0 q 22 10 31 0 q 17 35 14 21 l 208 938 q 224 963 211 953 q 250 972 236 972 l 433 972 q 457 963 449 972 q 463 938 465 953 l 307 210 l 726 210 q 749 199 742 210 q 754 174 757 189 l 725 35 q 710 10 722 21 q 683 0 699 0 l 44 0 z "},"Ĺ":{"ha":822,"x_min":14,"x_max":757,"o":"m 44 0 q 22 10 31 0 q 17 35 14 21 l 208 938 q 224 963 211 953 q 250 972 236 972 l 433 972 q 457 963 449 972 q 463 938 465 953 l 307 210 l 726 210 q 749 199 742 210 q 754 174 757 189 l 725 35 q 710 10 722 21 q 683 0 699 0 l 44 0 m 275 1042 q 256 1063 253 1042 q 267 1081 258 1074 l 422 1231 q 451 1252 440 1247 q 479 1257 463 1257 l 674 1257 q 690 1250 685 1257 q 694 1232 696 1243 q 683 1213 694 1221 l 467 1061 q 441 1047 453 1051 q 410 1042 429 1042 l 275 1042 z "},"Ľ":{"ha":828,"x_min":14,"x_max":833,"o":"m 550 729 q 531 739 538 729 q 531 761 525 749 l 596 939 q 618 972 603 957 q 657 986 633 986 l 811 986 q 828 978 822 986 q 832 963 833 971 q 826 943 832 953 l 719 768 q 697 742 711 754 q 661 729 683 729 l 550 729 m 44 0 q 22 10 31 0 q 17 35 14 21 l 208 938 q 224 963 211 953 q 250 972 236 972 l 433 972 q 457 963 449 972 q 463 938 465 953 l 307 210 l 726 210 q 749 199 742 210 q 754 174 757 189 l 725 35 q 710 10 722 21 q 683 0 699 0 l 44 0 z "},"Ļ":{"ha":822,"x_min":14,"x_max":757,"o":"m 44 0 q 22 10 31 0 q 17 35 14 21 l 208 938 q 224 963 211 953 q 250 972 236 972 l 433 972 q 457 963 449 972 q 463 938 465 953 l 307 210 l 726 210 q 749 199 742 210 q 754 174 757 189 l 725 35 q 710 10 722 21 q 683 0 699 0 l 44 0 m 153 -326 q 134 -317 140 -326 q 133 -294 128 -307 l 199 -117 q 221 -84 206 -99 q 260 -69 236 -69 l 414 -69 q 431 -77 425 -69 q 435 -93 436 -85 q 429 -112 435 -103 l 322 -287 q 300 -314 314 -301 q 264 -326 286 -326 l 153 -326 z "},"Ŀ":{"ha":828,"x_min":14,"x_max":781,"o":"m 44 0 q 22 10 31 0 q 17 35 14 21 l 208 938 q 224 963 211 953 q 250 972 236 972 l 433 972 q 457 963 449 972 q 463 938 465 953 l 307 210 l 726 210 q 749 199 742 210 q 754 174 757 189 l 725 35 q 710 10 722 21 q 683 0 699 0 l 44 0 m 565 432 q 544 440 551 432 q 540 463 538 449 l 572 606 q 585 628 575 619 q 610 638 596 638 l 753 638 q 774 628 767 638 q 778 606 781 619 l 747 463 q 734 440 744 449 q 708 432 724 432 l 565 432 z "},"Ł":{"ha":833,"x_min":3,"x_max":769,"o":"m 56 0 q 33 10 42 0 q 28 35 25 21 l 94 347 l 44 331 q 26 326 32 326 q 9 333 15 326 q 6 353 3 340 l 28 457 q 40 484 31 475 q 67 499 49 493 l 131 522 l 219 938 q 235 963 222 953 q 261 972 247 972 l 444 972 q 468 963 460 972 q 474 938 476 953 l 406 622 l 624 700 q 642 704 636 704 q 660 697 653 704 q 664 676 667 689 l 642 574 q 629 547 638 556 q 603 532 621 539 l 369 447 l 318 210 l 739 210 q 761 199 753 210 q 767 175 769 189 l 736 35 q 722 10 733 21 q 694 0 710 0 l 56 0 z "},"M":{"ha":1150,"x_min":14,"x_max":1168,"o":"m 46 0 q 22 10 31 0 q 17 35 14 21 l 208 938 q 224 963 211 953 q 251 972 236 972 l 401 972 q 433 960 424 972 q 444 942 442 949 l 596 504 l 933 942 q 951 960 938 949 q 986 972 964 972 l 1138 972 q 1160 963 1153 972 q 1165 938 1168 953 l 974 35 q 959 10 971 21 q 932 0 947 0 l 764 0 q 742 10 750 0 q 736 35 733 21 l 844 547 l 632 265 q 609 244 622 254 q 576 233 596 233 l 504 233 q 476 243 485 233 q 464 265 468 253 l 365 560 l 254 35 q 239 10 251 21 q 213 0 226 0 l 46 0 z "},"N":{"ha":1000,"x_min":14,"x_max":1018,"o":"m 44 0 q 22 10 31 0 q 17 35 14 21 l 208 938 q 223 963 211 953 q 250 972 235 972 l 397 972 q 428 963 419 972 q 439 946 436 953 l 665 408 l 778 938 q 793 963 781 953 q 819 972 806 972 l 986 972 q 1010 963 1001 972 q 1015 938 1018 953 l 822 36 q 808 10 819 21 q 781 0 796 0 l 633 0 q 603 10 611 0 q 592 26 594 21 l 363 544 l 254 35 q 239 10 251 21 q 211 0 226 0 l 44 0 z "},"Ń":{"ha":1000,"x_min":14,"x_max":1018,"o":"m 44 0 q 22 10 31 0 q 17 35 14 21 l 208 938 q 223 963 211 953 q 250 972 235 972 l 397 972 q 428 963 419 972 q 439 946 436 953 l 665 408 l 778 938 q 793 963 781 953 q 819 972 806 972 l 986 972 q 1010 963 1001 972 q 1015 938 1018 953 l 822 36 q 808 10 819 21 q 781 0 796 0 l 633 0 q 603 10 611 0 q 592 26 594 21 l 363 544 l 254 35 q 239 10 251 21 q 211 0 226 0 l 44 0 m 532 1042 q 513 1063 510 1042 q 524 1081 515 1074 l 679 1231 q 708 1252 697 1247 q 736 1257 719 1257 l 931 1257 q 947 1250 942 1257 q 951 1232 953 1243 q 940 1213 951 1221 l 724 1061 q 698 1047 710 1051 q 667 1042 686 1042 l 532 1042 z "},"Ň":{"ha":1000,"x_min":14,"x_max":1018,"o":"m 44 0 q 22 10 31 0 q 17 35 14 21 l 208 938 q 223 963 211 953 q 250 972 235 972 l 397 972 q 428 963 419 972 q 439 946 436 953 l 665 408 l 778 938 q 793 963 781 953 q 819 972 806 972 l 986 972 q 1010 963 1001 972 q 1015 938 1018 953 l 822 36 q 808 10 819 21 q 781 0 796 0 l 633 0 q 603 10 611 0 q 592 26 594 21 l 363 544 l 254 35 q 239 10 251 21 q 211 0 226 0 l 44 0 m 558 1042 q 536 1047 546 1042 q 515 1065 526 1051 l 403 1218 q 399 1238 396 1226 q 424 1257 403 1257 l 488 1257 q 510 1255 500 1257 q 531 1247 521 1253 l 636 1179 l 772 1247 q 794 1255 783 1253 q 817 1257 806 1257 l 904 1257 q 921 1238 924 1257 q 908 1219 919 1228 l 731 1065 q 702 1047 714 1051 q 676 1042 690 1042 l 558 1042 z "},"Ņ":{"ha":1000,"x_min":14,"x_max":1018,"o":"m 44 0 q 22 10 31 0 q 17 35 14 21 l 208 938 q 223 963 211 953 q 250 972 235 972 l 397 972 q 428 963 419 972 q 439 946 436 953 l 665 408 l 778 938 q 793 963 781 953 q 819 972 806 972 l 986 972 q 1010 963 1001 972 q 1015 938 1018 953 l 822 36 q 808 10 819 21 q 781 0 796 0 l 633 0 q 603 10 611 0 q 592 26 594 21 l 363 544 l 254 35 q 239 10 251 21 q 211 0 226 0 l 44 0 m 231 -326 q 212 -317 218 -326 q 211 -294 206 -307 l 276 -117 q 299 -84 283 -99 q 338 -69 314 -69 l 492 -69 q 508 -77 503 -69 q 513 -93 514 -85 q 507 -112 513 -103 l 400 -287 q 378 -314 392 -301 q 342 -326 364 -326 l 231 -326 z "},"Ñ":{"ha":1000,"x_min":14,"x_max":1018,"o":"m 44 0 q 22 10 31 0 q 17 35 14 21 l 208 938 q 223 963 211 953 q 250 972 235 972 l 397 972 q 428 963 419 972 q 439 946 436 953 l 665 408 l 778 938 q 793 963 781 953 q 819 972 806 972 l 986 972 q 1010 963 1001 972 q 1015 938 1018 953 l 822 36 q 808 10 819 21 q 781 0 796 0 l 633 0 q 603 10 611 0 q 592 26 594 21 l 363 544 l 254 35 q 239 10 251 21 q 211 0 226 0 l 44 0 m 719 1035 q 656 1047 681 1035 q 613 1072 632 1060 q 568 1083 593 1083 q 535 1074 546 1083 q 515 1053 524 1064 q 490 1042 506 1042 l 407 1042 q 392 1049 397 1042 q 388 1065 386 1057 q 405 1118 392 1088 q 440 1177 418 1149 q 494 1224 461 1206 q 571 1243 526 1243 q 633 1231 608 1243 q 678 1206 658 1218 q 721 1193 697 1193 q 754 1204 743 1193 q 774 1226 765 1215 q 799 1236 783 1236 l 882 1236 q 899 1228 894 1236 q 901 1211 904 1221 q 884 1159 897 1189 q 849 1101 871 1129 q 794 1053 826 1072 q 719 1035 763 1035 z "},"Ŋ":{"ha":999,"x_min":33,"x_max":1036,"o":"m 390 -312 q 367 -302 375 -312 q 363 -278 360 -292 l 392 -140 q 407 -115 394 -125 q 435 -106 419 -106 l 471 -106 q 535 -91 510 -106 q 576 -53 561 -76 q 597 1 592 -29 l 606 38 l 381 540 l 274 35 q 258 10 271 21 q 231 0 246 0 l 64 0 q 41 10 49 0 q 36 35 33 21 l 228 938 q 243 963 231 953 q 271 972 256 972 l 418 972 q 450 962 442 972 q 460 946 458 951 l 685 413 l 796 938 q 811 963 799 953 q 839 972 824 972 l 1006 972 q 1028 963 1021 972 q 1033 938 1036 953 l 833 -7 q 753 -174 813 -106 q 606 -277 694 -242 q 406 -312 518 -312 l 390 -312 z "},"O":{"ha":989,"x_min":42,"x_max":979,"o":"m 425 -14 q 263 10 338 -14 q 137 81 189 33 q 63 199 85 128 q 57 364 42 269 q 81 484 68 424 q 108 604 94 544 q 274 889 154 792 q 596 986 393 986 q 758 962 683 986 q 884 889 832 938 q 958 769 936 840 q 963 604 979 699 q 940 484 953 544 q 913 364 926 424 q 746 80 865 174 q 425 -14 626 -14 m 444 186 q 576 231 519 186 q 656 372 632 275 q 683 488 671 433 q 704 600 694 542 q 688 742 722 697 q 578 786 653 786 q 447 742 503 786 q 367 600 390 697 q 340 488 351 542 q 317 372 328 433 q 333 231 300 275 q 444 186 367 186 z "},"Ó":{"ha":989,"x_min":42,"x_max":979,"o":"m 425 -14 q 263 10 338 -14 q 137 81 189 33 q 63 199 85 128 q 57 364 42 269 q 81 484 68 424 q 108 604 94 544 q 274 889 154 792 q 596 986 393 986 q 758 962 683 986 q 884 889 832 938 q 958 769 936 840 q 963 604 979 699 q 940 484 953 544 q 913 364 926 424 q 746 80 865 174 q 425 -14 626 -14 m 444 186 q 576 231 519 186 q 656 372 632 275 q 683 488 671 433 q 704 600 694 542 q 688 742 722 697 q 578 786 653 786 q 447 742 503 786 q 367 600 390 697 q 340 488 351 542 q 317 372 328 433 q 333 231 300 275 q 444 186 367 186 m 533 1042 q 514 1063 511 1042 q 525 1081 517 1074 l 681 1231 q 710 1252 699 1247 q 738 1257 721 1257 l 932 1257 q 949 1250 943 1257 q 953 1232 954 1243 q 942 1213 953 1221 l 725 1061 q 699 1047 711 1051 q 668 1042 688 1042 l 533 1042 z "},"Ŏ":{"ha":989,"x_min":42,"x_max":979,"o":"m 425 -14 q 263 10 338 -14 q 137 81 189 33 q 63 199 85 128 q 57 364 42 269 q 81 484 68 424 q 108 604 94 544 q 274 889 154 792 q 596 986 393 986 q 758 962 683 986 q 884 889 832 938 q 958 769 936 840 q 963 604 979 699 q 940 484 953 544 q 913 364 926 424 q 746 80 865 174 q 425 -14 626 -14 m 444 186 q 576 231 519 186 q 656 372 632 275 q 683 488 671 433 q 704 600 694 542 q 688 742 722 697 q 578 786 653 786 q 447 742 503 786 q 367 600 390 697 q 340 488 351 542 q 317 372 328 433 q 333 231 300 275 q 444 186 367 186 m 628 1032 q 513 1059 558 1032 q 450 1131 468 1086 q 443 1228 432 1175 q 454 1247 446 1239 q 475 1254 463 1254 l 569 1254 q 588 1247 582 1254 q 590 1228 593 1239 q 592 1171 585 1196 q 639 1146 600 1146 q 697 1171 678 1146 q 724 1228 717 1196 q 735 1247 726 1239 q 756 1254 743 1254 l 850 1254 q 868 1247 863 1254 q 871 1228 874 1239 q 833 1131 860 1175 q 756 1059 806 1086 q 628 1032 707 1032 z "},"Ô":{"ha":989,"x_min":42,"x_max":979,"o":"m 425 -14 q 263 10 338 -14 q 137 81 189 33 q 63 199 85 128 q 57 364 42 269 q 81 484 68 424 q 108 604 94 544 q 274 889 154 792 q 596 986 393 986 q 758 962 683 986 q 884 889 832 938 q 958 769 936 840 q 963 604 979 699 q 940 484 953 544 q 913 364 926 424 q 746 80 865 174 q 425 -14 626 -14 m 444 186 q 576 231 519 186 q 656 372 632 275 q 683 488 671 433 q 704 600 694 542 q 688 742 722 697 q 578 786 653 786 q 447 742 503 786 q 367 600 390 697 q 340 488 351 542 q 317 372 328 433 q 333 231 300 275 q 444 186 367 186 m 369 1042 q 353 1061 350 1042 q 364 1081 354 1072 l 543 1233 q 572 1253 560 1249 q 596 1257 583 1257 l 714 1257 q 738 1253 728 1257 q 758 1233 749 1249 l 871 1081 q 875 1061 878 1072 q 850 1042 871 1042 l 785 1042 q 763 1044 774 1042 q 743 1051 753 1046 l 636 1119 l 501 1051 q 478 1044 489 1046 q 456 1042 468 1042 l 369 1042 z "},"Ö":{"ha":989,"x_min":42,"x_max":979,"o":"m 425 -14 q 263 10 338 -14 q 137 81 189 33 q 63 199 85 128 q 57 364 42 269 q 81 484 68 424 q 108 604 94 544 q 274 889 154 792 q 596 986 393 986 q 758 962 683 986 q 884 889 832 938 q 958 769 936 840 q 963 604 979 699 q 940 484 953 544 q 913 364 926 424 q 746 80 865 174 q 425 -14 626 -14 m 444 186 q 576 231 519 186 q 656 372 632 275 q 683 488 671 433 q 704 600 694 542 q 688 742 722 697 q 578 786 653 786 q 447 742 503 786 q 367 600 390 697 q 340 488 351 542 q 317 372 328 433 q 333 231 300 275 q 444 186 367 186 m 719 1042 q 699 1050 706 1042 q 696 1074 693 1058 l 722 1200 q 735 1223 725 1214 q 761 1232 746 1232 l 888 1232 q 908 1223 901 1232 q 913 1200 915 1214 l 886 1074 q 872 1050 883 1058 q 847 1042 861 1042 l 719 1042 m 392 1042 q 371 1050 378 1042 q 367 1074 364 1058 l 393 1200 q 407 1223 396 1214 q 432 1232 418 1232 l 560 1232 q 581 1223 574 1232 q 585 1200 588 1214 l 557 1074 q 543 1050 554 1058 q 518 1042 532 1042 l 392 1042 z "},"Ò":{"ha":989,"x_min":42,"x_max":979,"o":"m 425 -14 q 263 10 338 -14 q 137 81 189 33 q 63 199 85 128 q 57 364 42 269 q 81 484 68 424 q 108 604 94 544 q 274 889 154 792 q 596 986 393 986 q 758 962 683 986 q 884 889 832 938 q 958 769 936 840 q 963 604 979 699 q 940 484 953 544 q 913 364 926 424 q 746 80 865 174 q 425 -14 626 -14 m 444 186 q 576 231 519 186 q 656 372 632 275 q 683 488 671 433 q 704 600 694 542 q 688 742 722 697 q 578 786 653 786 q 447 742 503 786 q 367 600 390 697 q 340 488 351 542 q 317 372 328 433 q 333 231 300 275 q 444 186 367 186 m 569 1042 q 540 1047 550 1042 q 521 1061 531 1051 l 369 1211 q 365 1231 363 1218 q 397 1257 369 1257 l 583 1257 q 609 1252 600 1257 q 629 1231 618 1247 l 719 1082 q 722 1064 725 1074 q 696 1042 718 1042 l 569 1042 z "},"Ő":{"ha":989,"x_min":42,"x_max":1031,"o":"m 425 -14 q 263 10 338 -14 q 137 81 189 33 q 63 199 85 128 q 57 364 42 269 q 81 484 68 424 q 108 604 94 544 q 274 889 154 792 q 596 986 393 986 q 758 962 683 986 q 884 889 832 938 q 958 769 936 840 q 963 604 979 699 q 940 484 953 544 q 913 364 926 424 q 746 80 865 174 q 425 -14 626 -14 m 444 186 q 576 231 519 186 q 656 372 632 275 q 683 488 671 433 q 704 600 694 542 q 688 742 722 697 q 578 786 653 786 q 447 742 503 786 q 367 600 390 697 q 340 488 351 542 q 317 372 328 433 q 333 231 300 275 q 444 186 367 186 m 700 1042 q 681 1061 678 1042 q 685 1072 682 1067 q 692 1081 689 1076 l 790 1231 q 813 1251 800 1244 q 847 1257 825 1257 l 1004 1257 q 1026 1233 1031 1257 q 1015 1214 1025 1222 l 846 1061 q 797 1042 824 1042 l 700 1042 m 410 1042 q 392 1061 389 1042 q 395 1072 392 1067 q 401 1081 399 1076 l 500 1231 q 522 1251 510 1244 q 557 1257 535 1257 l 714 1257 q 736 1233 742 1257 q 725 1214 736 1222 l 557 1061 q 507 1042 535 1042 l 410 1042 z "},"Ō":{"ha":989,"x_min":42,"x_max":979,"o":"m 425 -14 q 263 10 338 -14 q 137 81 189 33 q 63 199 85 128 q 57 364 42 269 q 81 484 68 424 q 108 604 94 544 q 274 889 154 792 q 596 986 393 986 q 758 962 683 986 q 884 889 832 938 q 958 769 936 840 q 963 604 979 699 q 940 484 953 544 q 913 364 926 424 q 746 80 865 174 q 425 -14 626 -14 m 444 186 q 576 231 519 186 q 656 372 632 275 q 683 488 671 433 q 704 600 694 542 q 688 742 722 697 q 578 786 653 786 q 447 742 503 786 q 367 600 390 697 q 340 488 351 542 q 317 372 328 433 q 333 231 300 275 q 444 186 367 186 m 404 1042 q 384 1051 390 1042 q 381 1074 378 1060 l 401 1175 q 415 1198 404 1189 q 440 1207 426 1207 l 871 1207 q 891 1198 885 1207 q 894 1175 897 1189 l 874 1074 q 861 1051 872 1060 q 836 1042 850 1042 l 404 1042 z "},"Ø":{"ha":989,"x_min":8,"x_max":1033,"o":"m 425 -14 q 263 10 338 -14 q 137 81 189 33 q 63 199 85 128 q 57 364 42 269 q 81 484 68 424 q 108 604 94 544 q 274 889 154 792 q 596 986 393 986 q 758 962 683 986 q 884 889 832 938 q 958 769 936 840 q 963 604 979 699 q 940 484 953 544 q 913 364 926 424 q 746 80 865 174 q 425 -14 626 -14 m 444 186 q 576 231 519 186 q 656 372 632 275 q 683 488 671 433 q 704 600 694 542 q 688 742 722 697 q 578 786 653 786 q 447 742 503 786 q 367 600 390 697 q 340 488 351 542 q 317 372 328 433 q 333 231 300 275 q 444 186 367 186 m 40 -90 q 16 -74 24 -90 q 22 -42 8 -58 l 921 1043 q 932 1055 924 1047 q 954 1063 940 1063 l 1001 1063 q 1026 1047 1019 1063 q 1021 1015 1033 1032 l 119 -69 q 109 -82 117 -74 q 85 -90 101 -90 l 40 -90 z "},"Ǿ":{"ha":1029,"x_min":8,"x_max":1033,"o":"m 558 1042 q 539 1063 536 1042 q 550 1081 542 1074 l 706 1231 q 735 1252 724 1247 q 763 1257 746 1257 l 957 1257 q 974 1250 968 1257 q 978 1232 979 1243 q 967 1213 978 1221 l 750 1061 q 724 1047 736 1051 q 693 1042 713 1042 l 558 1042 m 425 -14 q 263 10 338 -14 q 137 81 189 33 q 63 199 85 128 q 57 364 42 269 q 81 484 68 424 q 108 604 94 544 q 274 889 154 792 q 596 986 393 986 q 758 962 683 986 q 884 889 832 938 q 958 769 936 840 q 963 604 979 699 q 940 484 953 544 q 913 364 926 424 q 746 80 865 174 q 425 -14 626 -14 m 444 186 q 576 231 519 186 q 656 372 632 275 q 683 488 671 433 q 704 600 694 542 q 688 742 722 697 q 578 786 653 786 q 447 742 503 786 q 367 600 390 697 q 340 488 351 542 q 317 372 328 433 q 333 231 300 275 q 444 186 367 186 m 40 -90 q 16 -74 24 -90 q 22 -42 8 -58 l 921 1043 q 932 1055 924 1047 q 954 1063 940 1063 l 1001 1063 q 1026 1047 1019 1063 q 1021 1015 1033 1032 l 119 -69 q 109 -82 117 -74 q 85 -90 101 -90 l 40 -90 z "},"Õ":{"ha":989,"x_min":42,"x_max":979,"o":"m 425 -14 q 263 10 338 -14 q 137 81 189 33 q 63 199 85 128 q 57 364 42 269 q 81 484 68 424 q 108 604 94 544 q 274 889 154 792 q 596 986 393 986 q 758 962 683 986 q 884 889 832 938 q 958 769 936 840 q 963 604 979 699 q 940 484 953 544 q 913 364 926 424 q 746 80 865 174 q 425 -14 626 -14 m 444 186 q 576 231 519 186 q 656 372 632 275 q 683 488 671 433 q 704 600 694 542 q 688 742 722 697 q 578 786 653 786 q 447 742 503 786 q 367 600 390 697 q 340 488 351 542 q 317 372 328 433 q 333 231 300 275 q 444 186 367 186 m 722 1035 q 659 1047 683 1035 q 615 1072 635 1060 q 571 1083 596 1083 q 538 1074 549 1083 q 517 1053 526 1064 q 493 1042 508 1042 l 410 1042 q 394 1049 400 1042 q 390 1065 389 1057 q 408 1118 394 1088 q 442 1177 421 1149 q 497 1224 464 1206 q 574 1243 529 1243 q 636 1231 611 1243 q 681 1206 661 1218 q 724 1193 700 1193 q 757 1204 746 1193 q 777 1226 768 1215 q 801 1236 786 1236 l 885 1236 q 902 1228 897 1236 q 904 1211 907 1221 q 887 1159 900 1189 q 851 1101 874 1129 q 797 1053 829 1072 q 722 1035 765 1035 z "},"Œ":{"ha":1336,"x_min":43,"x_max":1381,"o":"m 433 0 q 266 24 342 0 q 138 94 190 47 q 65 213 86 142 q 60 381 43 285 q 81 485 71 439 q 106 593 92 532 q 197 803 136 718 q 356 930 257 888 q 594 972 454 972 l 1350 972 q 1373 963 1365 972 q 1378 938 1381 953 l 1350 807 q 1335 782 1347 792 q 1307 772 1322 772 l 904 772 l 863 585 l 1236 585 q 1260 574 1251 585 q 1265 549 1268 564 l 1239 428 q 1224 403 1236 414 q 1196 393 1211 393 l 822 393 l 782 200 l 1197 200 q 1220 190 1213 200 q 1225 165 1228 181 l 1197 35 q 1183 10 1194 21 q 1156 0 1171 0 l 433 0 m 458 200 l 542 200 l 664 772 l 582 772 q 477 753 522 772 q 403 694 432 735 q 358 590 375 654 q 341 519 349 551 q 327 456 333 488 q 314 383 321 424 q 333 245 297 290 q 458 200 368 200 z "},"P":{"ha":940,"x_min":14,"x_max":969,"o":"m 44 0 q 22 10 31 0 q 17 35 14 21 l 208 938 q 224 963 211 953 q 250 972 236 972 l 619 972 q 773 953 704 972 q 888 893 842 933 q 951 792 933 853 q 953 651 969 732 q 813 415 919 492 q 526 339 706 339 l 339 339 l 275 35 q 260 10 272 21 q 233 0 249 0 l 44 0 m 376 531 l 536 531 q 637 561 592 531 q 696 654 682 592 q 699 718 703 690 q 670 763 694 746 q 596 779 646 779 l 429 779 l 376 531 z "},"Þ":{"ha":940,"x_min":14,"x_max":936,"o":"m 44 0 q 22 10 31 0 q 17 35 14 21 l 208 938 q 224 963 211 953 q 250 972 236 972 l 439 972 q 463 963 454 972 q 468 938 471 953 l 440 813 l 586 813 q 739 792 671 813 q 853 732 807 772 q 918 632 900 692 q 919 492 936 572 q 778 254 885 331 q 492 178 672 178 l 306 178 l 275 35 q 260 10 272 21 q 233 0 249 0 l 44 0 m 342 369 l 501 369 q 603 400 558 369 q 661 493 647 431 q 665 558 669 529 q 636 603 660 586 q 561 619 613 619 l 394 619 l 342 369 z "},"Q":{"ha":989,"x_min":54,"x_max":1004,"o":"m 629 -90 q 598 -78 607 -90 q 583 -58 589 -67 l 550 4 q 422 -14 492 -14 q 209 28 294 -14 q 89 153 124 69 q 75 364 54 238 q 99 484 86 424 q 126 604 113 544 q 231 815 158 729 q 406 943 303 900 q 635 986 510 986 q 847 943 761 986 q 968 815 932 900 q 982 604 1004 729 q 959 484 972 544 q 931 364 946 424 q 774 97 886 192 l 844 -47 q 846 -61 847 -54 q 834 -81 844 -72 q 811 -90 824 -90 l 629 -90 m 467 186 q 595 231 539 186 q 674 372 651 275 q 701 488 689 433 q 722 600 713 542 q 720 706 733 665 q 674 767 707 747 q 593 786 642 786 q 465 742 521 786 q 383 600 408 697 q 358 488 369 542 q 336 372 347 433 q 338 266 325 307 q 384 206 351 225 q 467 186 417 186 z "},"R":{"ha":960,"x_min":33,"x_max":999,"o":"m 64 0 q 41 10 49 0 q 36 35 33 21 l 228 938 q 243 963 231 953 q 271 972 256 972 l 649 972 q 914 890 829 972 q 967 656 999 807 q 884 489 946 557 q 738 386 822 421 l 856 44 q 857 38 857 40 q 856 29 857 35 q 843 9 854 18 q 821 0 832 0 l 636 0 q 601 13 610 0 q 588 38 592 26 l 494 343 l 353 343 l 286 35 q 271 10 283 21 q 243 0 258 0 l 64 0 m 393 540 l 554 540 q 658 572 619 540 q 710 658 697 604 q 697 746 721 713 q 604 779 672 779 l 444 779 l 393 540 z "},"Ŕ":{"ha":960,"x_min":33,"x_max":999,"o":"m 64 0 q 41 10 49 0 q 36 35 33 21 l 228 938 q 243 963 231 953 q 271 972 256 972 l 649 972 q 914 890 829 972 q 967 656 999 807 q 884 489 946 557 q 738 386 822 421 l 856 44 q 857 38 857 40 q 856 29 857 35 q 843 9 854 18 q 821 0 832 0 l 636 0 q 601 13 610 0 q 588 38 592 26 l 494 343 l 353 343 l 286 35 q 271 10 283 21 q 243 0 258 0 l 64 0 m 393 540 l 554 540 q 658 572 619 540 q 710 658 697 604 q 697 746 721 713 q 604 779 672 779 l 444 779 l 393 540 m 490 1042 q 471 1063 468 1042 q 482 1081 474 1074 l 638 1231 q 667 1252 656 1247 q 694 1257 678 1257 l 889 1257 q 906 1250 900 1257 q 910 1232 911 1243 q 899 1213 910 1221 l 682 1061 q 656 1047 668 1051 q 625 1042 644 1042 l 490 1042 z "},"Ř":{"ha":960,"x_min":33,"x_max":999,"o":"m 64 0 q 41 10 49 0 q 36 35 33 21 l 228 938 q 243 963 231 953 q 271 972 256 972 l 649 972 q 914 890 829 972 q 967 656 999 807 q 884 489 946 557 q 738 386 822 421 l 856 44 q 857 38 857 40 q 856 29 857 35 q 843 9 854 18 q 821 0 832 0 l 636 0 q 601 13 610 0 q 588 38 592 26 l 494 343 l 353 343 l 286 35 q 271 10 283 21 q 243 0 258 0 l 64 0 m 393 540 l 554 540 q 658 572 619 540 q 710 658 697 604 q 697 746 721 713 q 604 779 672 779 l 444 779 l 393 540 m 517 1042 q 494 1047 504 1042 q 474 1065 485 1051 l 361 1218 q 357 1238 354 1226 q 382 1257 361 1257 l 446 1257 q 469 1255 458 1257 q 489 1247 479 1253 l 594 1179 l 731 1247 q 753 1255 742 1253 q 775 1257 764 1257 l 863 1257 q 879 1238 882 1257 q 867 1219 878 1228 l 689 1065 q 660 1047 672 1051 q 635 1042 649 1042 l 517 1042 z "},"Ŗ":{"ha":960,"x_min":33,"x_max":999,"o":"m 64 0 q 41 10 49 0 q 36 35 33 21 l 228 938 q 243 963 231 953 q 271 972 256 972 l 649 972 q 914 890 829 972 q 967 656 999 807 q 884 489 946 557 q 738 386 822 421 l 856 44 q 857 38 857 40 q 856 29 857 35 q 843 9 854 18 q 821 0 832 0 l 636 0 q 601 13 610 0 q 588 38 592 26 l 494 343 l 353 343 l 286 35 q 271 10 283 21 q 243 0 258 0 l 64 0 m 393 540 l 554 540 q 658 572 619 540 q 710 658 697 604 q 697 746 721 713 q 604 779 672 779 l 444 779 l 393 540 m 214 -326 q 195 -317 201 -326 q 194 -294 189 -307 l 260 -117 q 282 -84 267 -99 q 321 -69 297 -69 l 475 -69 q 492 -77 486 -69 q 496 -93 497 -85 q 490 -112 496 -103 l 383 -287 q 361 -314 375 -301 q 325 -326 347 -326 l 214 -326 z "},"S":{"ha":919,"x_min":-3,"x_max":917,"o":"m 389 -14 q 163 25 251 -14 q 35 128 74 64 q 8 265 -3 193 q 20 285 11 276 q 42 294 29 294 l 219 294 q 247 288 239 294 q 264 269 256 281 q 286 229 269 249 q 333 198 303 210 q 407 186 363 186 q 536 211 488 186 q 593 279 585 236 q 583 331 601 311 q 517 366 564 350 q 393 399 471 382 q 226 460 292 421 q 135 562 161 500 q 128 710 110 624 q 265 912 156 838 q 551 986 375 986 q 710 961 640 986 q 828 894 781 936 q 896 806 875 853 q 910 715 917 760 q 899 695 908 704 q 876 686 889 686 l 690 686 q 666 692 676 686 q 649 710 656 697 q 617 763 649 740 q 532 786 585 786 q 432 765 472 786 q 382 699 392 743 q 390 650 375 671 q 445 614 404 629 q 560 582 486 599 q 750 519 681 558 q 844 419 819 479 q 850 274 868 360 q 703 59 821 132 q 389 -14 585 -14 z "},"Ś":{"ha":919,"x_min":-3,"x_max":917,"o":"m 389 -14 q 163 25 251 -14 q 35 128 74 64 q 8 265 -3 193 q 20 285 11 276 q 42 294 29 294 l 219 294 q 247 288 239 294 q 264 269 256 281 q 286 229 269 249 q 333 198 303 210 q 407 186 363 186 q 536 211 488 186 q 593 279 585 236 q 583 331 601 311 q 517 366 564 350 q 393 399 471 382 q 226 460 292 421 q 135 562 161 500 q 128 710 110 624 q 265 912 156 838 q 551 986 375 986 q 710 961 640 986 q 828 894 781 936 q 896 806 875 853 q 910 715 917 760 q 899 695 908 704 q 876 686 889 686 l 690 686 q 666 692 676 686 q 649 710 656 697 q 617 763 649 740 q 532 786 585 786 q 432 765 472 786 q 382 699 392 743 q 390 650 375 671 q 445 614 404 629 q 560 582 486 599 q 750 519 681 558 q 844 419 819 479 q 850 274 868 360 q 703 59 821 132 q 389 -14 585 -14 m 494 1042 q 475 1063 472 1042 q 486 1081 478 1074 l 642 1231 q 671 1252 660 1247 q 699 1257 682 1257 l 893 1257 q 910 1250 904 1257 q 914 1232 915 1243 q 903 1213 914 1221 l 686 1061 q 660 1047 672 1051 q 629 1042 649 1042 l 494 1042 z "},"Š":{"ha":919,"x_min":-3,"x_max":917,"o":"m 389 -14 q 163 25 251 -14 q 35 128 74 64 q 8 265 -3 193 q 20 285 11 276 q 42 294 29 294 l 219 294 q 247 288 239 294 q 264 269 256 281 q 286 229 269 249 q 333 198 303 210 q 407 186 363 186 q 536 211 488 186 q 593 279 585 236 q 583 331 601 311 q 517 366 564 350 q 393 399 471 382 q 226 460 292 421 q 135 562 161 500 q 128 710 110 624 q 265 912 156 838 q 551 986 375 986 q 710 961 640 986 q 828 894 781 936 q 896 806 875 853 q 910 715 917 760 q 899 695 908 704 q 876 686 889 686 l 690 686 q 666 692 676 686 q 649 710 656 697 q 617 763 649 740 q 532 786 585 786 q 432 765 472 786 q 382 699 392 743 q 390 650 375 671 q 445 614 404 629 q 560 582 486 599 q 750 519 681 558 q 844 419 819 479 q 850 274 868 360 q 703 59 821 132 q 389 -14 585 -14 m 521 1042 q 499 1047 508 1042 q 478 1065 489 1051 l 365 1218 q 361 1238 358 1226 q 386 1257 365 1257 l 450 1257 q 473 1255 463 1257 q 493 1247 483 1253 l 599 1179 l 735 1247 q 757 1255 746 1253 q 779 1257 768 1257 l 867 1257 q 883 1238 886 1257 q 871 1219 882 1228 l 693 1065 q 665 1047 676 1051 q 639 1042 653 1042 l 521 1042 z "},"Ş":{"ha":919,"x_min":-3,"x_max":918,"o":"m 324 -306 q 259 -293 286 -306 q 223 -264 232 -281 q 229 -235 214 -247 l 260 -212 q 282 -205 274 -201 q 303 -216 290 -208 q 342 -224 315 -224 q 378 -212 363 -224 q 397 -182 394 -200 q 392 -153 401 -165 q 360 -142 382 -142 q 328 -147 343 -142 q 301 -152 314 -151 q 281 -144 289 -153 l 260 -117 q 257 -99 254 -108 q 269 -72 260 -89 l 310 -11 q 122 40 192 -1 q 24 140 51 81 q 8 265 -3 199 q 22 285 11 276 q 46 294 33 294 l 221 294 q 249 288 240 294 q 264 269 257 281 q 286 229 269 249 q 333 198 303 210 q 413 186 364 186 q 540 211 493 186 q 594 279 586 236 q 583 331 601 311 q 519 366 565 350 q 394 399 472 382 q 226 456 293 421 q 133 549 160 492 q 125 693 107 607 q 206 844 144 778 q 361 949 267 911 q 572 986 456 986 q 736 961 668 986 q 845 894 804 936 q 902 806 886 853 q 911 715 918 760 q 899 695 910 704 q 875 686 888 686 l 692 686 q 667 692 676 686 q 650 710 657 697 q 619 763 650 740 q 531 786 588 786 q 431 765 469 786 q 383 699 392 743 q 391 650 376 671 q 447 614 406 629 q 560 582 488 599 q 751 523 681 558 q 847 431 822 488 q 853 290 871 375 q 768 133 833 200 q 606 28 703 65 q 393 -12 510 -8 l 354 -69 q 378 -63 363 -65 q 401 -61 393 -61 q 475 -94 453 -61 q 486 -182 497 -128 q 431 -270 475 -235 q 324 -306 388 -306 z "},"Ŝ":{"ha":919,"x_min":-3,"x_max":917,"o":"m 389 -14 q 163 25 251 -14 q 35 128 74 64 q 8 265 -3 193 q 20 285 11 276 q 42 294 29 294 l 219 294 q 247 288 239 294 q 264 269 256 281 q 286 229 269 249 q 333 198 303 210 q 407 186 363 186 q 536 211 488 186 q 593 279 585 236 q 583 331 601 311 q 517 366 564 350 q 393 399 471 382 q 226 460 292 421 q 135 562 161 500 q 128 710 110 624 q 265 912 156 838 q 551 986 375 986 q 710 961 640 986 q 828 894 781 936 q 896 806 875 853 q 910 715 917 760 q 899 695 908 704 q 876 686 889 686 l 690 686 q 666 692 676 686 q 649 710 656 697 q 617 763 649 740 q 532 786 585 786 q 432 765 472 786 q 382 699 392 743 q 390 650 375 671 q 445 614 404 629 q 560 582 486 599 q 750 519 681 558 q 844 419 819 479 q 850 274 868 360 q 703 59 821 132 q 389 -14 585 -14 m 331 1042 q 314 1061 311 1042 q 325 1081 315 1072 l 504 1233 q 533 1253 521 1249 q 557 1257 544 1257 l 675 1257 q 699 1253 689 1257 q 719 1233 710 1249 l 832 1081 q 836 1061 839 1072 q 811 1042 832 1042 l 746 1042 q 724 1044 735 1042 q 704 1051 714 1046 l 597 1119 l 463 1051 q 440 1044 450 1046 q 417 1042 429 1042 l 331 1042 z "},"Ș":{"ha":919,"x_min":-3,"x_max":917,"o":"m 389 -14 q 163 25 251 -14 q 35 128 74 64 q 8 265 -3 193 q 20 285 11 276 q 42 294 29 294 l 219 294 q 247 288 239 294 q 264 269 256 281 q 286 229 269 249 q 333 198 303 210 q 407 186 363 186 q 536 211 488 186 q 593 279 585 236 q 583 331 601 311 q 517 366 564 350 q 393 399 471 382 q 226 460 292 421 q 135 562 161 500 q 128 710 110 624 q 265 912 156 838 q 551 986 375 986 q 710 961 640 986 q 828 894 781 936 q 896 806 875 853 q 910 715 917 760 q 899 695 908 704 q 876 686 889 686 l 690 686 q 666 692 676 686 q 649 710 656 697 q 617 763 649 740 q 532 786 585 786 q 432 765 472 786 q 382 699 392 743 q 390 650 375 671 q 445 614 404 629 q 560 582 486 599 q 750 519 681 558 q 844 419 819 479 q 850 274 868 360 q 703 59 821 132 q 389 -14 585 -14 m 189 -326 q 170 -317 176 -326 q 169 -294 164 -307 l 235 -117 q 257 -84 242 -99 q 296 -69 272 -69 l 450 -69 q 467 -77 461 -69 q 471 -93 472 -85 q 465 -112 471 -103 l 358 -287 q 336 -314 350 -301 q 300 -326 322 -326 l 189 -326 z "},"T":{"ha":871,"x_min":104,"x_max":958,"o":"m 257 0 q 233 10 242 0 q 228 35 225 21 l 382 754 l 135 754 q 113 765 121 754 q 107 789 104 775 l 139 938 q 153 963 142 953 q 181 972 165 972 l 928 972 q 951 963 943 972 q 956 938 958 953 l 924 789 q 909 765 921 775 q 882 754 897 754 l 636 754 l 482 35 q 467 10 479 21 q 440 0 456 0 l 257 0 z "},"Ŧ":{"ha":885,"x_min":110,"x_max":964,"o":"m 263 0 q 240 10 247 0 q 235 35 232 21 l 313 407 l 174 407 q 151 417 158 407 q 146 442 143 426 l 161 511 q 176 536 164 526 q 204 546 189 546 l 343 546 l 388 754 l 140 754 q 118 765 126 754 q 113 789 110 775 l 144 938 q 159 963 147 953 q 186 972 171 972 l 933 972 q 956 963 949 972 q 961 938 964 953 l 929 789 q 915 765 926 775 q 888 754 903 754 l 642 754 l 597 546 l 736 546 q 759 536 751 546 q 764 511 767 526 l 749 442 q 733 417 746 426 q 706 407 721 407 l 567 407 l 488 35 q 473 10 485 21 q 446 0 461 0 l 263 0 z "},"Ť":{"ha":871,"x_min":104,"x_max":958,"o":"m 257 0 q 233 10 242 0 q 228 35 225 21 l 382 754 l 135 754 q 113 765 121 754 q 107 789 104 775 l 139 938 q 153 963 142 953 q 181 972 165 972 l 928 972 q 951 963 943 972 q 956 938 958 953 l 924 789 q 909 765 921 775 q 882 754 897 754 l 636 754 l 482 35 q 467 10 479 21 q 440 0 456 0 l 257 0 m 514 1042 q 492 1047 501 1042 q 471 1065 482 1051 l 358 1218 q 354 1238 351 1226 q 379 1257 358 1257 l 443 1257 q 466 1255 456 1257 q 486 1247 476 1253 l 592 1179 l 728 1247 q 750 1255 739 1253 q 772 1257 761 1257 l 860 1257 q 876 1238 879 1257 q 864 1219 875 1228 l 686 1065 q 658 1047 669 1051 q 632 1042 646 1042 l 514 1042 z "},"Ț":{"ha":871,"x_min":104,"x_max":958,"o":"m 257 0 q 233 10 242 0 q 228 35 225 21 l 382 754 l 135 754 q 113 765 121 754 q 107 789 104 775 l 139 938 q 153 963 142 953 q 181 972 165 972 l 928 972 q 951 963 943 972 q 956 938 958 953 l 924 789 q 909 765 921 775 q 882 754 897 754 l 636 754 l 482 35 q 467 10 479 21 q 440 0 456 0 l 257 0 m 160 -326 q 141 -317 147 -326 q 140 -294 135 -307 l 206 -117 q 228 -84 213 -99 q 267 -69 243 -69 l 421 -69 q 438 -77 432 -69 q 442 -93 443 -85 q 436 -112 442 -103 l 329 -287 q 307 -314 321 -301 q 271 -326 293 -326 l 160 -326 z "},"U":{"ha":1007,"x_min":58,"x_max":1033,"o":"m 433 -14 q 270 9 344 -14 q 145 79 196 32 q 76 199 94 126 q 79 371 58 271 l 199 938 q 214 963 201 953 q 242 972 226 972 l 421 972 q 444 963 436 972 q 449 938 451 953 l 328 372 q 338 237 308 282 q 451 192 367 192 q 588 237 535 192 q 660 372 640 282 l 781 938 q 796 963 783 953 q 822 972 808 972 l 1001 972 q 1025 963 1017 972 q 1031 938 1033 953 l 910 371 q 753 79 868 172 q 433 -14 638 -14 z "},"Ú":{"ha":1007,"x_min":58,"x_max":1033,"o":"m 433 -14 q 270 9 344 -14 q 145 79 196 32 q 76 199 94 126 q 79 371 58 271 l 199 938 q 214 963 201 953 q 242 972 226 972 l 421 972 q 444 963 436 972 q 449 938 451 953 l 328 372 q 338 237 308 282 q 451 192 367 192 q 588 237 535 192 q 660 372 640 282 l 781 938 q 796 963 783 953 q 822 972 808 972 l 1001 972 q 1025 963 1017 972 q 1031 938 1033 953 l 910 371 q 753 79 868 172 q 433 -14 638 -14 m 538 1042 q 518 1063 515 1042 q 529 1081 521 1074 l 685 1231 q 714 1252 703 1247 q 742 1257 725 1257 l 936 1257 q 953 1250 947 1257 q 957 1232 958 1243 q 946 1213 957 1221 l 729 1061 q 703 1047 715 1051 q 672 1042 692 1042 l 538 1042 z "},"Ŭ":{"ha":1007,"x_min":58,"x_max":1033,"o":"m 433 -14 q 270 9 344 -14 q 145 79 196 32 q 76 199 94 126 q 79 371 58 271 l 199 938 q 214 963 201 953 q 242 972 226 972 l 421 972 q 444 963 436 972 q 449 938 451 953 l 328 372 q 338 237 308 282 q 451 192 367 192 q 588 237 535 192 q 660 372 640 282 l 781 938 q 796 963 783 953 q 822 972 808 972 l 1001 972 q 1025 963 1017 972 q 1031 938 1033 953 l 910 371 q 753 79 868 172 q 433 -14 638 -14 m 632 1032 q 517 1059 563 1032 q 454 1131 472 1086 q 447 1228 436 1175 q 458 1247 450 1239 q 479 1254 467 1254 l 574 1254 q 592 1247 586 1254 q 594 1228 597 1239 q 597 1171 589 1196 q 643 1146 604 1146 q 701 1171 682 1146 q 728 1228 721 1196 q 739 1247 731 1239 q 760 1254 747 1254 l 854 1254 q 872 1247 867 1254 q 875 1228 878 1239 q 837 1131 864 1175 q 760 1059 810 1086 q 632 1032 711 1032 z "},"Û":{"ha":1007,"x_min":58,"x_max":1033,"o":"m 433 -14 q 270 9 344 -14 q 145 79 196 32 q 76 199 94 126 q 79 371 58 271 l 199 938 q 214 963 201 953 q 242 972 226 972 l 421 972 q 444 963 436 972 q 449 938 451 953 l 328 372 q 338 237 308 282 q 451 192 367 192 q 588 237 535 192 q 660 372 640 282 l 781 938 q 796 963 783 953 q 822 972 808 972 l 1001 972 q 1025 963 1017 972 q 1031 938 1033 953 l 910 371 q 753 79 868 172 q 433 -14 638 -14 m 374 1042 q 357 1061 354 1042 q 368 1081 358 1072 l 547 1233 q 576 1253 564 1249 q 600 1257 588 1257 l 718 1257 q 742 1253 732 1257 q 763 1233 753 1249 l 875 1081 q 879 1061 882 1072 q 854 1042 875 1042 l 789 1042 q 767 1044 778 1042 q 747 1051 757 1046 l 640 1119 l 506 1051 q 483 1044 493 1046 q 460 1042 472 1042 l 374 1042 z "},"Ü":{"ha":1007,"x_min":58,"x_max":1033,"o":"m 433 -14 q 270 9 344 -14 q 145 79 196 32 q 76 199 94 126 q 79 371 58 271 l 199 938 q 214 963 201 953 q 242 972 226 972 l 421 972 q 444 963 436 972 q 449 938 451 953 l 328 372 q 338 237 308 282 q 451 192 367 192 q 588 237 535 192 q 660 372 640 282 l 781 938 q 796 963 783 953 q 822 972 808 972 l 1001 972 q 1025 963 1017 972 q 1031 938 1033 953 l 910 371 q 753 79 868 172 q 433 -14 638 -14 m 725 1042 q 705 1050 711 1042 q 701 1074 699 1058 l 728 1200 q 741 1223 731 1214 q 767 1232 751 1232 l 893 1232 q 914 1223 907 1232 q 918 1200 921 1214 l 892 1074 q 878 1050 889 1058 q 853 1042 867 1042 l 725 1042 m 397 1042 q 376 1050 383 1042 q 372 1074 369 1058 l 399 1200 q 413 1223 401 1214 q 438 1232 424 1232 l 565 1232 q 586 1223 579 1232 q 590 1200 593 1214 l 563 1074 q 549 1050 560 1058 q 524 1042 538 1042 l 397 1042 z "},"Ù":{"ha":1007,"x_min":58,"x_max":1033,"o":"m 433 -14 q 270 9 344 -14 q 145 79 196 32 q 76 199 94 126 q 79 371 58 271 l 199 938 q 214 963 201 953 q 242 972 226 972 l 421 972 q 444 963 436 972 q 449 938 451 953 l 328 372 q 338 237 308 282 q 451 192 367 192 q 588 237 535 192 q 660 372 640 282 l 781 938 q 796 963 783 953 q 822 972 808 972 l 1001 972 q 1025 963 1017 972 q 1031 938 1033 953 l 910 371 q 753 79 868 172 q 433 -14 638 -14 m 574 1042 q 544 1047 554 1042 q 525 1061 535 1051 l 374 1211 q 369 1231 367 1218 q 401 1257 374 1257 l 588 1257 q 613 1252 604 1257 q 633 1231 622 1247 l 724 1082 q 726 1064 729 1074 q 700 1042 722 1042 l 574 1042 z "},"Ű":{"ha":1007,"x_min":58,"x_max":1036,"o":"m 433 -14 q 270 9 344 -14 q 145 79 196 32 q 76 199 94 126 q 79 371 58 271 l 199 938 q 214 963 201 953 q 242 972 226 972 l 421 972 q 444 963 436 972 q 449 938 451 953 l 328 372 q 338 237 308 282 q 451 192 367 192 q 588 237 535 192 q 660 372 640 282 l 781 938 q 796 963 783 953 q 822 972 808 972 l 1001 972 q 1025 963 1017 972 q 1031 938 1033 953 l 910 371 q 753 79 868 172 q 433 -14 638 -14 m 704 1042 q 685 1061 682 1042 q 690 1072 686 1067 q 696 1081 693 1076 l 794 1231 q 817 1251 804 1244 q 851 1257 829 1257 l 1008 1257 q 1031 1233 1035 1257 q 1019 1214 1029 1222 l 850 1061 q 801 1042 828 1042 l 704 1042 m 414 1042 q 396 1061 393 1042 q 399 1072 396 1067 q 406 1081 403 1076 l 504 1231 q 526 1251 514 1244 q 561 1257 539 1257 l 718 1257 q 740 1233 746 1257 q 729 1214 740 1222 l 561 1061 q 511 1042 539 1042 l 414 1042 z "},"Ū":{"ha":1007,"x_min":58,"x_max":1033,"o":"m 433 -14 q 270 9 344 -14 q 145 79 196 32 q 76 199 94 126 q 79 371 58 271 l 199 938 q 214 963 201 953 q 242 972 226 972 l 421 972 q 444 963 436 972 q 449 938 451 953 l 328 372 q 338 237 308 282 q 451 192 367 192 q 588 237 535 192 q 660 372 640 282 l 781 938 q 796 963 783 953 q 822 972 808 972 l 1001 972 q 1025 963 1017 972 q 1031 938 1033 953 l 910 371 q 753 79 868 172 q 433 -14 638 -14 m 408 1042 q 388 1051 394 1042 q 385 1074 382 1060 l 406 1175 q 419 1198 408 1189 q 444 1207 431 1207 l 875 1207 q 895 1198 889 1207 q 899 1175 901 1189 l 878 1074 q 865 1051 876 1060 q 840 1042 854 1042 l 408 1042 z "},"Ų":{"ha":1007,"x_min":56,"x_max":1033,"o":"m 472 -306 q 356 -274 403 -306 q 291 -191 308 -243 q 285 -76 274 -139 q 296 -36 289 -54 q 313 -3 303 -18 q 164 61 225 15 q 79 184 103 107 q 79 371 56 261 l 199 938 q 214 963 201 953 q 242 972 226 972 l 421 972 q 444 963 436 972 q 449 938 451 953 l 328 372 q 338 237 310 282 q 451 192 367 192 q 588 237 535 192 q 660 372 640 282 l 781 938 q 796 963 783 953 q 822 972 808 972 l 1001 972 q 1025 963 1017 972 q 1031 938 1033 953 l 910 371 q 833 167 886 247 q 701 43 781 86 q 518 -10 622 0 q 456 -33 479 -12 q 426 -85 433 -53 q 435 -144 419 -119 q 490 -169 451 -169 l 508 -169 q 530 -180 522 -169 q 535 -204 538 -190 l 519 -274 q 506 -297 517 -287 q 479 -306 494 -306 l 472 -306 z "},"Ů":{"ha":1007,"x_min":58,"x_max":1033,"o":"m 433 -14 q 270 9 344 -14 q 145 79 196 32 q 76 199 94 126 q 79 371 58 271 l 199 938 q 214 963 201 953 q 242 972 226 972 l 421 972 q 444 963 436 972 q 449 938 451 953 l 328 372 q 338 237 308 282 q 451 192 367 192 q 588 237 535 192 q 660 372 640 282 l 781 938 q 796 963 783 953 q 822 972 808 972 l 1001 972 q 1025 963 1017 972 q 1031 938 1033 953 l 910 371 q 753 79 868 172 q 433 -14 638 -14 m 621 1028 q 537 1063 568 1028 q 517 1150 506 1097 q 573 1237 529 1203 q 669 1271 617 1271 q 754 1237 722 1271 q 774 1150 786 1203 q 718 1062 763 1096 q 621 1028 674 1028 m 635 1108 q 669 1120 654 1108 q 688 1150 683 1132 q 683 1180 692 1168 q 656 1192 674 1192 q 622 1180 636 1192 q 604 1150 608 1168 q 609 1120 600 1132 q 635 1108 618 1108 z "},"Ũ":{"ha":1007,"x_min":58,"x_max":1033,"o":"m 433 -14 q 270 9 344 -14 q 145 79 196 32 q 76 199 94 126 q 79 371 58 271 l 199 938 q 214 963 201 953 q 242 972 226 972 l 421 972 q 444 963 436 972 q 449 938 451 953 l 328 372 q 338 237 308 282 q 451 192 367 192 q 588 237 535 192 q 660 372 640 282 l 781 938 q 796 963 783 953 q 822 972 808 972 l 1001 972 q 1025 963 1017 972 q 1031 938 1033 953 l 910 371 q 753 79 868 172 q 433 -14 638 -14 m 726 1035 q 663 1047 688 1035 q 619 1072 639 1060 q 575 1083 600 1083 q 542 1074 553 1083 q 522 1053 531 1064 q 497 1042 513 1042 l 414 1042 q 399 1049 404 1042 q 394 1065 393 1057 q 412 1118 399 1088 q 447 1177 425 1149 q 501 1224 468 1206 q 578 1243 533 1243 q 640 1231 615 1243 q 685 1206 665 1218 q 728 1193 704 1193 q 761 1204 750 1193 q 781 1226 772 1215 q 806 1236 790 1236 l 889 1236 q 906 1228 901 1236 q 908 1211 911 1221 q 891 1159 904 1189 q 856 1101 878 1129 q 801 1053 833 1072 q 726 1035 769 1035 z "},"V":{"ha":963,"x_min":142,"x_max":1047,"o":"m 286 0 q 251 13 263 0 q 238 42 239 25 l 143 935 q 151 963 142 953 q 176 972 161 972 l 343 972 q 375 960 365 972 q 386 936 385 949 l 446 294 l 779 936 q 799 960 785 949 q 835 972 813 972 l 1021 972 q 1042 959 1038 972 q 1040 931 1047 946 l 568 42 q 544 13 560 25 q 503 0 528 0 l 286 0 z "},"W":{"ha":1146,"x_min":121,"x_max":1217,"o":"m 167 0 q 132 14 143 0 q 121 46 121 28 l 150 940 q 161 963 151 953 q 185 972 171 972 l 353 972 q 381 964 372 972 q 389 939 390 956 l 367 406 l 532 719 q 551 744 539 731 q 586 757 564 757 l 685 757 q 715 744 708 757 q 724 719 722 731 l 758 401 l 964 942 q 1013 972 975 972 l 1190 972 q 1211 961 1206 972 q 1211 938 1217 950 l 882 46 q 858 14 875 28 q 817 0 840 0 l 682 0 q 649 13 658 0 q 638 36 640 25 l 569 433 l 358 36 q 338 13 353 25 q 300 0 324 0 l 167 0 z "},"Ẃ":{"ha":1146,"x_min":121,"x_max":1217,"o":"m 167 0 q 132 14 143 0 q 121 46 121 28 l 150 940 q 161 963 151 953 q 185 972 171 972 l 353 972 q 381 964 372 972 q 389 939 390 956 l 367 406 l 532 719 q 551 744 539 731 q 586 757 564 757 l 685 757 q 715 744 708 757 q 724 719 722 731 l 758 401 l 964 942 q 1013 972 975 972 l 1190 972 q 1211 961 1206 972 q 1211 938 1217 950 l 882 46 q 858 14 875 28 q 817 0 840 0 l 682 0 q 649 13 658 0 q 638 36 640 25 l 569 433 l 358 36 q 338 13 353 25 q 300 0 324 0 l 167 0 m 603 1042 q 583 1063 581 1042 q 594 1081 586 1074 l 750 1231 q 779 1252 768 1247 q 807 1257 790 1257 l 1001 1257 q 1018 1250 1013 1257 q 1022 1232 1024 1243 q 1011 1213 1022 1221 l 794 1061 q 769 1047 781 1051 q 738 1042 757 1042 l 603 1042 z "},"Ŵ":{"ha":1146,"x_min":121,"x_max":1217,"o":"m 167 0 q 132 14 143 0 q 121 46 121 28 l 150 940 q 161 963 151 953 q 185 972 171 972 l 353 972 q 381 964 372 972 q 389 939 390 956 l 367 406 l 532 719 q 551 744 539 731 q 586 757 564 757 l 685 757 q 715 744 708 757 q 724 719 722 731 l 758 401 l 964 942 q 1013 972 975 972 l 1190 972 q 1211 961 1206 972 q 1211 938 1217 950 l 882 46 q 858 14 875 28 q 817 0 840 0 l 682 0 q 649 13 658 0 q 638 36 640 25 l 569 433 l 358 36 q 338 13 353 25 q 300 0 324 0 l 167 0 m 439 1042 q 422 1061 419 1042 q 433 1081 424 1072 l 613 1233 q 641 1253 629 1249 q 665 1257 653 1257 l 783 1257 q 808 1253 797 1257 q 828 1233 818 1249 l 940 1081 q 944 1061 947 1072 q 919 1042 940 1042 l 854 1042 q 833 1044 843 1042 q 813 1051 822 1046 l 706 1119 l 571 1051 q 548 1044 558 1046 q 525 1042 538 1042 l 439 1042 z "},"Ẅ":{"ha":1146,"x_min":121,"x_max":1217,"o":"m 167 0 q 132 14 143 0 q 121 46 121 28 l 150 940 q 161 963 151 953 q 185 972 171 972 l 353 972 q 381 964 372 972 q 389 939 390 956 l 367 406 l 532 719 q 551 744 539 731 q 586 757 564 757 l 685 757 q 715 744 708 757 q 724 719 722 731 l 758 401 l 964 942 q 1013 972 975 972 l 1190 972 q 1211 961 1206 972 q 1211 938 1217 950 l 882 46 q 858 14 875 28 q 817 0 840 0 l 682 0 q 649 13 658 0 q 638 36 640 25 l 569 433 l 358 36 q 338 13 353 25 q 300 0 324 0 l 167 0 m 790 1042 q 770 1050 776 1042 q 767 1074 764 1058 l 793 1200 q 806 1223 796 1214 q 832 1232 817 1232 l 958 1232 q 979 1223 972 1232 q 983 1200 986 1214 l 957 1074 q 943 1050 954 1058 q 918 1042 932 1042 l 790 1042 m 463 1042 q 442 1050 449 1042 q 438 1074 435 1058 l 464 1200 q 478 1223 467 1214 q 503 1232 489 1232 l 631 1232 q 651 1223 644 1232 q 656 1200 658 1214 l 628 1074 q 614 1050 625 1058 q 589 1042 603 1042 l 463 1042 z "},"Ẁ":{"ha":1146,"x_min":121,"x_max":1217,"o":"m 167 0 q 132 14 143 0 q 121 46 121 28 l 150 940 q 161 963 151 953 q 185 972 171 972 l 353 972 q 381 964 372 972 q 389 939 390 956 l 367 406 l 532 719 q 551 744 539 731 q 586 757 564 757 l 685 757 q 715 744 708 757 q 724 719 722 731 l 758 401 l 964 942 q 1013 972 975 972 l 1190 972 q 1211 961 1206 972 q 1211 938 1217 950 l 882 46 q 858 14 875 28 q 817 0 840 0 l 682 0 q 649 13 658 0 q 638 36 640 25 l 569 433 l 358 36 q 338 13 353 25 q 300 0 324 0 l 167 0 m 639 1042 q 610 1047 619 1042 q 590 1061 600 1051 l 439 1211 q 435 1231 432 1218 q 467 1257 439 1257 l 653 1257 q 678 1252 669 1257 q 699 1231 688 1247 l 789 1082 q 792 1064 794 1074 q 765 1042 788 1042 l 639 1042 z "},"X":{"ha":958,"x_min":-69,"x_max":1050,"o":"m -39 0 q -63 16 -57 0 q -57 46 -69 32 l 360 501 l 146 928 q 149 958 139 943 q 178 972 158 972 l 357 972 q 392 961 383 972 q 404 943 401 950 l 535 682 l 764 943 q 784 961 771 950 q 822 972 797 972 l 1019 972 q 1044 956 1038 972 q 1038 926 1050 940 l 642 468 l 854 44 q 852 15 861 29 q 822 0 843 0 l 644 0 q 610 11 619 0 q 597 28 600 22 l 468 282 l 233 28 q 216 11 229 22 q 176 0 203 0 l -39 0 z "},"Y":{"ha":943,"x_min":128,"x_max":1039,"o":"m 294 0 q 272 10 279 0 q 267 35 264 21 l 329 333 l 133 928 q 139 958 128 944 q 168 972 150 972 l 332 972 q 362 962 353 972 q 374 943 371 951 l 496 586 l 769 943 q 789 962 775 951 q 824 972 803 972 l 1011 972 q 1036 957 1033 972 q 1029 928 1039 942 l 579 333 l 515 35 q 501 10 513 21 q 474 0 489 0 l 294 0 z "},"Ý":{"ha":943,"x_min":128,"x_max":1039,"o":"m 294 0 q 272 10 279 0 q 267 35 264 21 l 329 333 l 133 928 q 139 958 128 944 q 168 972 150 972 l 332 972 q 362 962 353 972 q 374 943 371 951 l 496 586 l 769 943 q 789 962 775 951 q 824 972 803 972 l 1011 972 q 1036 957 1033 972 q 1029 928 1039 942 l 579 333 l 515 35 q 501 10 513 21 q 474 0 489 0 l 294 0 m 492 1042 q 472 1063 469 1042 q 483 1081 475 1074 l 639 1231 q 668 1252 657 1247 q 696 1257 679 1257 l 890 1257 q 907 1250 901 1257 q 911 1232 913 1243 q 900 1213 911 1221 l 683 1061 q 658 1047 669 1051 q 626 1042 646 1042 l 492 1042 z "},"Ŷ":{"ha":943,"x_min":128,"x_max":1039,"o":"m 294 0 q 272 10 279 0 q 267 35 264 21 l 329 333 l 133 928 q 139 958 128 944 q 168 972 150 972 l 332 972 q 362 962 353 972 q 374 943 371 951 l 496 586 l 769 943 q 789 962 775 951 q 824 972 803 972 l 1011 972 q 1036 957 1033 972 q 1029 928 1039 942 l 579 333 l 515 35 q 501 10 513 21 q 474 0 489 0 l 294 0 m 328 1042 q 311 1061 308 1042 q 322 1081 313 1072 l 501 1233 q 530 1253 518 1249 q 554 1257 542 1257 l 672 1257 q 697 1253 686 1257 q 717 1233 707 1249 l 829 1081 q 833 1061 836 1072 q 808 1042 829 1042 l 743 1042 q 722 1044 732 1042 q 701 1051 711 1046 l 594 1119 l 460 1051 q 437 1044 447 1046 q 414 1042 426 1042 l 328 1042 z "},"Ÿ":{"ha":943,"x_min":128,"x_max":1039,"o":"m 294 0 q 272 10 279 0 q 267 35 264 21 l 329 333 l 133 928 q 139 958 128 944 q 168 972 150 972 l 332 972 q 362 962 353 972 q 374 943 371 951 l 496 586 l 769 943 q 789 962 775 951 q 824 972 803 972 l 1011 972 q 1036 957 1033 972 q 1029 928 1039 942 l 579 333 l 515 35 q 501 10 513 21 q 474 0 489 0 l 294 0 m 678 1042 q 658 1050 664 1042 q 654 1074 651 1058 l 681 1200 q 694 1223 683 1214 q 719 1232 704 1232 l 846 1232 q 867 1223 860 1232 q 871 1200 874 1214 l 844 1074 q 831 1050 842 1058 q 806 1042 819 1042 l 678 1042 m 350 1042 q 329 1050 336 1042 q 325 1074 322 1058 l 351 1200 q 365 1223 354 1214 q 390 1232 376 1232 l 518 1232 q 539 1223 532 1232 q 543 1200 546 1214 l 515 1074 q 501 1050 513 1058 q 476 1042 490 1042 l 350 1042 z "},"Ỳ":{"ha":943,"x_min":128,"x_max":1039,"o":"m 294 0 q 272 10 279 0 q 267 35 264 21 l 329 333 l 133 928 q 139 958 128 944 q 168 972 150 972 l 332 972 q 362 962 353 972 q 374 943 371 951 l 496 586 l 769 943 q 789 962 775 951 q 824 972 803 972 l 1011 972 q 1036 957 1033 972 q 1029 928 1039 942 l 579 333 l 515 35 q 501 10 513 21 q 474 0 489 0 l 294 0 m 526 1042 q 497 1047 507 1042 q 478 1061 488 1051 l 326 1211 q 322 1231 319 1218 q 354 1257 326 1257 l 540 1257 q 566 1252 557 1257 q 586 1231 575 1247 l 676 1082 q 679 1064 682 1074 q 653 1042 675 1042 l 526 1042 z "},"Z":{"ha":900,"x_min":-32,"x_max":950,"o":"m -1 0 q -24 10 -15 0 q -29 36 -32 21 l 0 171 q 15 203 6 190 q 31 221 25 215 l 582 765 l 175 765 q 152 775 160 765 q 147 800 144 785 l 176 938 q 191 963 179 953 q 218 972 203 972 l 918 972 q 942 963 933 972 q 947 938 950 953 l 918 803 q 907 776 915 788 q 889 756 899 765 l 350 210 l 772 210 q 796 199 788 210 q 800 174 804 189 l 771 35 q 756 10 768 21 q 729 0 744 0 l -1 0 z "},"Ź":{"ha":900,"x_min":-32,"x_max":950,"o":"m -1 0 q -24 10 -15 0 q -29 36 -32 21 l 0 171 q 15 203 6 190 q 31 221 25 215 l 582 765 l 175 765 q 152 775 160 765 q 147 800 144 785 l 176 938 q 191 963 179 953 q 218 972 203 972 l 918 972 q 942 963 933 972 q 947 938 950 953 l 918 803 q 907 776 915 788 q 889 756 899 765 l 350 210 l 772 210 q 796 199 788 210 q 800 174 804 189 l 771 35 q 756 10 768 21 q 729 0 744 0 l -1 0 m 500 1042 q 481 1063 478 1042 q 492 1081 483 1074 l 647 1231 q 676 1252 665 1247 q 704 1257 688 1257 l 899 1257 q 915 1250 910 1257 q 919 1232 921 1243 q 908 1213 919 1221 l 692 1061 q 666 1047 678 1051 q 635 1042 654 1042 l 500 1042 z "},"Ž":{"ha":900,"x_min":-32,"x_max":950,"o":"m -1 0 q -24 10 -15 0 q -29 36 -32 21 l 0 171 q 15 203 6 190 q 31 221 25 215 l 582 765 l 175 765 q 152 775 160 765 q 147 800 144 785 l 176 938 q 191 963 179 953 q 218 972 203 972 l 918 972 q 942 963 933 972 q 947 938 950 953 l 918 803 q 907 776 915 788 q 889 756 899 765 l 350 210 l 772 210 q 796 199 788 210 q 800 174 804 189 l 771 35 q 756 10 768 21 q 729 0 744 0 l -1 0 m 526 1042 q 504 1047 514 1042 q 483 1065 494 1051 l 371 1218 q 367 1238 364 1226 q 392 1257 371 1257 l 456 1257 q 478 1255 468 1257 q 499 1247 489 1253 l 604 1179 l 740 1247 q 763 1255 751 1253 q 785 1257 774 1257 l 872 1257 q 889 1238 892 1257 q 876 1219 888 1228 l 699 1065 q 670 1047 682 1051 q 644 1042 658 1042 l 526 1042 z "},"Ż":{"ha":900,"x_min":-32,"x_max":950,"o":"m -1 0 q -24 10 -15 0 q -29 36 -32 21 l 0 171 q 15 203 6 190 q 31 221 25 215 l 582 765 l 175 765 q 152 775 160 765 q 147 800 144 785 l 176 938 q 191 963 179 953 q 218 972 203 972 l 918 972 q 942 963 933 972 q 947 938 950 953 l 918 803 q 907 776 915 788 q 889 756 899 765 l 350 210 l 772 210 q 796 199 788 210 q 800 174 804 189 l 771 35 q 756 10 768 21 q 729 0 744 0 l -1 0 m 515 1042 q 494 1050 501 1042 q 490 1074 488 1058 l 521 1217 q 534 1240 524 1231 q 560 1249 544 1249 l 703 1249 q 724 1240 717 1249 q 728 1217 731 1231 l 697 1074 q 683 1050 694 1058 q 658 1042 672 1042 l 515 1042 z "},"a":{"ha":869,"x_min":22,"x_max":849,"o":"m 271 -14 q 153 8 204 -14 q 72 72 103 29 q 32 174 42 114 q 35 313 22 235 q 44 362 40 340 q 56 411 49 383 q 106 544 74 485 q 182 647 138 604 q 285 713 226 690 q 415 736 344 736 q 544 712 500 736 q 614 651 588 688 l 621 688 q 635 713 624 703 q 663 722 647 722 l 818 722 q 841 713 833 722 q 846 688 849 703 l 708 35 q 694 10 706 21 q 667 0 682 0 l 510 0 q 488 10 496 0 q 482 35 479 21 l 492 79 q 399 13 449 39 q 271 -14 350 -14 m 368 172 q 446 192 414 172 q 499 244 478 213 q 528 314 519 276 q 541 367 536 342 q 550 418 546 392 q 551 483 557 453 q 522 531 544 513 q 456 550 499 550 q 381 531 411 550 q 331 478 350 511 q 300 404 313 444 q 289 361 294 383 q 281 318 283 339 q 279 244 276 278 q 303 192 282 211 q 368 172 324 172 z "},"á":{"ha":869,"x_min":22,"x_max":849,"o":"m 271 -14 q 153 8 204 -14 q 72 72 103 29 q 32 174 42 114 q 35 313 22 235 q 44 362 40 340 q 56 411 49 383 q 106 544 74 485 q 182 647 138 604 q 285 713 226 690 q 415 736 344 736 q 544 712 500 736 q 614 651 588 688 l 621 688 q 635 713 624 703 q 663 722 647 722 l 818 722 q 841 713 833 722 q 846 688 849 703 l 708 35 q 694 10 706 21 q 667 0 682 0 l 510 0 q 488 10 496 0 q 482 35 479 21 l 492 79 q 399 13 449 39 q 271 -14 350 -14 m 368 172 q 446 192 414 172 q 499 244 478 213 q 528 314 519 276 q 541 367 536 342 q 550 418 546 392 q 551 483 557 453 q 522 531 544 513 q 456 550 499 550 q 381 531 411 550 q 331 478 350 511 q 300 404 313 444 q 289 361 294 383 q 281 318 283 339 q 279 244 276 278 q 303 192 282 211 q 368 172 324 172 m 431 826 q 413 849 408 826 q 424 867 415 860 l 578 1015 q 607 1037 596 1032 q 635 1042 618 1042 l 818 1042 q 839 1017 842 1042 q 828 997 838 1004 l 613 846 q 586 831 599 836 q 554 826 574 826 l 431 826 z "},"ă":{"ha":869,"x_min":22,"x_max":849,"o":"m 271 -14 q 153 8 204 -14 q 72 72 103 29 q 32 174 42 114 q 35 313 22 235 q 44 362 40 340 q 56 411 49 383 q 106 544 74 485 q 182 647 138 604 q 285 713 226 690 q 415 736 344 736 q 544 712 500 736 q 614 651 588 688 l 621 688 q 635 713 624 703 q 663 722 647 722 l 818 722 q 841 713 833 722 q 846 688 849 703 l 708 35 q 694 10 706 21 q 667 0 682 0 l 510 0 q 488 10 496 0 q 482 35 479 21 l 492 79 q 399 13 449 39 q 271 -14 350 -14 m 368 172 q 446 192 414 172 q 499 244 478 213 q 528 314 519 276 q 541 367 536 342 q 550 418 546 392 q 551 483 557 453 q 522 531 544 513 q 456 550 499 550 q 381 531 411 550 q 331 478 350 511 q 300 404 313 444 q 289 361 294 383 q 281 318 283 339 q 279 244 276 278 q 303 192 282 211 q 368 172 324 172 m 526 819 q 417 846 461 819 q 356 917 374 872 q 349 1015 338 961 q 360 1034 351 1026 q 381 1042 368 1042 l 469 1042 q 488 1034 482 1042 q 490 1015 493 1026 q 492 958 485 983 q 536 933 500 933 q 594 958 575 933 q 619 1015 613 983 q 631 1034 622 1026 q 651 1042 639 1042 l 742 1042 q 760 1034 754 1042 q 763 1015 765 1026 q 724 917 751 961 q 649 846 697 872 q 526 819 601 819 z "},"â":{"ha":869,"x_min":22,"x_max":849,"o":"m 271 -14 q 153 8 204 -14 q 72 72 103 29 q 32 174 42 114 q 35 313 22 235 q 44 362 40 340 q 56 411 49 383 q 106 544 74 485 q 182 647 138 604 q 285 713 226 690 q 415 736 344 736 q 544 712 500 736 q 614 651 588 688 l 621 688 q 635 713 624 703 q 663 722 647 722 l 818 722 q 841 713 833 722 q 846 688 849 703 l 708 35 q 694 10 706 21 q 667 0 682 0 l 510 0 q 488 10 496 0 q 482 35 479 21 l 492 79 q 399 13 449 39 q 271 -14 350 -14 m 368 172 q 446 192 414 172 q 499 244 478 213 q 528 314 519 276 q 541 367 536 342 q 550 418 546 392 q 551 483 557 453 q 522 531 544 513 q 456 550 499 550 q 381 531 411 550 q 331 478 350 511 q 300 404 313 444 q 289 361 294 383 q 281 318 283 339 q 279 244 276 278 q 303 192 282 211 q 368 172 324 172 m 274 826 q 257 846 254 826 q 268 865 258 857 l 447 1018 q 476 1038 464 1033 q 500 1042 488 1042 l 610 1042 q 633 1038 624 1042 q 654 1018 643 1033 l 767 865 q 771 846 774 857 q 746 826 767 826 l 685 826 q 663 828 674 826 q 643 836 653 831 l 536 904 l 401 836 q 378 828 389 831 q 356 826 368 826 l 274 826 z "},"ä":{"ha":869,"x_min":22,"x_max":849,"o":"m 271 -14 q 153 8 204 -14 q 72 72 103 29 q 32 174 42 114 q 35 313 22 235 q 44 362 40 340 q 56 411 49 383 q 106 544 74 485 q 182 647 138 604 q 285 713 226 690 q 415 736 344 736 q 544 712 500 736 q 614 651 588 688 l 621 688 q 635 713 624 703 q 663 722 647 722 l 818 722 q 841 713 833 722 q 846 688 849 703 l 708 35 q 694 10 706 21 q 667 0 682 0 l 510 0 q 488 10 496 0 q 482 35 479 21 l 492 79 q 399 13 449 39 q 271 -14 350 -14 m 368 172 q 446 192 414 172 q 499 244 478 213 q 528 314 519 276 q 541 367 536 342 q 550 418 546 392 q 551 483 557 453 q 522 531 544 513 q 456 550 499 550 q 381 531 411 550 q 331 478 350 511 q 300 404 313 444 q 289 361 294 383 q 281 318 283 339 q 279 244 276 278 q 303 192 282 211 q 368 172 324 172 m 597 843 q 576 852 583 843 q 572 875 569 861 l 599 1001 q 613 1024 601 1015 q 638 1033 624 1033 l 764 1033 q 785 1024 778 1033 q 790 1001 793 1015 l 763 875 q 749 852 760 861 q 725 843 739 843 l 597 843 m 310 843 q 289 852 296 843 q 285 875 282 861 l 313 1001 q 326 1024 315 1015 q 350 1033 336 1033 l 478 1033 q 499 1024 492 1033 q 503 1001 506 1015 l 475 875 q 462 852 472 861 q 438 843 451 843 l 310 843 z "},"à":{"ha":869,"x_min":22,"x_max":849,"o":"m 271 -14 q 153 8 204 -14 q 72 72 103 29 q 32 174 42 114 q 35 313 22 235 q 44 362 40 340 q 56 411 49 383 q 106 544 74 485 q 182 647 138 604 q 285 713 226 690 q 415 736 344 736 q 544 712 500 736 q 614 651 588 688 l 621 688 q 635 713 624 703 q 663 722 647 722 l 818 722 q 841 713 833 722 q 846 688 849 703 l 708 35 q 694 10 706 21 q 667 0 682 0 l 510 0 q 488 10 496 0 q 482 35 479 21 l 492 79 q 399 13 449 39 q 271 -14 350 -14 m 368 172 q 446 192 414 172 q 499 244 478 213 q 528 314 519 276 q 541 367 536 342 q 550 418 546 392 q 551 483 557 453 q 522 531 544 513 q 456 550 499 550 q 381 531 411 550 q 331 478 350 511 q 300 404 313 444 q 289 361 294 383 q 281 318 283 339 q 279 244 276 278 q 303 192 282 211 q 368 172 324 172 m 471 826 q 442 831 451 826 q 422 846 432 836 l 271 996 q 267 1015 265 1004 q 297 1042 271 1042 l 490 1042 q 517 1037 507 1042 q 536 1015 526 1032 l 626 868 q 629 849 632 860 q 603 826 625 826 l 471 826 z "},"ā":{"ha":869,"x_min":22,"x_max":849,"o":"m 271 -14 q 153 8 204 -14 q 72 72 103 29 q 32 174 42 114 q 35 313 22 235 q 44 362 40 340 q 56 411 49 383 q 106 544 74 485 q 182 647 138 604 q 285 713 226 690 q 415 736 344 736 q 544 712 500 736 q 614 651 588 688 l 621 688 q 635 713 624 703 q 663 722 647 722 l 818 722 q 841 713 833 722 q 846 688 849 703 l 708 35 q 694 10 706 21 q 667 0 682 0 l 510 0 q 488 10 496 0 q 482 35 479 21 l 492 79 q 399 13 449 39 q 271 -14 350 -14 m 368 172 q 446 192 414 172 q 499 244 478 213 q 528 314 519 276 q 541 367 536 342 q 550 418 546 392 q 551 483 557 453 q 522 531 544 513 q 456 550 499 550 q 381 531 411 550 q 331 478 350 511 q 300 404 313 444 q 289 361 294 383 q 281 318 283 339 q 279 244 276 278 q 303 192 282 211 q 368 172 324 172 m 321 840 q 300 849 307 840 q 296 872 293 858 l 317 969 q 331 992 319 983 q 356 1001 342 1001 l 743 1001 q 763 992 757 1001 q 767 969 769 983 l 746 872 q 733 849 744 858 q 708 840 722 840 l 321 840 z "},"ą":{"ha":869,"x_min":22,"x_max":849,"o":"m 597 -306 q 472 -261 513 -306 q 431 -149 431 -217 q 443 -76 431 -114 q 480 -4 456 -39 q 540 53 504 31 l 540 0 l 513 0 q 487 9 496 0 q 482 39 478 18 l 492 79 q 399 13 449 39 q 271 -14 350 -14 q 152 8 203 -14 q 71 73 101 31 q 31 176 40 115 q 35 313 22 236 q 44 362 40 340 q 56 411 49 383 q 106 544 74 485 q 182 647 138 604 q 285 713 226 690 q 415 736 344 736 q 544 712 500 736 q 614 651 588 688 l 621 688 q 635 713 624 703 q 663 722 647 722 l 818 722 q 841 713 833 722 q 846 688 849 703 l 708 33 q 696 9 706 19 q 672 -3 686 -1 l 664 -4 q 600 -42 626 -11 q 574 -115 574 -72 q 588 -154 574 -139 q 632 -169 601 -169 l 643 -169 q 666 -180 658 -169 q 671 -204 674 -190 l 657 -271 q 642 -295 654 -285 q 614 -306 629 -306 l 597 -306 m 368 172 q 446 192 414 172 q 499 244 478 213 q 528 314 519 276 q 541 367 536 342 q 550 418 546 392 q 553 467 556 443 q 541 509 551 490 q 510 539 531 528 q 456 550 489 550 q 381 531 411 550 q 331 478 350 511 q 300 404 313 444 q 289 361 294 383 q 281 318 283 339 q 278 263 278 289 q 286 216 278 236 q 314 184 294 196 q 368 172 333 172 z "},"å":{"ha":869,"x_min":22,"x_max":849,"o":"m 271 -14 q 153 8 204 -14 q 72 72 103 29 q 32 174 42 114 q 35 313 22 235 q 44 362 40 340 q 56 411 49 383 q 106 544 74 485 q 182 647 138 604 q 285 713 226 690 q 415 736 344 736 q 544 712 500 736 q 614 651 588 688 l 621 688 q 635 713 624 703 q 663 722 647 722 l 818 722 q 841 713 833 722 q 846 688 849 703 l 708 35 q 694 10 706 21 q 667 0 682 0 l 510 0 q 488 10 496 0 q 482 35 479 21 l 492 79 q 399 13 449 39 q 271 -14 350 -14 m 368 172 q 446 192 414 172 q 499 244 478 213 q 528 314 519 276 q 541 367 536 342 q 550 418 546 392 q 551 483 557 453 q 522 531 544 513 q 456 550 499 550 q 381 531 411 550 q 331 478 350 511 q 300 404 313 444 q 289 361 294 383 q 281 318 283 339 q 279 244 276 278 q 303 192 282 211 q 368 172 324 172 m 510 819 q 426 854 457 819 q 406 942 394 889 q 462 1028 418 994 q 558 1063 506 1063 q 643 1028 611 1063 q 663 942 675 994 q 607 853 651 888 q 510 819 563 819 m 524 900 q 558 912 543 900 q 576 942 572 924 q 572 972 581 960 q 544 983 563 983 q 511 972 525 983 q 493 942 497 960 q 498 912 489 924 q 524 900 507 900 z "},"ã":{"ha":869,"x_min":22,"x_max":849,"o":"m 271 -14 q 153 8 204 -14 q 72 72 103 29 q 32 174 42 114 q 35 313 22 235 q 44 362 40 340 q 56 411 49 383 q 106 544 74 485 q 182 647 138 604 q 285 713 226 690 q 415 736 344 736 q 544 712 500 736 q 614 651 588 688 l 621 688 q 635 713 624 703 q 663 722 647 722 l 818 722 q 841 713 833 722 q 846 688 849 703 l 708 35 q 694 10 706 21 q 667 0 682 0 l 510 0 q 488 10 496 0 q 482 35 479 21 l 492 79 q 399 13 449 39 q 271 -14 350 -14 m 368 172 q 446 192 414 172 q 499 244 478 213 q 528 314 519 276 q 541 367 536 342 q 550 418 546 392 q 551 483 557 453 q 522 531 544 513 q 456 550 499 550 q 381 531 411 550 q 331 478 350 511 q 300 404 313 444 q 289 361 294 383 q 281 318 283 339 q 279 244 276 278 q 303 192 282 211 q 368 172 324 172 m 615 819 q 553 832 576 819 q 510 856 529 844 q 467 868 492 868 q 437 858 449 868 q 415 838 425 849 q 390 826 406 826 l 307 826 q 292 834 297 826 q 288 850 286 842 q 304 902 292 872 q 339 960 317 932 q 394 1006 361 988 q 469 1025 426 1025 q 532 1013 508 1025 q 575 988 556 1000 q 618 976 594 976 q 648 987 638 976 q 668 1008 658 997 q 693 1018 678 1018 l 776 1018 q 793 1011 788 1018 q 796 993 799 1004 q 779 942 792 971 q 744 884 767 913 q 690 838 722 856 q 615 819 658 819 z "},"æ":{"ha":1271,"x_min":0,"x_max":1242,"o":"m 246 -14 q 102 15 158 -14 q 23 92 46 43 q 13 201 0 140 q 126 358 33 300 q 356 438 219 417 l 536 464 l 540 483 q 535 559 550 533 q 464 585 519 585 q 406 572 431 585 q 363 545 382 560 q 325 521 343 531 q 317 513 321 515 q 308 510 314 510 l 156 510 q 135 519 142 510 q 132 540 129 528 q 162 598 136 565 q 233 663 188 631 q 345 715 279 694 q 499 736 411 736 q 637 715 586 736 q 711 658 688 693 q 820 715 760 693 q 951 736 881 736 q 1087 715 1032 736 q 1176 658 1142 694 q 1226 574 1210 621 q 1242 473 1242 526 q 1232 365 1242 419 l 1225 332 q 1209 307 1222 317 q 1182 297 1196 297 l 743 297 l 740 288 q 740 204 731 236 q 771 157 749 172 q 824 142 793 142 q 879 154 851 142 q 932 192 907 167 q 956 210 947 206 q 981 214 964 214 l 1150 214 q 1170 206 1164 214 q 1174 183 1176 197 q 1142 128 1169 161 q 1065 63 1114 94 q 947 8 1015 31 q 792 -14 878 -14 q 640 16 700 -14 q 546 96 579 46 q 401 10 479 33 q 246 -14 322 -14 m 328 144 q 404 162 368 144 q 467 216 440 179 q 506 308 494 253 l 508 328 l 386 307 q 283 273 318 296 q 243 219 249 250 q 249 179 239 196 q 279 153 258 163 q 328 144 300 144 m 772 435 l 1001 435 l 1003 440 q 1003 517 1008 485 q 977 567 997 550 q 918 585 957 585 q 857 569 888 585 q 803 522 826 554 q 772 440 781 490 l 772 435 z "},"ǽ":{"ha":1271,"x_min":0,"x_max":1242,"o":"m 246 -14 q 102 15 158 -14 q 23 92 46 43 q 13 201 0 140 q 126 358 33 300 q 356 438 219 417 l 536 464 l 540 483 q 535 559 550 533 q 464 585 519 585 q 406 572 431 585 q 363 545 382 560 q 325 521 343 531 q 317 513 321 515 q 308 510 314 510 l 156 510 q 135 519 142 510 q 132 540 129 528 q 162 598 136 565 q 233 663 188 631 q 345 715 279 694 q 499 736 411 736 q 637 715 586 736 q 711 658 688 693 q 820 715 760 693 q 951 736 881 736 q 1087 715 1032 736 q 1176 658 1142 694 q 1226 574 1210 621 q 1242 473 1242 526 q 1232 365 1242 419 l 1225 332 q 1209 307 1222 317 q 1182 297 1196 297 l 743 297 l 740 288 q 740 204 731 236 q 771 157 749 172 q 824 142 793 142 q 879 154 851 142 q 932 192 907 167 q 956 210 947 206 q 981 214 964 214 l 1150 214 q 1170 206 1164 214 q 1174 183 1176 197 q 1142 128 1169 161 q 1065 63 1114 94 q 947 8 1015 31 q 792 -14 878 -14 q 640 16 700 -14 q 546 96 579 46 q 401 10 479 33 q 246 -14 322 -14 m 328 144 q 404 162 368 144 q 467 216 440 179 q 506 308 494 253 l 508 328 l 386 307 q 283 273 318 296 q 243 219 249 250 q 249 179 239 196 q 279 153 258 163 q 328 144 300 144 m 772 435 l 1001 435 l 1003 440 q 1003 517 1008 485 q 977 567 997 550 q 918 585 957 585 q 857 569 888 585 q 803 522 826 554 q 772 440 781 490 l 772 435 m 658 826 q 640 849 636 826 q 651 867 643 860 l 806 1015 q 835 1037 824 1032 q 863 1042 846 1042 l 1046 1042 q 1067 1017 1069 1042 q 1056 997 1065 1004 l 840 846 q 814 831 826 836 q 782 826 801 826 l 658 826 z "},"b":{"ha":875,"x_min":0,"x_max":833,"o":"m 444 -14 q 315 13 367 -14 q 238 79 263 39 l 228 35 q 213 10 225 21 q 186 0 201 0 l 31 0 q 8 10 15 0 q 3 35 0 21 l 197 951 q 212 976 200 967 q 239 986 224 986 l 408 986 q 431 976 424 986 q 436 951 439 967 l 374 654 q 463 713 415 690 q 579 736 511 736 q 699 713 649 736 q 781 649 750 690 q 823 547 813 607 q 819 413 833 488 q 810 362 815 386 q 797 310 806 338 q 724 135 772 208 q 605 24 675 63 q 444 -14 535 -14 m 396 172 q 474 192 443 172 q 524 244 504 211 q 556 318 543 278 q 567 361 563 339 q 574 404 572 383 q 576 478 581 444 q 551 531 572 511 q 483 550 531 550 q 407 531 440 550 q 353 483 374 513 q 322 418 332 453 q 310 367 315 392 q 301 314 304 342 q 300 244 294 276 q 328 192 306 213 q 396 172 351 172 z "},"c":{"ha":818,"x_min":15,"x_max":794,"o":"m 333 -14 q 163 24 238 -14 q 51 133 88 61 q 32 304 15 204 q 43 360 36 326 q 56 417 50 394 q 201 653 93 569 q 469 736 308 736 q 626 709 563 736 q 728 640 690 682 q 780 556 765 599 q 790 482 794 514 q 777 458 789 468 q 750 447 765 447 l 571 447 q 549 454 557 447 q 539 476 542 461 q 515 538 536 518 q 451 557 493 557 q 356 521 396 557 q 299 410 317 485 q 286 358 292 383 q 278 311 281 332 q 285 200 264 235 q 361 165 306 165 q 435 184 404 165 q 489 244 467 203 q 508 265 499 258 q 532 272 518 272 l 711 272 q 733 263 725 272 q 738 238 742 253 q 703 167 729 210 q 631 83 678 125 q 510 14 583 42 q 333 -14 436 -14 z "},"ć":{"ha":818,"x_min":15,"x_max":822,"o":"m 333 -14 q 163 24 238 -14 q 51 133 88 61 q 32 304 15 204 q 43 360 36 326 q 56 417 50 394 q 201 653 93 569 q 469 736 308 736 q 626 709 563 736 q 728 640 690 682 q 780 556 765 599 q 790 482 794 514 q 777 458 789 468 q 750 447 765 447 l 571 447 q 549 454 557 447 q 539 476 542 461 q 515 538 536 518 q 451 557 493 557 q 356 521 396 557 q 299 410 317 485 q 286 358 292 383 q 278 311 281 332 q 285 200 264 235 q 361 165 306 165 q 435 184 404 165 q 489 244 467 203 q 508 265 499 258 q 532 272 518 272 l 711 272 q 733 263 725 272 q 738 238 742 253 q 703 167 729 210 q 631 83 678 125 q 510 14 583 42 q 333 -14 436 -14 m 411 826 q 393 849 389 826 q 404 867 396 860 l 558 1015 q 588 1037 576 1032 q 615 1042 599 1042 l 799 1042 q 819 1017 822 1042 q 808 997 818 1004 l 593 846 q 567 831 579 836 q 535 826 554 826 l 411 826 z "},"č":{"ha":818,"x_min":15,"x_max":796,"o":"m 333 -14 q 163 24 238 -14 q 51 133 88 61 q 32 304 15 204 q 43 360 36 326 q 56 417 50 394 q 201 653 93 569 q 469 736 308 736 q 626 709 563 736 q 728 640 690 682 q 780 556 765 599 q 790 482 794 514 q 777 458 789 468 q 750 447 765 447 l 571 447 q 549 454 557 447 q 539 476 542 461 q 515 538 536 518 q 451 557 493 557 q 356 521 396 557 q 299 410 317 485 q 286 358 292 383 q 278 311 281 332 q 285 200 264 235 q 361 165 306 165 q 435 184 404 165 q 489 244 467 203 q 508 265 499 258 q 532 272 518 272 l 711 272 q 733 263 725 272 q 738 238 742 253 q 703 167 729 210 q 631 83 678 125 q 510 14 583 42 q 333 -14 436 -14 m 440 826 q 418 831 428 826 q 397 850 408 836 l 285 1003 q 281 1021 278 1011 q 289 1036 282 1031 q 306 1042 296 1042 l 365 1042 q 388 1040 378 1042 q 408 1032 399 1038 l 514 964 l 650 1032 q 672 1040 661 1038 q 694 1042 683 1042 l 776 1042 q 794 1022 796 1042 q 782 1004 792 1013 l 604 850 q 576 831 588 836 q 550 826 564 826 l 440 826 z "},"ç":{"ha":818,"x_min":17,"x_max":794,"o":"m 282 -306 q 213 -293 244 -306 q 169 -264 182 -281 q 174 -235 157 -247 l 203 -212 q 225 -206 217 -201 q 246 -217 233 -210 q 285 -224 258 -224 q 322 -212 307 -224 q 340 -182 336 -200 q 334 -153 344 -165 q 303 -142 324 -142 q 271 -147 286 -142 q 243 -152 256 -151 q 224 -144 231 -153 l 199 -111 q 197 -90 193 -101 q 210 -64 200 -79 l 249 -6 q 120 50 175 10 q 41 155 65 90 q 32 304 17 219 q 43 360 36 326 q 56 417 50 394 q 201 653 93 569 q 469 736 308 736 q 626 709 563 736 q 728 640 690 682 q 780 556 765 599 q 790 482 794 514 q 777 458 789 468 q 750 447 765 447 l 571 447 q 549 454 557 447 q 539 476 542 461 q 515 538 536 518 q 451 557 493 557 q 356 521 396 557 q 299 410 317 485 q 286 358 292 383 q 278 311 281 332 q 285 200 264 235 q 361 165 306 165 q 435 184 404 165 q 489 244 467 203 q 508 265 499 258 q 532 272 518 272 l 711 272 q 733 263 725 272 q 738 238 742 253 q 703 167 729 210 q 631 84 678 125 q 511 15 583 43 q 336 -14 439 -12 l 297 -68 q 322 -63 307 -65 q 344 -61 336 -61 q 416 -97 393 -61 q 428 -187 439 -133 q 381 -273 417 -240 q 282 -306 344 -306 z "},"ĉ":{"ha":818,"x_min":15,"x_max":794,"o":"m 333 -14 q 163 24 238 -14 q 51 133 88 61 q 32 304 15 204 q 43 360 36 326 q 56 417 50 394 q 201 653 93 569 q 469 736 308 736 q 626 709 563 736 q 728 640 690 682 q 780 556 765 599 q 790 482 794 514 q 777 458 789 468 q 750 447 765 447 l 571 447 q 549 454 557 447 q 539 476 542 461 q 515 538 536 518 q 451 557 493 557 q 356 521 396 557 q 299 410 317 485 q 286 358 292 383 q 278 311 281 332 q 285 200 264 235 q 361 165 306 165 q 435 184 404 165 q 489 244 467 203 q 508 265 499 258 q 532 272 518 272 l 711 272 q 733 263 725 272 q 738 238 742 253 q 703 167 729 210 q 631 83 678 125 q 510 14 583 42 q 333 -14 436 -14 m 254 826 q 238 846 235 826 q 249 865 239 857 l 428 1018 q 456 1038 444 1033 q 481 1042 468 1042 l 590 1042 q 614 1038 604 1042 q 635 1018 624 1033 l 747 865 q 751 846 754 857 q 726 826 747 826 l 665 826 q 644 828 654 826 q 624 836 633 831 l 517 904 l 382 836 q 359 828 369 831 q 336 826 349 826 l 254 826 z "},"ċ":{"ha":818,"x_min":15,"x_max":794,"o":"m 333 -14 q 163 24 238 -14 q 51 133 88 61 q 32 304 15 204 q 43 360 36 326 q 56 417 50 394 q 201 653 93 569 q 469 736 308 736 q 626 709 563 736 q 728 640 690 682 q 780 556 765 599 q 790 482 794 514 q 777 458 789 468 q 750 447 765 447 l 571 447 q 549 454 557 447 q 539 476 542 461 q 515 538 536 518 q 451 557 493 557 q 356 521 396 557 q 299 410 317 485 q 286 358 292 383 q 278 311 281 332 q 285 200 264 235 q 361 165 306 165 q 435 184 404 165 q 489 244 467 203 q 508 265 499 258 q 532 272 518 272 l 711 272 q 733 263 725 272 q 738 238 742 253 q 703 167 729 210 q 631 83 678 125 q 510 14 583 42 q 333 -14 436 -14 m 425 838 q 404 847 411 838 q 400 869 397 856 l 431 1008 q 444 1031 433 1022 q 468 1040 454 1040 l 607 1040 q 628 1031 621 1040 q 632 1008 635 1022 l 603 869 q 589 847 600 856 q 564 838 578 838 l 425 838 z "},"d":{"ha":875,"x_min":22,"x_max":911,"o":"m 274 -14 q 155 8 206 -14 q 73 72 104 29 q 32 174 42 114 q 33 313 22 235 q 44 362 39 340 q 56 411 49 383 q 106 544 74 485 q 182 647 138 604 q 283 713 226 690 q 410 736 340 736 q 531 713 481 736 q 606 654 581 690 l 669 951 q 684 976 672 967 q 710 986 696 986 l 879 986 q 903 976 894 986 q 908 951 911 967 l 713 35 q 698 10 710 21 q 671 0 686 0 l 515 0 q 492 10 500 0 q 486 35 483 21 l 496 79 q 403 13 454 39 q 274 -14 353 -14 m 369 172 q 449 192 415 172 q 503 244 482 213 q 533 314 524 276 q 546 367 540 342 q 556 418 551 392 q 554 483 561 453 q 524 531 547 513 q 457 550 501 550 q 383 531 414 550 q 331 478 351 511 q 299 404 311 444 q 288 361 293 383 q 281 318 283 339 q 279 244 275 278 q 305 192 283 211 q 369 172 326 172 z "},"ð":{"ha":840,"x_min":28,"x_max":869,"o":"m 346 -14 q 160 25 233 -14 q 57 139 86 64 q 51 319 28 214 q 135 501 74 426 q 288 614 197 575 q 488 653 379 653 q 530 648 511 653 q 564 632 549 643 q 551 691 560 664 q 528 743 542 718 l 363 683 q 346 679 350 679 q 327 687 333 679 q 324 707 321 694 l 331 742 q 342 769 333 760 q 369 783 351 778 l 475 821 q 431 869 454 846 q 381 915 407 893 q 369 931 372 924 q 367 943 365 938 q 380 964 369 956 q 403 972 390 972 l 576 972 q 615 967 600 972 q 638 954 629 961 q 665 926 651 940 q 690 897 679 913 l 826 947 q 844 951 839 951 q 863 944 857 951 q 867 924 869 936 l 860 889 q 848 863 857 872 q 819 847 839 854 l 746 821 q 808 634 793 742 q 793 371 822 526 q 788 342 792 357 q 782 315 785 328 q 696 138 756 211 q 547 25 636 64 q 346 -14 458 -14 m 382 156 q 454 174 424 156 q 505 224 485 192 q 533 294 525 256 q 539 319 538 308 q 543 343 540 329 q 546 415 551 383 q 518 465 540 447 q 451 483 496 483 q 378 465 408 483 q 328 415 347 447 q 301 343 310 383 q 294 319 297 329 q 290 294 292 308 q 289 224 283 256 q 317 174 294 192 q 382 156 339 156 z "},"ď":{"ha":1024,"x_min":22,"x_max":1231,"o":"m 274 -14 q 155 8 206 -14 q 73 72 104 29 q 32 174 42 114 q 33 313 22 235 q 44 362 39 340 q 56 411 49 383 q 106 544 74 485 q 182 647 138 604 q 283 713 226 690 q 410 736 340 736 q 531 713 481 736 q 606 654 581 690 l 669 951 q 684 976 672 967 q 710 986 696 986 l 879 986 q 903 976 894 986 q 908 951 911 967 l 713 35 q 698 10 710 21 q 671 0 686 0 l 515 0 q 492 10 500 0 q 486 35 483 21 l 496 79 q 403 13 454 39 q 274 -14 353 -14 m 369 172 q 449 192 415 172 q 503 244 482 213 q 533 314 524 276 q 546 367 540 342 q 556 418 551 392 q 554 483 561 453 q 524 531 547 513 q 457 550 501 550 q 383 531 414 550 q 331 478 351 511 q 299 404 311 444 q 288 361 293 383 q 281 318 283 339 q 279 244 275 278 q 305 192 283 211 q 369 172 326 172 m 956 729 q 939 738 944 729 q 936 760 933 747 l 1001 939 q 1024 972 1008 957 q 1063 986 1039 986 l 1207 986 q 1224 978 1218 986 q 1228 958 1231 969 q 1225 951 1226 956 q 1221 943 1224 947 l 1115 768 q 1093 742 1107 754 q 1057 729 1079 729 l 956 729 z "},"đ":{"ha":876,"x_min":22,"x_max":983,"o":"m 260 -14 q 139 9 189 -14 q 62 76 89 32 q 28 179 35 119 q 35 313 22 239 q 44 362 39 340 q 56 411 49 383 q 104 540 72 481 q 183 644 136 600 q 289 712 229 688 q 419 736 349 736 q 534 713 489 736 q 606 654 579 690 l 631 774 l 575 774 q 552 783 560 774 q 547 808 544 793 l 558 860 q 573 885 561 875 q 600 894 585 894 l 656 894 l 669 951 q 684 976 672 967 q 710 986 696 986 l 879 986 q 903 976 894 986 q 908 951 911 967 l 896 894 l 951 894 q 975 885 967 894 q 981 860 983 875 l 969 808 q 954 783 967 793 q 926 774 942 774 l 869 774 l 713 35 q 698 10 710 21 q 671 0 686 0 l 515 0 q 492 10 500 0 q 486 35 483 21 l 497 86 q 397 15 457 43 q 260 -14 338 -14 m 375 172 q 453 192 421 172 q 504 244 485 213 q 533 314 524 276 q 546 367 540 342 q 556 418 551 392 q 555 483 563 453 q 524 531 547 513 q 456 550 500 550 q 378 531 410 550 q 328 478 347 511 q 299 404 310 444 q 288 361 293 383 q 281 318 283 339 q 278 244 274 278 q 306 192 283 211 q 375 172 329 172 z "},"e":{"ha":822,"x_min":36,"x_max":808,"o":"m 344 -14 q 163 26 236 -14 q 63 144 90 65 q 57 339 36 224 q 63 364 60 349 q 68 388 65 379 q 157 576 96 497 q 307 695 218 654 q 503 736 396 736 q 694 688 625 736 q 786 556 764 639 q 788 365 808 472 l 781 332 q 765 307 778 317 q 738 297 751 297 l 293 297 q 292 293 293 296 q 290 288 292 290 q 289 214 283 247 q 317 161 294 181 q 376 142 339 142 q 424 151 404 142 q 460 172 444 160 q 485 192 475 183 q 508 210 500 207 q 533 214 517 214 l 706 214 q 726 206 719 214 q 729 183 733 197 q 694 126 722 160 q 615 60 665 93 q 497 7 565 28 q 344 -14 429 -14 m 322 435 l 557 435 l 558 438 q 562 516 569 483 q 531 567 554 549 q 471 585 508 585 q 404 567 433 585 q 355 516 375 549 q 324 438 335 483 l 322 435 z "},"é":{"ha":822,"x_min":36,"x_max":843,"o":"m 344 -14 q 163 26 236 -14 q 63 144 90 65 q 57 339 36 224 q 63 364 60 349 q 68 388 65 379 q 157 576 96 497 q 307 695 218 654 q 503 736 396 736 q 694 688 625 736 q 786 556 764 639 q 788 365 808 472 l 781 332 q 765 307 778 317 q 738 297 751 297 l 293 297 q 292 293 293 296 q 290 288 292 290 q 289 214 283 247 q 317 161 294 181 q 376 142 339 142 q 424 151 404 142 q 460 172 444 160 q 485 192 475 183 q 508 210 500 207 q 533 214 517 214 l 706 214 q 726 206 719 214 q 729 183 733 197 q 694 126 722 160 q 615 60 665 93 q 497 7 565 28 q 344 -14 429 -14 m 322 435 l 557 435 l 558 438 q 562 516 569 483 q 531 567 554 549 q 471 585 508 585 q 404 567 433 585 q 355 516 375 549 q 324 438 335 483 l 322 435 m 432 826 q 414 849 410 826 q 425 867 417 860 l 579 1015 q 608 1037 597 1032 q 636 1042 619 1042 l 819 1042 q 840 1017 843 1042 q 829 997 839 1004 l 614 846 q 588 831 600 836 q 556 826 575 826 l 432 826 z "},"ĕ":{"ha":822,"x_min":36,"x_max":808,"o":"m 344 -14 q 163 26 236 -14 q 63 144 90 65 q 57 339 36 224 q 63 364 60 349 q 68 388 65 379 q 157 576 96 497 q 307 695 218 654 q 503 736 396 736 q 694 688 625 736 q 786 556 764 639 q 788 365 808 472 l 781 332 q 765 307 778 317 q 738 297 751 297 l 293 297 q 292 293 293 296 q 290 288 292 290 q 289 214 283 247 q 317 161 294 181 q 376 142 339 142 q 424 151 404 142 q 460 172 444 160 q 485 192 475 183 q 508 210 500 207 q 533 214 517 214 l 706 214 q 726 206 719 214 q 729 183 733 197 q 694 126 722 160 q 615 60 665 93 q 497 7 565 28 q 344 -14 429 -14 m 322 435 l 557 435 l 558 438 q 562 516 569 483 q 531 567 554 549 q 471 585 508 585 q 404 567 433 585 q 355 516 375 549 q 324 438 335 483 l 322 435 m 526 819 q 417 846 461 819 q 356 917 374 872 q 349 1015 338 961 q 360 1034 351 1026 q 381 1042 368 1042 l 469 1042 q 488 1034 482 1042 q 490 1015 493 1026 q 492 958 485 983 q 536 933 500 933 q 594 958 575 933 q 619 1015 613 983 q 631 1034 622 1026 q 651 1042 639 1042 l 742 1042 q 760 1034 754 1042 q 763 1015 765 1026 q 724 917 751 961 q 649 846 697 872 q 526 819 601 819 z "},"ě":{"ha":822,"x_min":36,"x_max":817,"o":"m 344 -14 q 163 26 236 -14 q 63 144 90 65 q 57 339 36 224 q 63 364 60 349 q 68 388 65 379 q 157 576 96 497 q 307 695 218 654 q 503 736 396 736 q 694 688 625 736 q 786 556 764 639 q 788 365 808 472 l 781 332 q 765 307 778 317 q 738 297 751 297 l 293 297 q 292 293 293 296 q 290 288 292 290 q 289 214 283 247 q 317 161 294 181 q 376 142 339 142 q 424 151 404 142 q 460 172 444 160 q 485 192 475 183 q 508 210 500 207 q 533 214 517 214 l 706 214 q 726 206 719 214 q 729 183 733 197 q 694 126 722 160 q 615 60 665 93 q 497 7 565 28 q 344 -14 429 -14 m 322 435 l 557 435 l 558 438 q 562 516 569 483 q 531 567 554 549 q 471 585 508 585 q 404 567 433 585 q 355 516 375 549 q 324 438 335 483 l 322 435 m 460 826 q 438 831 447 826 q 417 850 428 836 l 304 1003 q 300 1021 297 1011 q 308 1036 301 1031 q 325 1042 315 1042 l 385 1042 q 408 1040 397 1042 q 428 1032 418 1038 l 533 964 l 669 1032 q 692 1040 681 1038 q 714 1042 703 1042 l 796 1042 q 814 1022 815 1042 q 801 1004 811 1013 l 624 850 q 595 831 607 836 q 569 826 583 826 l 460 826 z "},"ê":{"ha":822,"x_min":36,"x_max":808,"o":"m 344 -14 q 163 26 236 -14 q 63 144 90 65 q 57 339 36 224 q 63 364 60 349 q 68 388 65 379 q 157 576 96 497 q 307 695 218 654 q 503 736 396 736 q 694 688 625 736 q 786 556 764 639 q 788 365 808 472 l 781 332 q 765 307 778 317 q 738 297 751 297 l 293 297 q 292 293 293 296 q 290 288 292 290 q 289 214 283 247 q 317 161 294 181 q 376 142 339 142 q 424 151 404 142 q 460 172 444 160 q 485 192 475 183 q 508 210 500 207 q 533 214 517 214 l 706 214 q 726 206 719 214 q 729 183 733 197 q 694 126 722 160 q 615 60 665 93 q 497 7 565 28 q 344 -14 429 -14 m 322 435 l 557 435 l 558 438 q 562 516 569 483 q 531 567 554 549 q 471 585 508 585 q 404 567 433 585 q 355 516 375 549 q 324 438 335 483 l 322 435 m 274 826 q 257 846 254 826 q 268 865 258 857 l 447 1018 q 476 1038 464 1033 q 500 1042 488 1042 l 610 1042 q 633 1038 624 1042 q 654 1018 643 1033 l 767 865 q 771 846 774 857 q 746 826 767 826 l 685 826 q 663 828 674 826 q 643 836 653 831 l 536 904 l 401 836 q 378 828 389 831 q 356 826 368 826 l 274 826 z "},"ë":{"ha":822,"x_min":36,"x_max":808,"o":"m 344 -14 q 163 26 236 -14 q 63 144 90 65 q 57 339 36 224 q 63 364 60 349 q 68 388 65 379 q 157 576 96 497 q 307 695 218 654 q 503 736 396 736 q 694 688 625 736 q 786 556 764 639 q 788 365 808 472 l 781 332 q 765 307 778 317 q 738 297 751 297 l 293 297 q 292 293 293 296 q 290 288 292 290 q 289 214 283 247 q 317 161 294 181 q 376 142 339 142 q 424 151 404 142 q 460 172 444 160 q 485 192 475 183 q 508 210 500 207 q 533 214 517 214 l 706 214 q 726 206 719 214 q 729 183 733 197 q 694 126 722 160 q 615 60 665 93 q 497 7 565 28 q 344 -14 429 -14 m 322 435 l 557 435 l 558 438 q 562 516 569 483 q 531 567 554 549 q 471 585 508 585 q 404 567 433 585 q 355 516 375 549 q 324 438 335 483 l 322 435 m 599 843 q 578 852 585 843 q 574 875 571 861 l 600 1001 q 614 1024 603 1015 q 639 1033 625 1033 l 765 1033 q 787 1024 779 1033 q 792 1001 794 1015 l 764 875 q 751 852 761 861 q 726 843 740 843 l 599 843 m 311 843 q 290 852 297 843 q 286 875 283 861 l 314 1001 q 327 1024 317 1015 q 351 1033 338 1033 l 479 1033 q 500 1024 493 1033 q 504 1001 507 1015 l 476 875 q 463 852 474 861 q 439 843 453 843 l 311 843 z "},"ė":{"ha":822,"x_min":36,"x_max":808,"o":"m 344 -14 q 163 26 236 -14 q 63 144 90 65 q 57 339 36 224 q 63 364 60 349 q 68 388 65 379 q 157 576 96 497 q 307 695 218 654 q 503 736 396 736 q 694 688 625 736 q 786 556 764 639 q 788 365 808 472 l 781 332 q 765 307 778 317 q 738 297 751 297 l 293 297 q 292 293 293 296 q 290 288 292 290 q 289 214 283 247 q 317 161 294 181 q 376 142 339 142 q 424 151 404 142 q 460 172 444 160 q 485 192 475 183 q 508 210 500 207 q 533 214 517 214 l 706 214 q 726 206 719 214 q 729 183 733 197 q 694 126 722 160 q 615 60 665 93 q 497 7 565 28 q 344 -14 429 -14 m 322 435 l 557 435 l 558 438 q 562 516 569 483 q 531 567 554 549 q 471 585 508 585 q 404 567 433 585 q 355 516 375 549 q 324 438 335 483 l 322 435 m 446 838 q 425 847 432 838 q 421 869 418 856 l 451 1008 q 465 1031 454 1022 q 489 1040 475 1040 l 628 1040 q 649 1031 642 1040 q 653 1008 656 1022 l 624 869 q 610 847 621 856 q 585 838 599 838 l 446 838 z "},"è":{"ha":822,"x_min":36,"x_max":808,"o":"m 344 -14 q 163 26 236 -14 q 63 144 90 65 q 57 339 36 224 q 63 364 60 349 q 68 388 65 379 q 157 576 96 497 q 307 695 218 654 q 503 736 396 736 q 694 688 625 736 q 786 556 764 639 q 788 365 808 472 l 781 332 q 765 307 778 317 q 738 297 751 297 l 293 297 q 292 293 293 296 q 290 288 292 290 q 289 214 283 247 q 317 161 294 181 q 376 142 339 142 q 424 151 404 142 q 460 172 444 160 q 485 192 475 183 q 508 210 500 207 q 533 214 517 214 l 706 214 q 726 206 719 214 q 729 183 733 197 q 694 126 722 160 q 615 60 665 93 q 497 7 565 28 q 344 -14 429 -14 m 322 435 l 557 435 l 558 438 q 562 516 569 483 q 531 567 554 549 q 471 585 508 585 q 404 567 433 585 q 355 516 375 549 q 324 438 335 483 l 322 435 m 472 826 q 443 831 453 826 q 424 846 433 836 l 272 996 q 268 1015 267 1004 q 299 1042 272 1042 l 492 1042 q 518 1037 508 1042 q 538 1015 528 1032 l 628 868 q 631 849 633 860 q 604 826 626 826 l 472 826 z "},"ē":{"ha":822,"x_min":36,"x_max":808,"o":"m 344 -14 q 163 26 236 -14 q 63 144 90 65 q 57 339 36 224 q 63 364 60 349 q 68 388 65 379 q 157 576 96 497 q 307 695 218 654 q 503 736 396 736 q 694 688 625 736 q 786 556 764 639 q 788 365 808 472 l 781 332 q 765 307 778 317 q 738 297 751 297 l 293 297 q 292 293 293 296 q 290 288 292 290 q 289 214 283 247 q 317 161 294 181 q 376 142 339 142 q 424 151 404 142 q 460 172 444 160 q 485 192 475 183 q 508 210 500 207 q 533 214 517 214 l 706 214 q 726 206 719 214 q 729 183 733 197 q 694 126 722 160 q 615 60 665 93 q 497 7 565 28 q 344 -14 429 -14 m 322 435 l 557 435 l 558 438 q 562 516 569 483 q 531 567 554 549 q 471 585 508 585 q 404 567 433 585 q 355 516 375 549 q 324 438 335 483 l 322 435 m 322 840 q 301 849 308 840 q 297 872 294 858 l 318 969 q 332 992 321 983 q 357 1001 343 1001 l 744 1001 q 765 992 758 1001 q 768 969 771 983 l 747 872 q 735 849 746 858 q 710 840 724 840 l 322 840 z "},"ę":{"ha":826,"x_min":32,"x_max":810,"o":"m 356 -306 q 241 -276 283 -306 q 185 -197 199 -247 q 186 -85 172 -147 q 199 -39 190 -61 q 219 1 207 -17 q 75 117 118 32 q 58 339 32 203 q 63 363 60 349 q 68 386 65 376 q 157 574 96 496 q 307 694 218 653 q 504 736 396 736 q 695 688 625 736 q 788 556 765 639 q 788 365 810 472 l 781 332 q 765 307 776 317 q 738 297 753 297 l 293 297 l 292 288 q 290 214 285 247 q 317 161 296 181 q 376 142 339 142 q 425 151 404 142 q 460 172 446 160 q 485 192 475 183 q 509 210 500 207 q 533 214 518 214 l 706 214 q 726 206 719 214 q 729 183 733 197 q 684 116 722 156 q 581 42 646 76 q 428 -7 517 7 q 358 -34 383 -15 q 326 -85 333 -53 q 333 -144 318 -119 q 390 -169 349 -169 l 407 -169 q 430 -180 422 -169 q 435 -204 438 -190 l 421 -271 q 406 -295 418 -285 q 378 -306 393 -306 l 356 -306 m 322 435 l 557 435 l 558 438 q 560 516 568 483 q 531 567 553 549 q 471 585 508 585 q 403 567 433 585 q 353 516 374 549 q 324 438 333 483 l 322 435 z "},"f":{"ha":611,"x_min":54,"x_max":736,"o":"m 111 0 q 89 10 97 0 q 83 35 81 21 l 190 540 l 85 540 q 62 550 69 540 q 57 575 54 560 l 81 688 q 96 713 83 703 q 124 722 108 722 l 229 722 l 239 767 q 306 919 260 861 q 420 1002 351 976 q 578 1028 489 1028 l 707 1028 q 728 1018 721 1028 q 733 993 736 1008 l 710 881 q 694 856 707 865 q 668 846 682 846 l 574 846 q 502 824 528 846 q 468 760 476 801 l 460 722 l 628 722 q 649 713 642 722 q 654 688 657 703 l 632 575 q 616 550 628 560 q 589 540 604 540 l 421 540 l 314 35 q 299 10 311 21 q 272 0 288 0 l 111 0 z "},"g":{"ha":879,"x_min":-37,"x_max":857,"o":"m 293 -306 q 125 -278 190 -306 q 24 -211 60 -250 q -25 -134 -12 -172 q -35 -74 -37 -96 q -20 -48 -32 -58 q 6 -37 -8 -37 l 185 -37 q 206 -44 199 -37 q 214 -67 213 -51 q 226 -98 218 -82 q 253 -125 233 -114 q 310 -136 272 -136 q 378 -123 347 -136 q 433 -80 410 -110 q 467 0 456 -50 l 486 93 q 397 37 444 58 q 279 15 350 15 q 156 36 207 15 q 74 99 104 57 q 35 200 44 140 q 39 338 26 260 q 45 374 42 358 q 54 411 49 390 q 105 544 74 485 q 179 647 136 604 q 279 713 222 690 q 408 736 336 736 q 536 708 483 736 q 613 636 589 679 l 624 688 q 639 712 626 701 q 667 722 651 722 l 826 722 q 849 712 842 722 q 854 688 857 701 l 714 19 q 664 -120 697 -60 q 579 -222 631 -181 q 456 -285 528 -264 q 293 -306 385 -306 m 375 196 q 451 215 418 196 q 505 265 483 235 q 536 331 526 296 q 545 374 539 346 q 553 415 551 401 q 552 482 558 451 q 523 531 546 513 q 456 550 500 550 q 381 531 413 550 q 329 478 350 511 q 297 404 308 444 q 290 374 294 390 q 285 342 286 357 q 283 268 279 301 q 308 215 286 235 q 375 196 329 196 z "},"ğ":{"ha":879,"x_min":-37,"x_max":857,"o":"m 293 -306 q 125 -278 190 -306 q 24 -211 60 -250 q -25 -134 -12 -172 q -35 -74 -37 -96 q -20 -48 -32 -58 q 6 -37 -8 -37 l 185 -37 q 206 -44 199 -37 q 214 -67 213 -51 q 226 -98 218 -82 q 253 -125 233 -114 q 310 -136 272 -136 q 378 -123 347 -136 q 433 -80 410 -110 q 467 0 456 -50 l 486 93 q 397 37 444 58 q 279 15 350 15 q 156 36 207 15 q 74 99 104 57 q 35 200 44 140 q 39 338 26 260 q 45 374 42 358 q 54 411 49 390 q 105 544 74 485 q 179 647 136 604 q 279 713 222 690 q 408 736 336 736 q 536 708 483 736 q 613 636 589 679 l 624 688 q 639 712 626 701 q 667 722 651 722 l 826 722 q 849 712 842 722 q 854 688 857 701 l 714 19 q 664 -120 697 -60 q 579 -222 631 -181 q 456 -285 528 -264 q 293 -306 385 -306 m 375 196 q 451 215 418 196 q 505 265 483 235 q 536 331 526 296 q 545 374 539 346 q 553 415 551 401 q 552 482 558 451 q 523 531 546 513 q 456 550 500 550 q 381 531 413 550 q 329 478 350 511 q 297 404 308 444 q 290 374 294 390 q 285 342 286 357 q 283 268 279 301 q 308 215 286 235 q 375 196 329 196 m 521 819 q 412 846 456 819 q 350 917 368 872 q 343 1015 332 961 q 354 1034 346 1026 q 375 1042 363 1042 l 464 1042 q 482 1034 476 1042 q 485 1015 488 1026 q 487 958 479 983 q 531 933 494 933 q 588 958 569 933 q 614 1015 607 983 q 625 1034 617 1026 q 646 1042 633 1042 l 736 1042 q 754 1034 749 1042 q 757 1015 760 1026 q 719 917 746 961 q 644 846 692 872 q 521 819 596 819 z "},"ĝ":{"ha":879,"x_min":-37,"x_max":857,"o":"m 293 -306 q 125 -278 190 -306 q 24 -211 60 -250 q -25 -134 -12 -172 q -35 -74 -37 -96 q -20 -48 -32 -58 q 6 -37 -8 -37 l 185 -37 q 206 -44 199 -37 q 214 -67 213 -51 q 226 -98 218 -82 q 253 -125 233 -114 q 310 -136 272 -136 q 378 -123 347 -136 q 433 -80 410 -110 q 467 0 456 -50 l 486 93 q 397 37 444 58 q 279 15 350 15 q 156 36 207 15 q 74 99 104 57 q 35 200 44 140 q 39 338 26 260 q 45 374 42 358 q 54 411 49 390 q 105 544 74 485 q 179 647 136 604 q 279 713 222 690 q 408 736 336 736 q 536 708 483 736 q 613 636 589 679 l 624 688 q 639 712 626 701 q 667 722 651 722 l 826 722 q 849 712 842 722 q 854 688 857 701 l 714 19 q 664 -120 697 -60 q 579 -222 631 -181 q 456 -285 528 -264 q 293 -306 385 -306 m 375 196 q 451 215 418 196 q 505 265 483 235 q 536 331 526 296 q 545 374 539 346 q 553 415 551 401 q 552 482 558 451 q 523 531 546 513 q 456 550 500 550 q 381 531 413 550 q 329 478 350 511 q 297 404 308 444 q 290 374 294 390 q 285 342 286 357 q 283 268 279 301 q 308 215 286 235 q 375 196 329 196 m 268 826 q 251 846 249 826 q 263 865 253 857 l 442 1018 q 470 1038 458 1033 q 494 1042 482 1042 l 604 1042 q 628 1038 618 1042 q 649 1018 638 1033 l 761 865 q 765 846 768 857 q 740 826 761 826 l 679 826 q 658 828 668 826 q 638 836 647 831 l 531 904 l 396 836 q 373 828 383 831 q 350 826 363 826 l 268 826 z "},"ģ":{"ha":879,"x_min":-37,"x_max":857,"o":"m 293 -306 q 125 -278 190 -306 q 24 -211 60 -250 q -25 -134 -12 -172 q -35 -74 -37 -96 q -20 -48 -32 -58 q 6 -37 -8 -37 l 185 -37 q 206 -44 199 -37 q 214 -67 213 -51 q 226 -98 218 -82 q 253 -125 233 -114 q 310 -136 272 -136 q 378 -123 347 -136 q 433 -80 410 -110 q 467 0 456 -50 l 486 93 q 397 37 444 58 q 279 15 350 15 q 156 36 207 15 q 74 99 104 57 q 35 200 44 140 q 39 338 26 260 q 45 374 42 358 q 54 411 49 390 q 105 544 74 485 q 179 647 136 604 q 279 713 222 690 q 408 736 336 736 q 536 708 483 736 q 613 636 589 679 l 624 688 q 639 712 626 701 q 667 722 651 722 l 826 722 q 849 712 842 722 q 854 688 857 701 l 714 19 q 664 -120 697 -60 q 579 -222 631 -181 q 456 -285 528 -264 q 293 -306 385 -306 m 375 196 q 451 215 418 196 q 505 265 483 235 q 536 331 526 296 q 545 374 539 346 q 553 415 551 401 q 552 482 558 451 q 523 531 546 513 q 456 550 500 550 q 381 531 413 550 q 329 478 350 511 q 297 404 308 444 q 290 374 294 390 q 285 342 286 357 q 283 268 279 301 q 308 215 286 235 q 375 196 329 196 m 422 826 q 405 835 410 826 q 401 854 400 843 q 404 862 403 858 q 408 869 406 865 l 514 1044 q 536 1071 522 1058 q 572 1083 550 1083 l 672 1083 q 690 1074 685 1083 q 693 1053 696 1065 l 628 875 q 606 842 622 857 q 567 826 590 826 l 422 826 z "},"ġ":{"ha":879,"x_min":-37,"x_max":857,"o":"m 293 -306 q 125 -278 190 -306 q 24 -211 60 -250 q -25 -134 -12 -172 q -35 -74 -37 -96 q -20 -48 -32 -58 q 6 -37 -8 -37 l 185 -37 q 206 -44 199 -37 q 214 -67 213 -51 q 226 -98 218 -82 q 253 -125 233 -114 q 310 -136 272 -136 q 378 -123 347 -136 q 433 -80 410 -110 q 467 0 456 -50 l 486 93 q 397 37 444 58 q 279 15 350 15 q 156 36 207 15 q 74 99 104 57 q 35 200 44 140 q 39 338 26 260 q 45 374 42 358 q 54 411 49 390 q 105 544 74 485 q 179 647 136 604 q 279 713 222 690 q 408 736 336 736 q 536 708 483 736 q 613 636 589 679 l 624 688 q 639 712 626 701 q 667 722 651 722 l 826 722 q 849 712 842 722 q 854 688 857 701 l 714 19 q 664 -120 697 -60 q 579 -222 631 -181 q 456 -285 528 -264 q 293 -306 385 -306 m 375 196 q 451 215 418 196 q 505 265 483 235 q 536 331 526 296 q 545 374 539 346 q 553 415 551 401 q 552 482 558 451 q 523 531 546 513 q 456 550 500 550 q 381 531 413 550 q 329 478 350 511 q 297 404 308 444 q 290 374 294 390 q 285 342 286 357 q 283 268 279 301 q 308 215 286 235 q 375 196 329 196 m 439 838 q 418 847 425 838 q 414 869 411 856 l 444 1008 q 458 1031 447 1022 q 482 1040 468 1040 l 621 1040 q 642 1031 635 1040 q 646 1008 649 1022 l 617 869 q 603 847 614 856 q 578 838 592 838 l 439 838 z "},"h":{"ha":903,"x_min":-1,"x_max":853,"o":"m 31 0 q 7 10 15 0 q 1 35 -1 21 l 197 951 q 212 976 200 967 q 239 986 224 986 l 417 986 q 440 976 432 986 q 444 951 447 967 l 379 642 q 477 710 422 685 q 604 736 532 736 q 748 700 689 736 q 830 594 807 664 q 831 422 853 525 l 749 35 q 733 10 746 21 q 707 0 721 0 l 528 0 q 504 10 513 0 q 499 35 496 21 l 579 414 q 572 515 593 479 q 492 550 551 550 q 420 535 453 550 q 363 488 388 519 q 329 414 339 457 l 250 35 q 235 10 247 21 q 208 0 224 0 l 31 0 z "},"ħ":{"ha":903,"x_min":-1,"x_max":853,"o":"m 104 764 q 82 774 90 764 q 78 800 74 785 l 88 851 q 103 876 92 865 q 129 886 115 886 l 482 886 q 504 876 496 886 q 510 851 513 865 l 499 800 q 483 774 496 785 q 456 764 471 764 l 104 764 m 31 0 q 7 10 15 0 q 1 35 -1 21 l 197 951 q 212 976 200 967 q 239 986 224 986 l 417 986 q 440 976 432 986 q 444 951 447 967 l 379 642 q 477 710 422 685 q 604 736 532 736 q 748 700 689 736 q 830 594 807 664 q 831 422 853 525 l 749 35 q 733 10 746 21 q 707 0 721 0 l 528 0 q 504 10 513 0 q 499 35 496 21 l 579 414 q 572 515 593 479 q 492 550 551 550 q 420 535 453 550 q 363 488 388 519 q 329 414 339 457 l 250 35 q 235 10 247 21 q 208 0 224 0 l 31 0 z "},"ĥ":{"ha":903,"x_min":-1,"x_max":853,"o":"m 31 0 q 7 10 15 0 q 1 35 -1 21 l 197 951 q 212 976 200 967 q 239 986 224 986 l 417 986 q 440 976 432 986 q 444 951 447 967 l 379 642 q 477 710 422 685 q 604 736 532 736 q 748 700 689 736 q 830 594 807 664 q 831 422 853 525 l 749 35 q 733 10 746 21 q 707 0 721 0 l 528 0 q 504 10 513 0 q 499 35 496 21 l 579 414 q 572 515 593 479 q 492 550 551 550 q 420 535 453 550 q 363 488 388 519 q 329 414 339 457 l 250 35 q 235 10 247 21 q 208 0 224 0 l 31 0 m 306 1043 q 289 1063 286 1043 q 300 1082 290 1074 l 479 1235 q 508 1254 496 1250 q 532 1258 519 1258 l 642 1258 q 665 1254 656 1258 q 686 1235 675 1250 l 799 1082 q 803 1063 806 1074 q 778 1043 799 1043 l 717 1043 q 695 1045 706 1043 q 675 1053 685 1047 l 568 1121 l 433 1053 q 410 1045 421 1047 q 388 1043 400 1043 l 306 1043 z "},"i":{"ha":397,"x_min":-1,"x_max":442,"o":"m 31 0 q 7 10 15 0 q 1 35 -1 21 l 140 688 q 156 713 143 703 q 183 722 168 722 l 347 722 q 369 713 363 722 q 374 688 376 703 l 236 35 q 222 10 233 21 q 194 0 210 0 l 31 0 m 204 826 q 181 836 189 826 q 175 861 174 846 l 203 986 q 218 1010 206 1000 q 244 1021 231 1021 l 411 1021 q 434 1010 426 1021 q 439 986 442 1000 l 413 861 q 397 836 410 846 q 371 826 385 826 l 204 826 z "},"ı":{"ha":397,"x_min":-1,"x_max":376,"o":"m 31 0 q 7 10 15 0 q 1 35 -1 21 l 140 688 q 156 713 143 703 q 183 722 168 722 l 347 722 q 369 713 363 722 q 374 688 376 703 l 236 35 q 222 10 233 21 q 194 0 210 0 l 31 0 z "},"í":{"ha":397,"x_min":-1,"x_max":615,"o":"m 31 0 q 7 10 15 0 q 1 35 -1 21 l 140 688 q 156 713 143 703 q 183 722 168 722 l 347 722 q 369 713 363 722 q 374 688 376 703 l 236 35 q 222 10 233 21 q 194 0 210 0 l 31 0 m 204 826 q 186 849 182 826 q 197 867 189 860 l 351 1015 q 381 1037 369 1032 q 408 1042 392 1042 l 592 1042 q 613 1017 615 1042 q 601 997 611 1004 l 386 846 q 360 831 372 836 q 328 826 347 826 l 204 826 z "},"ĭ":{"ha":397,"x_min":-1,"x_max":538,"o":"m 31 0 q 7 10 15 0 q 1 35 -1 21 l 140 688 q 156 713 143 703 q 183 722 168 722 l 347 722 q 369 713 363 722 q 374 688 376 703 l 236 35 q 222 10 233 21 q 194 0 210 0 l 31 0 m 300 819 q 191 846 235 819 q 129 917 147 872 q 122 1015 111 961 q 133 1034 125 1026 q 154 1042 142 1042 l 243 1042 q 261 1034 256 1042 q 264 1015 267 1026 q 266 958 258 983 q 310 933 274 933 q 367 958 349 933 q 393 1015 386 983 q 404 1034 396 1026 q 425 1042 413 1042 l 515 1042 q 533 1034 528 1042 q 536 1015 539 1026 q 498 917 525 961 q 423 846 471 872 q 300 819 375 819 z "},"î":{"ha":397,"x_min":-1,"x_max":546,"o":"m 31 0 q 7 10 15 0 q 1 35 -1 21 l 140 688 q 156 713 143 703 q 183 722 168 722 l 347 722 q 369 713 363 722 q 374 688 376 703 l 236 35 q 222 10 233 21 q 194 0 210 0 l 31 0 m 47 826 q 31 846 28 826 q 42 865 32 857 l 221 1018 q 249 1038 238 1033 q 274 1042 261 1042 l 383 1042 q 407 1038 397 1042 q 428 1018 417 1033 l 540 865 q 544 846 547 857 q 519 826 540 826 l 458 826 q 437 828 447 826 q 417 836 426 831 l 310 904 l 175 836 q 152 828 163 831 q 129 826 142 826 l 47 826 z "},"ï":{"ha":397,"x_min":-1,"x_max":567,"o":"m 31 0 q 7 10 15 0 q 1 35 -1 21 l 140 688 q 156 713 143 703 q 183 722 168 722 l 347 722 q 369 713 363 722 q 374 688 376 703 l 236 35 q 222 10 233 21 q 194 0 210 0 l 31 0 m 371 843 q 350 852 357 843 q 346 875 343 861 l 372 1001 q 386 1024 375 1015 q 411 1033 397 1033 l 538 1033 q 559 1024 551 1033 q 564 1001 567 1015 l 536 875 q 523 852 533 861 q 499 843 513 843 l 371 843 m 83 843 q 63 852 69 843 q 58 875 56 861 l 86 1001 q 99 1024 89 1015 q 124 1033 110 1033 l 251 1033 q 272 1024 265 1033 q 276 1001 279 1015 l 249 875 q 235 852 246 861 q 211 843 225 843 l 83 843 z "},"ì":{"ha":397,"x_min":-1,"x_max":406,"o":"m 31 0 q 7 10 15 0 q 1 35 -1 21 l 140 688 q 156 713 143 703 q 183 722 168 722 l 347 722 q 369 713 363 722 q 374 688 376 703 l 236 35 q 222 10 233 21 q 194 0 210 0 l 31 0 m 244 826 q 215 831 225 826 q 196 846 206 836 l 44 996 q 40 1015 39 1004 q 71 1042 44 1042 l 264 1042 q 290 1037 281 1042 q 310 1015 300 1032 l 400 868 q 403 849 406 860 q 376 826 399 826 l 244 826 z "},"ĳ":{"ha":818,"x_min":-1,"x_max":863,"o":"m 31 0 q 7 10 15 0 q 1 35 -1 21 l 140 688 q 156 713 143 703 q 183 722 168 722 l 347 722 q 369 713 363 722 q 374 688 376 703 l 236 35 q 222 10 233 21 q 194 0 210 0 l 31 0 m 204 826 q 181 836 189 826 q 175 861 174 846 l 203 986 q 218 1010 206 1000 q 244 1021 231 1021 l 411 1021 q 434 1010 426 1021 q 439 986 442 1000 l 413 861 q 397 836 410 846 q 371 826 385 826 l 204 826 m 215 -264 q 193 -253 200 -264 q 189 -229 186 -243 l 213 -117 q 227 -92 215 -101 q 254 -82 239 -82 l 308 -82 q 377 -53 353 -82 q 411 19 401 -25 l 553 688 q 568 713 556 703 q 596 722 581 722 l 767 722 q 790 713 782 722 q 794 688 797 703 l 651 14 q 589 -138 633 -76 q 474 -232 544 -200 q 304 -264 404 -264 l 215 -264 m 617 826 q 594 836 601 826 q 588 861 586 846 l 615 986 q 631 1010 618 1000 q 657 1021 643 1021 l 832 1021 q 854 1010 846 1021 q 860 986 863 1000 l 832 861 q 818 836 831 846 q 790 826 806 826 l 617 826 z "},"ī":{"ha":397,"x_min":-1,"x_max":543,"o":"m 31 0 q 7 10 15 0 q 1 35 -1 21 l 140 688 q 156 713 143 703 q 183 722 168 722 l 347 722 q 369 713 363 722 q 374 688 376 703 l 236 35 q 222 10 233 21 q 194 0 210 0 l 31 0 m 94 840 q 74 849 81 840 q 69 872 67 858 l 90 969 q 104 992 93 983 q 129 1001 115 1001 l 517 1001 q 537 992 531 1001 q 540 969 543 983 l 519 872 q 507 849 518 858 q 482 840 496 840 l 94 840 z "},"į":{"ha":407,"x_min":-36,"x_max":472,"o":"m 146 -281 q 3 -224 43 -281 q -18 -78 -36 -167 q 10 -12 -11 -39 q 60 28 31 15 l 54 31 q 40 40 44 32 q 36 57 35 47 l 171 688 q 186 713 174 703 q 214 722 199 722 l 378 722 q 399 713 392 722 q 404 688 407 703 l 267 35 q 251 10 264 21 q 224 0 238 0 l 213 0 q 144 -22 169 0 q 114 -78 119 -43 q 122 -133 106 -111 q 179 -154 138 -154 l 196 -154 q 219 -165 211 -154 q 224 -189 226 -175 l 211 -246 q 196 -271 208 -261 q 168 -281 183 -281 l 146 -281 m 233 826 q 210 836 218 826 q 206 861 203 846 l 232 986 q 248 1010 235 1000 q 275 1021 261 1021 l 442 1021 q 465 1010 457 1021 q 469 986 472 1000 l 443 861 q 427 836 440 846 q 400 826 414 826 l 233 826 z "},"ĩ":{"ha":397,"x_min":-1,"x_max":572,"o":"m 31 0 q 7 10 15 0 q 1 35 -1 21 l 140 688 q 156 713 143 703 q 183 722 168 722 l 347 722 q 369 713 363 722 q 374 688 376 703 l 236 35 q 222 10 233 21 q 194 0 210 0 l 31 0 m 389 819 q 326 832 350 819 q 284 856 303 844 q 240 868 265 868 q 210 858 222 868 q 189 838 199 849 q 164 826 179 826 l 81 826 q 65 834 71 826 q 61 850 60 842 q 78 902 65 872 q 113 960 90 932 q 167 1006 135 988 q 243 1025 200 1025 q 306 1013 282 1025 q 349 988 329 1000 q 392 976 368 976 q 422 987 411 976 q 442 1008 432 997 q 467 1018 451 1018 l 550 1018 q 567 1011 561 1018 q 569 993 572 1004 q 553 942 565 971 q 518 884 540 913 q 464 838 496 856 q 389 819 432 819 z "},"j":{"ha":421,"x_min":-211,"x_max":465,"o":"m -182 -264 q -204 -253 -197 -264 q -208 -229 -211 -243 l -185 -117 q -170 -92 -182 -101 q -143 -82 -158 -82 l -89 -82 q -20 -53 -44 -82 q 14 19 4 -25 l 156 688 q 171 713 158 703 q 199 722 183 722 l 369 722 q 392 713 385 722 q 397 688 400 703 l 254 14 q 192 -138 236 -76 q 77 -232 147 -200 q -93 -264 7 -264 l -182 -264 m 219 826 q 197 836 204 826 q 190 861 189 846 l 218 986 q 233 1010 221 1000 q 260 1021 246 1021 l 435 1021 q 457 1010 449 1021 q 463 986 465 1000 l 435 861 q 421 836 433 846 q 393 826 408 826 l 219 826 z "},"ȷ":{"ha":556,"x_min":-115,"x_max":535,"o":"m -87 -264 q -108 -253 -100 -264 q -112 -229 -115 -243 l -83 -86 q -69 -61 -81 -71 q -42 -51 -57 -51 l 47 -51 q 103 -38 82 -51 q 135 -2 124 -25 q 153 50 147 21 l 257 533 l 90 533 q 67 543 75 533 q 63 568 60 553 l 88 688 q 103 713 90 703 q 131 722 115 722 l 506 722 q 527 713 519 722 q 532 688 535 703 l 397 50 q 326 -116 376 -46 q 200 -225 275 -186 q 31 -264 125 -264 l -87 -264 z "},"ĵ":{"ha":556,"x_min":-115,"x_max":599,"o":"m -87 -264 q -108 -253 -100 -264 q -112 -229 -115 -243 l -83 -86 q -69 -61 -81 -71 q -42 -51 -57 -51 l 47 -51 q 103 -38 82 -51 q 135 -2 124 -25 q 153 50 147 21 l 257 533 l 90 533 q 67 543 75 533 q 63 568 60 553 l 88 688 q 103 713 90 703 q 131 722 115 722 l 506 722 q 527 713 519 722 q 532 688 535 703 l 397 50 q 326 -116 376 -46 q 200 -225 275 -186 q 31 -264 125 -264 l -87 -264 m 99 826 q 82 846 79 826 q 93 865 83 857 l 272 1018 q 301 1038 289 1033 q 325 1042 313 1042 l 435 1042 q 458 1038 449 1042 q 479 1018 468 1033 l 592 865 q 596 846 599 857 q 571 826 592 826 l 510 826 q 488 828 499 826 q 468 836 478 831 l 361 904 l 226 836 q 203 828 214 831 q 181 826 193 826 l 99 826 z "},"k":{"ha":817,"x_min":-1,"x_max":840,"o":"m 31 0 q 7 10 15 0 q 1 35 -1 21 l 197 951 q 212 976 200 967 q 239 986 224 986 l 399 986 q 422 976 414 986 q 428 951 431 967 l 329 489 l 561 699 q 583 715 572 708 q 614 722 594 722 l 813 722 q 838 703 836 722 q 821 668 840 685 l 514 383 l 718 50 q 719 17 729 33 q 688 0 710 0 l 506 0 q 478 7 488 0 q 464 22 469 14 l 289 306 l 232 35 q 217 10 229 21 q 190 0 206 0 l 31 0 z "},"ķ":{"ha":817,"x_min":-1,"x_max":840,"o":"m 31 0 q 7 10 15 0 q 1 35 -1 21 l 197 951 q 212 976 200 967 q 239 986 224 986 l 399 986 q 422 976 414 986 q 428 951 431 967 l 329 489 l 561 699 q 583 715 572 708 q 614 722 594 722 l 813 722 q 838 703 836 722 q 821 668 840 685 l 514 383 l 718 50 q 719 17 729 33 q 688 0 710 0 l 506 0 q 478 7 488 0 q 464 22 469 14 l 289 306 l 232 35 q 217 10 229 21 q 190 0 206 0 l 31 0 m 142 -326 q 125 -317 131 -326 q 122 -296 119 -308 l 188 -117 q 210 -84 194 -99 q 249 -69 225 -69 l 393 -69 q 410 -78 404 -69 q 414 -97 417 -86 q 411 -104 413 -100 q 407 -112 410 -108 l 301 -287 q 279 -314 293 -301 q 243 -326 265 -326 l 142 -326 z "},"ĸ":{"ha":813,"x_min":18,"x_max":853,"o":"m 49 0 q 26 10 33 0 q 21 35 18 21 l 160 688 q 175 713 163 703 q 203 722 188 722 l 363 722 q 385 713 378 722 q 390 688 393 703 l 339 446 l 597 699 q 621 715 610 708 q 650 722 632 722 l 825 722 q 846 713 839 722 q 850 692 853 704 q 844 679 849 686 q 833 668 839 672 l 524 367 l 735 53 q 741 43 739 49 q 740 32 743 38 q 727 9 739 18 q 703 0 715 0 l 511 0 q 482 8 490 0 q 468 24 474 17 l 301 272 l 251 35 q 236 10 249 21 q 208 0 224 0 l 49 0 z "},"l":{"ha":399,"x_min":-1,"x_max":433,"o":"m 31 0 q 7 10 15 0 q 1 35 -1 21 l 197 951 q 212 976 200 967 q 239 986 224 986 l 403 986 q 426 976 418 986 q 431 951 433 967 l 236 35 q 222 10 233 21 q 194 0 210 0 l 31 0 z "},"ĺ":{"ha":399,"x_min":-1,"x_max":675,"o":"m 31 0 q 7 10 15 0 q 1 35 -1 21 l 197 951 q 212 976 200 967 q 239 986 224 986 l 403 986 q 426 976 418 986 q 431 951 433 967 l 236 35 q 222 10 233 21 q 194 0 210 0 l 31 0 m 264 1042 q 246 1064 242 1042 q 257 1082 249 1075 l 411 1231 q 440 1252 429 1247 q 468 1257 451 1257 l 651 1257 q 672 1232 675 1257 q 661 1213 671 1219 l 446 1061 q 419 1047 432 1051 q 388 1042 407 1042 l 264 1042 z "},"ľ":{"ha":551,"x_min":-1,"x_max":754,"o":"m 31 0 q 7 10 15 0 q 1 35 -1 21 l 197 951 q 212 976 200 967 q 239 986 224 986 l 403 986 q 426 976 418 986 q 431 951 433 967 l 236 35 q 222 10 233 21 q 194 0 210 0 l 31 0 m 479 729 q 463 738 468 729 q 460 760 457 747 l 525 939 q 547 972 532 957 q 586 986 563 986 l 731 986 q 748 978 742 986 q 751 958 754 969 q 749 951 750 956 q 744 943 747 947 l 639 768 q 617 742 631 754 q 581 729 603 729 l 479 729 z "},"ļ":{"ha":399,"x_min":-97,"x_max":433,"o":"m 31 0 q 7 10 15 0 q 1 35 -1 21 l 197 951 q 212 976 200 967 q 239 986 224 986 l 403 986 q 426 976 418 986 q 431 951 433 967 l 236 35 q 222 10 233 21 q 194 0 210 0 l 31 0 m -74 -326 q -90 -317 -85 -326 q -93 -296 -96 -308 l -28 -117 q -6 -84 -21 -99 q 33 -69 10 -69 l 178 -69 q 195 -78 189 -69 q 199 -97 201 -86 q 196 -104 197 -100 q 192 -112 194 -108 l 86 -287 q 64 -314 78 -301 q 28 -326 50 -326 l -74 -326 z "},"ŀ":{"ha":607,"x_min":-1,"x_max":640,"o":"m 31 0 q 7 10 15 0 q 1 35 -1 21 l 197 951 q 212 976 200 967 q 239 986 224 986 l 403 986 q 426 976 418 986 q 431 951 433 967 l 236 35 q 222 10 233 21 q 194 0 210 0 l 31 0 m 431 399 q 410 408 417 399 q 406 431 403 417 l 436 569 q 449 592 439 583 q 474 601 460 601 l 613 601 q 633 592 625 601 q 638 569 640 583 l 608 431 q 594 408 604 417 q 569 399 583 399 l 431 399 z "},"ł":{"ha":476,"x_min":42,"x_max":511,"o":"m 89 0 q 66 10 74 0 q 61 35 58 21 l 132 364 l 85 347 q 67 343 72 343 q 48 351 54 343 q 44 371 42 358 l 67 475 q 78 502 69 493 q 106 517 88 511 l 168 538 l 256 951 q 272 976 260 967 q 299 986 283 986 l 463 986 q 485 976 478 986 q 490 951 493 967 l 422 629 l 469 646 q 488 650 481 650 q 505 642 499 650 q 508 622 511 635 l 488 519 q 474 494 483 503 q 447 478 465 485 l 385 454 l 296 35 q 281 10 293 21 q 253 0 268 0 l 89 0 z "},"m":{"ha":1272,"x_min":-1,"x_max":1225,"o":"m 31 0 q 7 10 15 0 q 1 35 -1 21 l 140 688 q 156 713 143 703 q 183 722 168 722 l 335 722 q 358 713 350 722 q 363 688 365 703 l 353 640 q 405 687 376 665 q 472 722 433 708 q 563 736 510 736 q 694 704 644 736 q 763 617 744 672 q 863 703 807 669 q 996 736 919 736 q 1126 703 1072 736 q 1203 603 1181 671 q 1201 429 1225 536 l 1118 35 q 1103 10 1115 21 q 1076 0 1092 0 l 915 0 q 892 10 900 0 q 886 35 883 21 l 968 419 q 972 497 979 468 q 946 538 965 525 q 896 550 926 550 q 842 538 869 550 q 792 497 814 525 q 760 419 769 468 l 678 35 q 663 10 675 21 q 636 0 651 0 l 475 0 q 451 10 460 0 q 446 35 443 21 l 529 419 q 531 497 539 468 q 504 538 524 525 q 456 550 485 550 q 401 538 429 550 q 351 497 374 525 q 319 421 329 468 l 236 35 q 222 10 233 21 q 196 0 210 0 l 31 0 z "},"n":{"ha":893,"x_min":-1,"x_max":843,"o":"m 31 0 q 7 10 15 0 q 1 35 -1 21 l 140 688 q 156 713 143 703 q 183 722 168 722 l 343 722 q 366 713 358 722 q 371 688 374 703 l 360 635 q 463 707 403 678 q 600 736 524 736 q 744 700 688 736 q 822 594 801 664 q 821 422 843 525 l 738 35 q 723 10 735 21 q 697 0 711 0 l 522 0 q 499 10 507 0 q 493 35 490 21 l 574 414 q 570 516 589 482 q 488 550 551 550 q 382 515 425 550 q 325 414 339 479 l 246 35 q 231 10 243 21 q 204 0 218 0 l 31 0 z "},"ń":{"ha":893,"x_min":-1,"x_max":858,"o":"m 31 0 q 7 10 15 0 q 1 35 -1 21 l 140 688 q 156 713 143 703 q 183 722 168 722 l 343 722 q 366 713 358 722 q 371 688 374 703 l 360 635 q 463 707 403 678 q 600 736 524 736 q 744 700 688 736 q 822 594 801 664 q 821 422 843 525 l 738 35 q 723 10 735 21 q 697 0 711 0 l 522 0 q 499 10 507 0 q 493 35 490 21 l 574 414 q 570 516 589 482 q 488 550 551 550 q 382 515 425 550 q 325 414 339 479 l 246 35 q 231 10 243 21 q 204 0 218 0 l 31 0 m 447 826 q 429 849 425 826 q 440 867 432 860 l 594 1015 q 624 1037 613 1032 q 651 1042 635 1042 l 835 1042 q 856 1017 858 1042 q 844 997 854 1004 l 629 846 q 603 831 615 836 q 571 826 590 826 l 447 826 z "},"ŉ":{"ha":893,"x_min":-36,"x_max":843,"o":"m -12 775 q -31 783 -25 775 q -33 804 -36 792 l 32 983 q 54 1017 39 1001 q 93 1032 69 1032 l 239 1032 q 256 1024 250 1032 q 258 1004 261 1015 q 256 997 257 1001 q 251 989 256 993 l 147 813 q 124 787 138 799 q 88 775 111 775 l -12 775 m 31 0 q 7 10 15 0 q 1 35 -1 21 l 140 688 q 156 713 143 703 q 183 722 168 722 l 343 722 q 366 713 358 722 q 371 688 374 703 l 360 635 q 463 707 403 678 q 600 736 524 736 q 744 700 688 736 q 822 594 801 664 q 821 422 843 525 l 738 35 q 723 10 735 21 q 697 0 711 0 l 522 0 q 499 10 507 0 q 493 35 490 21 l 574 414 q 570 516 589 482 q 488 550 551 550 q 382 515 425 550 q 325 414 339 479 l 246 35 q 231 10 243 21 q 204 0 218 0 l 31 0 z "},"ň":{"ha":893,"x_min":-1,"x_max":843,"o":"m 31 0 q 7 10 15 0 q 1 35 -1 21 l 140 688 q 156 713 143 703 q 183 722 168 722 l 343 722 q 366 713 358 722 q 371 688 374 703 l 360 635 q 463 707 403 678 q 600 736 524 736 q 744 700 688 736 q 822 594 801 664 q 821 422 843 525 l 738 35 q 723 10 735 21 q 697 0 711 0 l 522 0 q 499 10 507 0 q 493 35 490 21 l 574 414 q 570 516 589 482 q 488 550 551 550 q 382 515 425 550 q 325 414 339 479 l 246 35 q 231 10 243 21 q 204 0 218 0 l 31 0 m 476 826 q 454 831 464 826 q 433 850 444 836 l 321 1003 q 317 1021 314 1011 q 325 1036 318 1031 q 342 1042 332 1042 l 401 1042 q 424 1040 414 1042 q 444 1032 435 1038 l 550 964 l 686 1032 q 708 1040 697 1038 q 731 1042 719 1042 l 813 1042 q 831 1022 832 1042 q 818 1004 828 1013 l 640 850 q 612 831 624 836 q 586 826 600 826 l 476 826 z "},"ņ":{"ha":893,"x_min":-1,"x_max":843,"o":"m 31 0 q 7 10 15 0 q 1 35 -1 21 l 140 688 q 156 713 143 703 q 183 722 168 722 l 343 722 q 366 713 358 722 q 371 688 374 703 l 360 635 q 463 707 403 678 q 600 736 524 736 q 744 700 688 736 q 822 594 801 664 q 821 422 843 525 l 738 35 q 723 10 735 21 q 697 0 711 0 l 522 0 q 499 10 507 0 q 493 35 490 21 l 574 414 q 570 516 589 482 q 488 550 551 550 q 382 515 425 550 q 325 414 339 479 l 246 35 q 231 10 243 21 q 204 0 218 0 l 31 0 m 178 -326 q 161 -317 167 -326 q 158 -296 156 -308 l 224 -117 q 246 -84 231 -99 q 285 -69 261 -69 l 429 -69 q 447 -78 440 -69 q 450 -97 453 -86 q 447 -104 449 -100 q 443 -112 446 -108 l 338 -287 q 315 -314 329 -301 q 279 -326 301 -326 l 178 -326 z "},"ñ":{"ha":893,"x_min":-1,"x_max":843,"o":"m 31 0 q 7 10 15 0 q 1 35 -1 21 l 140 688 q 156 713 143 703 q 183 722 168 722 l 343 722 q 366 713 358 722 q 371 688 374 703 l 360 635 q 463 707 403 678 q 600 736 524 736 q 744 700 688 736 q 822 594 801 664 q 821 422 843 525 l 738 35 q 723 10 735 21 q 697 0 711 0 l 522 0 q 499 10 507 0 q 493 35 490 21 l 574 414 q 570 516 589 482 q 488 550 551 550 q 382 515 425 550 q 325 414 339 479 l 246 35 q 231 10 243 21 q 204 0 218 0 l 31 0 m 632 819 q 569 832 593 819 q 527 856 546 844 q 483 868 508 868 q 453 858 465 868 q 432 838 442 849 q 407 826 422 826 l 324 826 q 308 834 314 826 q 304 850 303 842 q 321 902 308 872 q 356 960 333 932 q 410 1006 378 988 q 486 1025 443 1025 q 549 1013 525 1025 q 592 988 572 1000 q 635 976 611 976 q 665 987 654 976 q 685 1008 675 997 q 710 1018 694 1018 l 793 1018 q 810 1011 804 1018 q 813 993 815 1004 q 796 942 808 971 q 761 884 783 913 q 707 838 739 856 q 632 819 675 819 z "},"ŋ":{"ha":893,"x_min":-1,"x_max":843,"o":"m 279 -312 q 257 -302 265 -312 q 251 -278 249 -292 l 281 -140 q 296 -116 283 -126 q 324 -106 308 -106 l 358 -106 q 424 -92 399 -106 q 466 -49 450 -78 q 490 22 482 -21 l 574 414 q 570 516 589 482 q 488 550 551 550 q 382 515 425 550 q 325 414 339 479 l 246 35 q 231 10 243 21 q 204 0 218 0 l 31 0 q 7 10 15 0 q 1 35 -1 21 l 140 688 q 156 713 143 703 q 183 722 168 722 l 343 722 q 366 713 358 722 q 371 688 374 703 l 360 635 q 463 707 403 678 q 600 736 524 736 q 744 700 688 736 q 822 594 801 664 q 821 422 843 525 l 733 13 q 658 -167 711 -94 q 519 -276 604 -239 q 315 -312 435 -312 l 279 -312 z "},"o":{"ha":846,"x_min":17,"x_max":808,"o":"m 343 -14 q 157 24 232 -14 q 49 131 82 61 q 32 299 17 201 q 42 362 35 326 q 58 424 50 397 q 139 592 85 522 q 278 699 193 661 q 479 736 364 736 q 664 699 589 736 q 774 592 739 661 q 793 424 808 522 q 781 362 788 397 q 767 299 774 326 q 688 131 740 201 q 550 24 635 61 q 343 -14 465 -14 m 364 156 q 465 193 426 156 q 524 306 504 231 q 537 361 529 326 q 547 417 544 396 q 540 528 560 490 q 458 567 521 567 q 360 528 399 567 q 301 417 321 490 q 288 361 296 396 q 278 306 281 326 q 284 193 265 231 q 364 156 303 156 z "},"ó":{"ha":846,"x_min":17,"x_max":835,"o":"m 343 -14 q 157 24 232 -14 q 49 131 82 61 q 32 299 17 201 q 42 362 35 326 q 58 424 50 397 q 139 592 85 522 q 278 699 193 661 q 479 736 364 736 q 664 699 589 736 q 774 592 739 661 q 793 424 808 522 q 781 362 788 397 q 767 299 774 326 q 688 131 740 201 q 550 24 635 61 q 343 -14 465 -14 m 364 156 q 465 193 426 156 q 524 306 504 231 q 537 361 529 326 q 547 417 544 396 q 540 528 560 490 q 458 567 521 567 q 360 528 399 567 q 301 417 321 490 q 288 361 296 396 q 278 306 281 326 q 284 193 265 231 q 364 156 303 156 m 424 826 q 406 849 401 826 q 417 867 408 860 l 571 1015 q 600 1037 589 1032 q 628 1042 611 1042 l 811 1042 q 832 1017 835 1042 q 821 997 831 1004 l 606 846 q 579 831 592 836 q 547 826 567 826 l 424 826 z "},"ŏ":{"ha":846,"x_min":17,"x_max":808,"o":"m 343 -14 q 157 24 232 -14 q 49 131 82 61 q 32 299 17 201 q 42 362 35 326 q 58 424 50 397 q 139 592 85 522 q 278 699 193 661 q 479 736 364 736 q 664 699 589 736 q 774 592 739 661 q 793 424 808 522 q 781 362 788 397 q 767 299 774 326 q 688 131 740 201 q 550 24 635 61 q 343 -14 465 -14 m 364 156 q 465 193 426 156 q 524 306 504 231 q 537 361 529 326 q 547 417 544 396 q 540 528 560 490 q 458 567 521 567 q 360 528 399 567 q 301 417 321 490 q 288 361 296 396 q 278 306 281 326 q 284 193 265 231 q 364 156 303 156 m 518 819 q 409 846 453 819 q 347 917 365 872 q 340 1015 329 961 q 351 1034 343 1026 q 372 1042 360 1042 l 461 1042 q 479 1034 474 1042 q 482 1015 485 1026 q 484 958 476 983 q 528 933 492 933 q 585 958 567 933 q 611 1015 604 983 q 622 1034 614 1026 q 643 1042 631 1042 l 733 1042 q 751 1034 746 1042 q 754 1015 757 1026 q 716 917 743 961 q 641 846 689 872 q 518 819 593 819 z "},"ô":{"ha":846,"x_min":17,"x_max":808,"o":"m 343 -14 q 157 24 232 -14 q 49 131 82 61 q 32 299 17 201 q 42 362 35 326 q 58 424 50 397 q 139 592 85 522 q 278 699 193 661 q 479 736 364 736 q 664 699 589 736 q 774 592 739 661 q 793 424 808 522 q 781 362 788 397 q 767 299 774 326 q 688 131 740 201 q 550 24 635 61 q 343 -14 465 -14 m 364 156 q 465 193 426 156 q 524 306 504 231 q 537 361 529 326 q 547 417 544 396 q 540 528 560 490 q 458 567 521 567 q 360 528 399 567 q 301 417 321 490 q 288 361 296 396 q 278 306 281 326 q 284 193 265 231 q 364 156 303 156 m 265 826 q 249 846 246 826 q 260 865 250 857 l 439 1018 q 467 1038 456 1033 q 492 1042 479 1042 l 601 1042 q 625 1038 615 1042 q 646 1018 635 1033 l 758 865 q 763 846 765 857 q 738 826 758 826 l 676 826 q 655 828 665 826 q 635 836 644 831 l 528 904 l 393 836 q 370 828 381 831 q 347 826 360 826 l 265 826 z "},"ö":{"ha":846,"x_min":17,"x_max":808,"o":"m 343 -14 q 157 24 232 -14 q 49 131 82 61 q 32 299 17 201 q 42 362 35 326 q 58 424 50 397 q 139 592 85 522 q 278 699 193 661 q 479 736 364 736 q 664 699 589 736 q 774 592 739 661 q 793 424 808 522 q 781 362 788 397 q 767 299 774 326 q 688 131 740 201 q 550 24 635 61 q 343 -14 465 -14 m 364 156 q 465 193 426 156 q 524 306 504 231 q 537 361 529 326 q 547 417 544 396 q 540 528 560 490 q 458 567 521 567 q 360 528 399 567 q 301 417 321 490 q 288 361 296 396 q 278 306 281 326 q 284 193 265 231 q 364 156 303 156 m 590 843 q 569 852 576 843 q 565 875 563 861 l 592 1001 q 606 1024 594 1015 q 631 1033 617 1033 l 757 1033 q 778 1024 771 1033 q 783 1001 786 1015 l 756 875 q 742 852 753 861 q 718 843 732 843 l 590 843 m 303 843 q 282 852 289 843 q 278 875 275 861 l 306 1001 q 319 1024 308 1015 q 343 1033 329 1033 l 471 1033 q 492 1024 485 1033 q 496 1001 499 1015 l 468 875 q 455 852 465 861 q 431 843 444 843 l 303 843 z "},"ò":{"ha":846,"x_min":17,"x_max":808,"o":"m 343 -14 q 157 24 232 -14 q 49 131 82 61 q 32 299 17 201 q 42 362 35 326 q 58 424 50 397 q 139 592 85 522 q 278 699 193 661 q 479 736 364 736 q 664 699 589 736 q 774 592 739 661 q 793 424 808 522 q 781 362 788 397 q 767 299 774 326 q 688 131 740 201 q 550 24 635 61 q 343 -14 465 -14 m 364 156 q 465 193 426 156 q 524 306 504 231 q 537 361 529 326 q 547 417 544 396 q 540 528 560 490 q 458 567 521 567 q 360 528 399 567 q 301 417 321 490 q 288 361 296 396 q 278 306 281 326 q 284 193 265 231 q 364 156 303 156 m 464 826 q 435 831 444 826 q 415 846 425 836 l 264 996 q 260 1015 258 1004 q 290 1042 264 1042 l 483 1042 q 510 1037 500 1042 q 529 1015 519 1032 l 619 868 q 622 849 625 860 q 596 826 618 826 l 464 826 z "},"ő":{"ha":846,"x_min":17,"x_max":915,"o":"m 343 -14 q 157 24 232 -14 q 49 131 82 61 q 32 299 17 201 q 42 362 35 326 q 58 424 50 397 q 139 592 85 522 q 278 699 193 661 q 479 736 364 736 q 664 699 589 736 q 774 592 739 661 q 793 424 808 522 q 781 362 788 397 q 767 299 774 326 q 688 131 740 201 q 550 24 635 61 q 343 -14 465 -14 m 364 156 q 465 193 426 156 q 524 306 504 231 q 537 361 529 326 q 547 417 544 396 q 540 528 560 490 q 458 567 521 567 q 360 528 399 567 q 301 417 321 490 q 288 361 296 396 q 278 306 281 326 q 284 193 265 231 q 364 156 303 156 m 596 826 q 576 846 574 826 q 581 856 578 851 q 588 865 585 861 l 686 1015 q 708 1035 696 1029 q 743 1042 721 1042 l 889 1042 q 911 1018 915 1042 q 900 999 910 1007 l 731 846 q 682 826 708 826 l 596 826 m 299 826 q 281 846 278 826 q 284 856 281 851 q 290 865 288 861 l 389 1015 q 411 1035 399 1029 q 446 1042 424 1042 l 592 1042 q 614 1018 618 1042 q 603 999 614 1007 l 433 846 q 385 826 411 826 l 299 826 z "},"ō":{"ha":846,"x_min":17,"x_max":808,"o":"m 343 -14 q 157 24 232 -14 q 49 131 82 61 q 32 299 17 201 q 42 362 35 326 q 58 424 50 397 q 139 592 85 522 q 278 699 193 661 q 479 736 364 736 q 664 699 589 736 q 774 592 739 661 q 793 424 808 522 q 781 362 788 397 q 767 299 774 326 q 688 131 740 201 q 550 24 635 61 q 343 -14 465 -14 m 364 156 q 465 193 426 156 q 524 306 504 231 q 537 361 529 326 q 547 417 544 396 q 540 528 560 490 q 458 567 521 567 q 360 528 399 567 q 301 417 321 490 q 288 361 296 396 q 278 306 281 326 q 284 193 265 231 q 364 156 303 156 m 314 840 q 293 849 300 840 q 289 872 286 858 l 310 969 q 324 992 313 983 q 349 1001 335 1001 l 736 1001 q 756 992 750 1001 q 760 969 763 983 l 739 872 q 726 849 738 858 q 701 840 715 840 l 314 840 z "},"ø":{"ha":846,"x_min":-21,"x_max":858,"o":"m 343 -14 q 157 24 232 -14 q 49 131 82 61 q 32 299 17 201 q 42 362 35 326 q 58 424 50 397 q 139 592 85 522 q 278 699 193 661 q 479 736 364 736 q 664 699 589 736 q 774 592 739 661 q 793 424 808 522 q 781 362 788 397 q 767 299 774 326 q 688 131 740 201 q 550 24 635 61 q 343 -14 465 -14 m 364 156 q 465 193 426 156 q 524 306 504 231 q 537 361 529 326 q 547 417 544 396 q 540 528 560 490 q 458 567 521 567 q 360 528 399 567 q 301 417 321 490 q 288 361 296 396 q 278 306 281 326 q 284 193 265 231 q 364 156 303 156 m 6 -39 q -12 -32 -4 -39 q -21 -14 -21 -25 q -7 11 -21 -3 l 749 739 q 768 753 758 747 q 792 760 778 760 l 835 760 q 851 752 843 760 q 860 735 860 744 q 849 711 860 722 l 90 -18 q 72 -33 82 -26 q 47 -39 63 -39 l 6 -39 z "},"ǿ":{"ha":846,"x_min":-21,"x_max":858,"o":"m 343 -14 q 157 24 232 -14 q 49 131 82 61 q 32 299 17 201 q 42 362 35 326 q 58 424 50 397 q 139 592 85 522 q 278 699 193 661 q 479 736 364 736 q 664 699 589 736 q 774 592 739 661 q 793 424 808 522 q 781 362 788 397 q 767 299 774 326 q 688 131 740 201 q 550 24 635 61 q 343 -14 465 -14 m 364 156 q 465 193 426 156 q 524 306 504 231 q 537 361 529 326 q 547 417 544 396 q 540 528 560 490 q 458 567 521 567 q 360 528 399 567 q 301 417 321 490 q 288 361 296 396 q 278 306 281 326 q 284 193 265 231 q 364 156 303 156 m 6 -39 q -12 -32 -4 -39 q -21 -14 -21 -25 q -7 11 -21 -3 l 749 739 q 768 753 758 747 q 792 760 778 760 l 835 760 q 851 752 843 760 q 860 735 860 744 q 849 711 860 722 l 90 -18 q 72 -33 82 -26 q 47 -39 63 -39 l 6 -39 m 439 826 q 421 849 417 826 q 432 867 424 860 l 586 1015 q 615 1037 604 1032 q 643 1042 626 1042 l 826 1042 q 847 1017 850 1042 q 836 997 846 1004 l 621 846 q 594 831 607 836 q 563 826 582 826 l 439 826 z "},"õ":{"ha":846,"x_min":17,"x_max":808,"o":"m 343 -14 q 157 24 232 -14 q 49 131 82 61 q 32 299 17 201 q 42 362 35 326 q 58 424 50 397 q 139 592 85 522 q 278 699 193 661 q 479 736 364 736 q 664 699 589 736 q 774 592 739 661 q 793 424 808 522 q 781 362 788 397 q 767 299 774 326 q 688 131 740 201 q 550 24 635 61 q 343 -14 465 -14 m 364 156 q 465 193 426 156 q 524 306 504 231 q 537 361 529 326 q 547 417 544 396 q 540 528 560 490 q 458 567 521 567 q 360 528 399 567 q 301 417 321 490 q 288 361 296 396 q 278 306 281 326 q 284 193 265 231 q 364 156 303 156 m 608 819 q 546 832 569 819 q 503 856 522 844 q 460 868 485 868 q 430 858 442 868 q 408 838 418 849 q 383 826 399 826 l 300 826 q 285 834 290 826 q 281 850 279 842 q 297 902 285 872 q 332 960 310 932 q 387 1006 354 988 q 463 1025 419 1025 q 525 1013 501 1025 q 568 988 549 1000 q 611 976 588 976 q 641 987 631 976 q 661 1008 651 997 q 686 1018 671 1018 l 769 1018 q 786 1011 781 1018 q 789 993 792 1004 q 772 942 785 971 q 738 884 760 913 q 683 838 715 856 q 608 819 651 819 z "},"œ":{"ha":1321,"x_min":38,"x_max":1307,"o":"m 354 -14 q 165 24 236 -14 q 65 131 93 61 q 53 299 38 201 q 65 362 57 326 q 79 424 72 397 q 165 592 106 522 q 313 699 224 661 q 514 736 401 736 q 653 713 596 736 q 746 647 711 689 q 862 713 797 689 q 1000 736 926 736 q 1192 688 1122 736 q 1285 556 1263 639 q 1285 365 1307 472 l 1278 332 q 1261 307 1274 317 q 1235 297 1249 297 l 790 297 l 788 288 q 786 214 781 247 q 814 161 792 181 q 874 142 836 142 q 919 151 899 142 q 955 172 940 160 q 979 192 969 183 q 1003 210 994 207 q 1028 214 1011 214 l 1200 214 q 1221 206 1214 214 q 1224 183 1228 197 q 1189 126 1218 160 q 1110 60 1160 93 q 993 7 1061 28 q 842 -14 925 -14 q 711 8 767 -14 q 622 72 656 31 q 504 9 571 32 q 354 -14 438 -14 m 389 156 q 488 193 451 156 q 546 306 525 231 q 558 361 551 326 q 568 417 565 396 q 560 528 581 490 q 478 567 539 567 q 379 528 417 567 q 322 417 342 490 q 310 361 317 396 q 300 306 303 326 q 308 193 286 231 q 389 156 329 156 m 819 435 l 1054 435 l 1056 438 q 1058 516 1065 483 q 1028 567 1050 549 q 968 585 1006 585 q 901 567 931 585 q 851 516 871 549 q 821 438 831 483 l 819 435 z "},"p":{"ha":875,"x_min":-57,"x_max":832,"o":"m -26 -264 q -49 -253 -42 -264 q -54 -229 -57 -243 l 140 688 q 156 713 143 703 q 183 722 168 722 l 339 722 q 362 713 354 722 q 367 688 369 703 l 357 638 q 449 708 399 679 q 581 736 500 736 q 699 715 649 736 q 781 651 750 693 q 822 548 813 608 q 819 410 832 488 q 810 362 815 383 q 799 313 806 340 q 748 178 779 239 q 672 75 717 118 q 571 9 628 32 q 444 -14 514 -14 q 324 10 374 -14 q 251 79 274 35 l 185 -229 q 170 -253 182 -243 q 143 -264 158 -264 l -26 -264 m 396 172 q 472 192 442 172 q 523 244 503 211 q 556 318 543 278 q 567 361 563 339 q 574 404 572 383 q 575 478 579 444 q 550 531 571 511 q 483 550 529 550 q 405 530 439 550 q 351 478 371 510 q 321 408 331 446 q 308 357 313 382 q 299 304 303 332 q 299 240 293 269 q 329 191 306 210 q 396 172 353 172 z "},"þ":{"ha":875,"x_min":-57,"x_max":832,"o":"m -26 -264 q -49 -253 -42 -264 q -54 -229 -57 -243 l 197 951 q 212 976 200 967 q 239 986 224 986 l 408 986 q 432 976 424 986 q 438 951 440 967 l 371 646 q 453 709 406 682 q 581 736 500 736 q 699 715 649 736 q 781 651 750 693 q 822 548 813 608 q 819 410 832 488 q 810 362 815 383 q 799 313 806 340 q 748 178 779 239 q 672 75 717 118 q 571 9 628 32 q 444 -14 514 -14 q 324 11 374 -14 q 251 79 274 36 l 185 -229 q 170 -253 182 -243 q 143 -264 158 -264 l -26 -264 m 396 172 q 472 192 442 172 q 523 244 503 211 q 556 318 543 278 q 567 361 563 339 q 574 404 572 383 q 575 478 579 444 q 550 531 571 511 q 483 550 529 550 q 405 530 439 550 q 351 478 371 510 q 321 408 331 446 q 308 357 313 382 q 299 304 303 332 q 299 240 293 269 q 329 191 306 210 q 396 172 353 172 z "},"q":{"ha":876,"x_min":22,"x_max":856,"o":"m 446 -264 q 424 -253 432 -264 q 419 -229 417 -243 l 485 79 q 394 10 443 35 q 275 -14 344 -14 q 156 9 207 -14 q 74 74 106 32 q 33 175 43 115 q 35 310 22 235 q 45 361 40 338 q 57 413 50 385 q 132 588 83 515 q 250 698 181 660 q 411 736 319 736 q 540 708 488 736 q 615 638 593 679 l 626 688 q 642 713 629 703 q 669 722 654 722 l 825 722 q 848 713 840 722 q 853 688 856 703 l 658 -229 q 643 -253 656 -243 q 615 -264 631 -264 l 446 -264 m 371 172 q 448 191 415 172 q 502 240 481 210 q 532 304 524 269 q 544 357 539 332 q 554 408 550 382 q 555 478 561 446 q 526 530 549 510 q 458 550 504 550 q 383 531 414 550 q 332 478 351 511 q 300 404 313 444 q 290 361 294 383 q 282 318 285 339 q 280 244 276 278 q 304 192 283 211 q 371 172 325 172 z "},"r":{"ha":633,"x_min":-1,"x_max":675,"o":"m 31 0 q 7 10 15 0 q 1 35 -1 21 l 140 688 q 156 712 143 701 q 183 722 168 722 l 343 722 q 366 712 358 722 q 371 688 374 701 l 360 632 q 443 698 393 674 q 568 722 493 722 l 646 722 q 668 713 661 722 q 672 688 675 703 l 643 544 q 628 520 640 531 q 600 510 615 510 l 467 510 q 372 478 408 510 q 321 390 335 447 l 246 35 q 231 10 243 21 q 203 0 218 0 l 31 0 z "},"ŕ":{"ha":633,"x_min":-1,"x_max":753,"o":"m 31 0 q 7 10 15 0 q 1 35 -1 21 l 140 688 q 156 712 143 701 q 183 722 168 722 l 343 722 q 366 712 358 722 q 371 688 374 701 l 360 632 q 443 698 393 674 q 568 722 493 722 l 646 722 q 668 713 661 722 q 672 688 675 703 l 643 544 q 628 520 640 531 q 600 510 615 510 l 467 510 q 372 478 408 510 q 321 390 335 447 l 246 35 q 231 10 243 21 q 203 0 218 0 l 31 0 m 342 826 q 324 849 319 826 q 335 867 326 860 l 489 1015 q 518 1037 507 1032 q 546 1042 529 1042 l 729 1042 q 750 1017 753 1042 q 739 997 749 1004 l 524 846 q 497 831 510 836 q 465 826 485 826 l 342 826 z "},"ř":{"ha":633,"x_min":-1,"x_max":726,"o":"m 31 0 q 7 10 15 0 q 1 35 -1 21 l 140 688 q 156 712 143 701 q 183 722 168 722 l 343 722 q 366 712 358 722 q 371 688 374 701 l 360 632 q 443 698 393 674 q 568 722 493 722 l 646 722 q 668 713 661 722 q 672 688 675 703 l 643 544 q 628 520 640 531 q 600 510 615 510 l 467 510 q 372 478 408 510 q 321 390 335 447 l 246 35 q 231 10 243 21 q 203 0 218 0 l 31 0 m 371 826 q 349 831 358 826 q 328 850 339 836 l 215 1003 q 211 1021 208 1011 q 219 1036 213 1031 q 236 1042 226 1042 l 296 1042 q 319 1040 308 1042 q 339 1032 329 1038 l 444 964 l 581 1032 q 603 1040 592 1038 q 625 1042 614 1042 l 707 1042 q 725 1022 726 1042 q 713 1004 722 1013 l 535 850 q 506 831 518 836 q 481 826 494 826 l 371 826 z "},"ŗ":{"ha":633,"x_min":-89,"x_max":675,"o":"m 31 0 q 7 10 15 0 q 1 35 -1 21 l 140 688 q 156 712 143 701 q 183 722 168 722 l 343 722 q 366 712 358 722 q 371 688 374 701 l 360 632 q 443 698 393 674 q 568 722 493 722 l 646 722 q 668 713 661 722 q 672 688 675 703 l 643 544 q 628 520 640 531 q 600 510 615 510 l 467 510 q 372 478 408 510 q 321 390 335 447 l 246 35 q 231 10 243 21 q 203 0 218 0 l 31 0 m -67 -326 q -83 -317 -78 -326 q -86 -296 -89 -308 l -21 -117 q 1 -84 -14 -99 q 40 -69 17 -69 l 185 -69 q 202 -78 196 -69 q 206 -97 208 -86 q 203 -104 204 -100 q 199 -112 201 -108 l 93 -287 q 71 -314 85 -301 q 35 -326 57 -326 l -67 -326 z "},"s":{"ha":768,"x_min":8,"x_max":750,"o":"m 308 -14 q 159 6 218 -14 q 67 56 100 26 q 21 116 33 85 q 13 171 8 147 q 27 196 15 186 q 51 206 39 206 l 210 206 q 217 204 214 206 q 224 199 221 203 q 255 174 240 189 q 291 149 269 160 q 347 138 313 138 q 415 153 385 138 q 451 199 446 169 q 447 235 457 221 q 401 264 436 250 q 293 292 367 278 q 176 335 224 308 q 108 406 128 363 q 101 513 89 450 q 160 619 114 568 q 283 703 206 671 q 463 736 360 736 q 597 717 542 736 q 688 669 653 699 q 736 610 722 640 q 746 554 750 579 q 733 530 744 540 q 708 519 721 519 l 564 519 q 553 522 558 519 q 546 526 549 524 q 515 549 529 535 q 482 574 501 563 q 429 585 463 585 q 367 568 392 585 q 338 525 343 551 q 342 492 333 507 q 384 464 350 476 q 493 436 418 451 q 635 387 586 421 q 699 308 685 353 q 704 213 714 263 q 639 94 690 146 q 504 15 588 43 q 308 -14 421 -14 z "},"ś":{"ha":768,"x_min":8,"x_max":788,"o":"m 308 -14 q 159 6 218 -14 q 67 56 100 26 q 21 116 33 85 q 13 171 8 147 q 27 196 15 186 q 51 206 39 206 l 210 206 q 217 204 214 206 q 224 199 221 203 q 255 174 240 189 q 291 149 269 160 q 347 138 313 138 q 415 153 385 138 q 451 199 446 169 q 447 235 457 221 q 401 264 436 250 q 293 292 367 278 q 176 335 224 308 q 108 406 128 363 q 101 513 89 450 q 160 619 114 568 q 283 703 206 671 q 463 736 360 736 q 597 717 542 736 q 688 669 653 699 q 736 610 722 640 q 746 554 750 579 q 733 530 744 540 q 708 519 721 519 l 564 519 q 553 522 558 519 q 546 526 549 524 q 515 549 529 535 q 482 574 501 563 q 429 585 463 585 q 367 568 392 585 q 338 525 343 551 q 342 492 333 507 q 384 464 350 476 q 493 436 418 451 q 635 387 586 421 q 699 308 685 353 q 704 213 714 263 q 639 94 690 146 q 504 15 588 43 q 308 -14 421 -14 m 376 826 q 358 849 354 826 q 369 867 361 860 l 524 1015 q 553 1037 542 1032 q 581 1042 564 1042 l 764 1042 q 785 1017 788 1042 q 774 997 783 1004 l 558 846 q 532 831 544 836 q 500 826 519 826 l 376 826 z "},"š":{"ha":768,"x_min":8,"x_max":761,"o":"m 308 -14 q 159 6 218 -14 q 67 56 100 26 q 21 116 33 85 q 13 171 8 147 q 27 196 15 186 q 51 206 39 206 l 210 206 q 217 204 214 206 q 224 199 221 203 q 255 174 240 189 q 291 149 269 160 q 347 138 313 138 q 415 153 385 138 q 451 199 446 169 q 447 235 457 221 q 401 264 436 250 q 293 292 367 278 q 176 335 224 308 q 108 406 128 363 q 101 513 89 450 q 160 619 114 568 q 283 703 206 671 q 463 736 360 736 q 597 717 542 736 q 688 669 653 699 q 736 610 722 640 q 746 554 750 579 q 733 530 744 540 q 708 519 721 519 l 564 519 q 553 522 558 519 q 546 526 549 524 q 515 549 529 535 q 482 574 501 563 q 429 585 463 585 q 367 568 392 585 q 338 525 343 551 q 342 492 333 507 q 384 464 350 476 q 493 436 418 451 q 635 387 586 421 q 699 308 685 353 q 704 213 714 263 q 639 94 690 146 q 504 15 588 43 q 308 -14 421 -14 m 406 826 q 383 831 393 826 q 363 850 374 836 l 250 1003 q 246 1021 243 1011 q 254 1036 247 1031 q 271 1042 261 1042 l 331 1042 q 353 1040 343 1042 q 374 1032 364 1038 l 479 964 l 615 1032 q 638 1040 626 1038 q 660 1042 649 1042 l 742 1042 q 760 1022 761 1042 q 747 1004 757 1013 l 569 850 q 541 831 553 836 q 515 826 529 826 l 406 826 z "},"ş":{"ha":768,"x_min":7,"x_max":750,"o":"m 282 -306 q 217 -293 244 -306 q 181 -264 190 -281 q 188 -235 172 -247 l 218 -212 q 240 -205 232 -201 q 261 -216 249 -208 q 300 -224 274 -224 q 337 -212 321 -224 q 356 -182 353 -200 q 350 -153 360 -165 q 318 -142 340 -142 q 292 -147 306 -142 q 266 -152 278 -151 q 246 -144 254 -153 l 225 -117 q 220 -98 218 -108 q 232 -72 222 -87 l 271 -12 q 108 30 167 -3 q 28 102 50 63 q 13 171 7 142 q 27 196 15 186 q 51 206 39 206 l 203 206 q 213 204 208 206 q 221 199 217 203 q 253 174 238 189 q 290 149 268 160 q 347 138 313 138 q 415 153 385 138 q 451 199 446 169 q 447 235 457 221 q 401 264 436 250 q 293 292 367 278 q 176 335 224 308 q 108 406 128 363 q 101 513 89 450 q 160 619 114 568 q 283 703 206 671 q 463 736 360 736 q 597 717 542 736 q 688 669 653 699 q 736 610 722 640 q 746 554 750 579 q 733 530 744 540 q 708 519 721 519 l 563 519 q 552 522 556 519 q 546 526 549 524 q 515 549 529 535 q 482 574 501 563 q 429 585 463 585 q 367 568 392 585 q 338 525 343 551 q 342 492 333 507 q 384 464 350 476 q 493 436 418 451 q 635 387 586 421 q 699 308 685 353 q 704 213 714 263 q 592 58 683 119 q 351 -12 501 -4 l 318 -67 q 341 -62 328 -64 q 360 -61 354 -61 q 433 -94 411 -61 q 444 -182 456 -128 q 390 -270 433 -235 q 282 -306 346 -306 z "},"ŝ":{"ha":768,"x_min":8,"x_max":750,"o":"m 308 -14 q 159 6 218 -14 q 67 56 100 26 q 21 116 33 85 q 13 171 8 147 q 27 196 15 186 q 51 206 39 206 l 210 206 q 217 204 214 206 q 224 199 221 203 q 255 174 240 189 q 291 149 269 160 q 347 138 313 138 q 415 153 385 138 q 451 199 446 169 q 447 235 457 221 q 401 264 436 250 q 293 292 367 278 q 176 335 224 308 q 108 406 128 363 q 101 513 89 450 q 160 619 114 568 q 283 703 206 671 q 463 736 360 736 q 597 717 542 736 q 688 669 653 699 q 736 610 722 640 q 746 554 750 579 q 733 530 744 540 q 708 519 721 519 l 564 519 q 553 522 558 519 q 546 526 549 524 q 515 549 529 535 q 482 574 501 563 q 429 585 463 585 q 367 568 392 585 q 338 525 343 551 q 342 492 333 507 q 384 464 350 476 q 493 436 418 451 q 635 387 586 421 q 699 308 685 353 q 704 213 714 263 q 639 94 690 146 q 504 15 588 43 q 308 -14 421 -14 m 218 826 q 201 846 199 826 q 213 865 203 857 l 392 1018 q 420 1038 408 1033 q 444 1042 432 1042 l 554 1042 q 578 1038 568 1042 q 599 1018 588 1033 l 711 865 q 715 846 718 857 q 690 826 711 826 l 629 826 q 608 828 618 826 q 588 836 597 831 l 481 904 l 346 836 q 323 828 333 831 q 300 826 313 826 l 218 826 z "},"ș":{"ha":768,"x_min":8,"x_max":750,"o":"m 308 -14 q 159 6 218 -14 q 67 56 100 26 q 21 116 33 85 q 13 171 8 147 q 27 196 15 186 q 51 206 39 206 l 210 206 q 217 204 214 206 q 224 199 221 203 q 255 174 240 189 q 291 149 269 160 q 347 138 313 138 q 415 153 385 138 q 451 199 446 169 q 447 235 457 221 q 401 264 436 250 q 293 292 367 278 q 176 335 224 308 q 108 406 128 363 q 101 513 89 450 q 160 619 114 568 q 283 703 206 671 q 463 736 360 736 q 597 717 542 736 q 688 669 653 699 q 736 610 722 640 q 746 554 750 579 q 733 530 744 540 q 708 519 721 519 l 564 519 q 553 522 558 519 q 546 526 549 524 q 515 549 529 535 q 482 574 501 563 q 429 585 463 585 q 367 568 392 585 q 338 525 343 551 q 342 492 333 507 q 384 464 350 476 q 493 436 418 451 q 635 387 586 421 q 699 308 685 353 q 704 213 714 263 q 639 94 690 146 q 504 15 588 43 q 308 -14 421 -14 m 128 -326 q 111 -317 117 -326 q 108 -296 106 -308 l 174 -117 q 196 -84 181 -99 q 235 -69 211 -69 l 379 -69 q 397 -78 390 -69 q 400 -97 403 -86 q 397 -104 399 -100 q 393 -112 396 -108 l 288 -287 q 265 -314 279 -301 q 229 -326 251 -326 l 128 -326 z "},"ß":{"ha":888,"x_min":19,"x_max":894,"o":"m 49 0 q 26 10 33 0 q 22 35 19 21 l 153 654 q 226 821 174 746 q 369 941 279 896 q 585 986 458 986 q 781 946 713 986 q 872 842 850 906 q 879 711 894 779 q 849 629 869 665 q 801 567 829 593 q 742 522 774 540 q 810 470 786 503 q 839 393 833 438 q 832 293 844 349 q 789 190 821 242 q 706 96 757 139 q 581 26 654 53 q 414 0 508 0 l 344 0 q 317 10 325 0 q 313 35 310 21 l 335 142 q 351 166 338 156 q 382 176 364 176 l 418 176 q 531 212 486 176 q 588 303 576 247 q 571 393 600 357 q 468 429 542 429 l 432 429 q 408 439 414 429 q 404 464 401 449 l 424 557 q 435 581 426 571 q 467 592 444 592 l 497 592 q 603 622 563 593 q 653 700 643 650 q 634 778 663 747 q 547 810 606 810 q 447 773 489 810 q 388 657 404 736 l 254 35 q 239 10 251 21 q 213 0 226 0 l 49 0 z "},"ſ":{"ha":475,"x_min":53,"x_max":736,"o":"m 110 0 q 88 10 96 0 q 82 35 79 21 l 190 540 l 83 540 q 61 550 69 540 q 56 575 53 560 l 79 688 q 94 713 82 703 q 122 722 107 722 l 228 722 l 238 767 q 304 919 258 861 q 419 1002 350 976 q 578 1028 488 1028 l 706 1028 q 728 1018 721 1028 q 733 993 736 1008 l 708 881 q 694 856 706 865 q 667 846 682 846 l 574 846 q 501 824 526 846 q 467 760 475 801 l 313 35 q 298 10 310 21 q 271 0 286 0 l 110 0 z "},"t":{"ha":642,"x_min":47,"x_max":660,"o":"m 374 0 q 216 28 278 0 q 132 117 154 57 q 129 274 110 178 l 186 540 l 78 540 q 55 550 63 540 q 50 575 47 560 l 74 688 q 89 713 76 703 q 115 722 101 722 l 225 722 l 274 951 q 289 976 276 967 q 315 986 301 986 l 476 986 q 499 976 492 986 q 504 951 507 967 l 456 722 l 629 722 q 652 713 644 722 q 657 688 660 703 l 633 575 q 618 550 631 560 q 592 540 606 540 l 417 540 l 364 293 q 358 239 358 263 q 372 203 358 215 q 419 190 386 190 l 529 190 q 551 181 544 190 q 556 156 558 171 l 531 35 q 516 10 528 21 q 489 0 504 0 l 374 0 z "},"ŧ":{"ha":649,"x_min":19,"x_max":664,"o":"m 371 0 q 214 28 274 0 q 134 117 154 57 q 135 274 114 178 l 160 389 l 50 389 q 27 399 35 389 q 22 424 19 408 l 33 475 q 49 500 36 490 q 75 510 61 510 l 185 510 l 204 601 l 96 601 q 73 611 81 601 q 67 636 65 621 l 78 688 q 93 713 81 703 q 121 722 106 722 l 231 722 l 279 951 q 294 976 282 967 q 321 986 306 986 l 481 986 q 504 976 496 986 q 510 951 513 967 l 461 722 l 635 722 q 656 713 649 722 q 661 688 664 703 l 650 636 q 636 611 649 621 q 610 601 624 601 l 435 601 l 415 510 l 589 510 q 613 500 604 510 q 617 475 621 490 l 607 424 q 590 399 603 408 q 564 389 578 389 l 390 389 l 369 293 q 363 239 363 263 q 378 203 364 215 q 424 190 392 190 l 533 190 q 556 181 549 190 q 561 156 564 171 l 535 35 q 520 10 532 21 q 494 0 508 0 l 371 0 z "},"ť":{"ha":642,"x_min":47,"x_max":888,"o":"m 374 0 q 216 28 278 0 q 132 117 154 57 q 129 274 110 178 l 186 540 l 78 540 q 55 550 63 540 q 50 575 47 560 l 74 688 q 89 713 76 703 q 115 722 101 722 l 225 722 l 274 951 q 289 976 276 967 q 315 986 301 986 l 476 986 q 499 976 492 986 q 504 951 507 967 l 456 722 l 629 722 q 652 713 644 722 q 657 688 660 703 l 633 575 q 618 550 631 560 q 592 540 606 540 l 417 540 l 364 293 q 358 239 358 263 q 372 203 358 215 q 419 190 386 190 l 529 190 q 551 181 544 190 q 556 156 558 171 l 531 35 q 516 10 528 21 q 489 0 504 0 l 374 0 m 613 847 q 596 856 601 847 q 593 878 590 865 l 658 1057 q 681 1090 665 1075 q 719 1104 696 1104 l 864 1104 q 881 1096 875 1104 q 885 1076 888 1088 q 882 1069 883 1074 q 878 1061 881 1065 l 772 886 q 750 860 764 872 q 714 847 736 847 l 613 847 z "},"ț":{"ha":642,"x_min":47,"x_max":660,"o":"m 374 0 q 216 28 278 0 q 132 117 154 57 q 129 274 110 178 l 186 540 l 78 540 q 55 550 63 540 q 50 575 47 560 l 74 688 q 89 713 76 703 q 115 722 101 722 l 225 722 l 274 951 q 289 976 276 967 q 315 986 301 986 l 476 986 q 499 976 492 986 q 504 951 507 967 l 456 722 l 629 722 q 652 713 644 722 q 657 688 660 703 l 633 575 q 618 550 631 560 q 592 540 606 540 l 417 540 l 364 293 q 358 239 358 263 q 372 203 358 215 q 419 190 386 190 l 529 190 q 551 181 544 190 q 556 156 558 171 l 531 35 q 516 10 528 21 q 489 0 504 0 l 374 0 m 118 -326 q 101 -317 107 -326 q 99 -296 96 -308 l 164 -117 q 186 -84 171 -99 q 225 -69 201 -69 l 369 -69 q 387 -78 381 -69 q 390 -97 393 -86 q 388 -104 389 -100 q 383 -112 386 -108 l 278 -287 q 256 -314 269 -301 q 219 -326 242 -326 l 118 -326 z "},"u":{"ha":889,"x_min":29,"x_max":869,"o":"m 271 -14 q 130 22 188 -14 q 51 128 72 58 q 51 300 29 199 l 132 688 q 147 713 135 703 q 175 722 160 722 l 350 722 q 372 713 364 722 q 376 688 379 703 l 297 308 q 292 233 288 264 q 318 188 296 203 q 382 172 340 172 q 485 208 442 172 q 543 308 529 243 l 624 688 q 639 713 626 703 q 665 722 651 722 l 839 722 q 862 713 854 722 q 867 688 869 703 l 728 35 q 713 10 725 21 q 686 0 701 0 l 526 0 q 503 10 511 0 q 497 35 494 21 l 508 88 q 446 33 479 56 q 371 -2 413 10 q 271 -14 329 -14 z "},"ú":{"ha":889,"x_min":29,"x_max":869,"o":"m 271 -14 q 130 22 188 -14 q 51 128 72 58 q 51 300 29 199 l 132 688 q 147 713 135 703 q 175 722 160 722 l 350 722 q 372 713 364 722 q 376 688 379 703 l 297 308 q 292 233 288 264 q 318 188 296 203 q 382 172 340 172 q 485 208 442 172 q 543 308 529 243 l 624 688 q 639 713 626 703 q 665 722 651 722 l 839 722 q 862 713 854 722 q 867 688 869 703 l 728 35 q 713 10 725 21 q 686 0 701 0 l 526 0 q 503 10 511 0 q 497 35 494 21 l 508 88 q 446 33 479 56 q 371 -2 413 10 q 271 -14 329 -14 m 435 826 q 417 849 413 826 q 428 867 419 860 l 582 1015 q 611 1037 600 1032 q 639 1042 622 1042 l 822 1042 q 843 1017 846 1042 q 832 997 842 1004 l 617 846 q 590 831 603 836 q 558 826 578 826 l 435 826 z "},"ŭ":{"ha":889,"x_min":29,"x_max":869,"o":"m 271 -14 q 130 22 188 -14 q 51 128 72 58 q 51 300 29 199 l 132 688 q 147 713 135 703 q 175 722 160 722 l 350 722 q 372 713 364 722 q 376 688 379 703 l 297 308 q 292 233 288 264 q 318 188 296 203 q 382 172 340 172 q 485 208 442 172 q 543 308 529 243 l 624 688 q 639 713 626 703 q 665 722 651 722 l 839 722 q 862 713 854 722 q 867 688 869 703 l 728 35 q 713 10 725 21 q 686 0 701 0 l 526 0 q 503 10 511 0 q 497 35 494 21 l 508 88 q 446 33 479 56 q 371 -2 413 10 q 271 -14 329 -14 m 531 819 q 422 846 465 819 q 360 917 378 872 q 353 1015 342 961 q 364 1034 356 1026 q 385 1042 372 1042 l 474 1042 q 492 1034 486 1042 q 494 1015 497 1026 q 497 958 489 983 q 540 933 504 933 q 598 958 579 933 q 624 1015 617 983 q 635 1034 626 1026 q 656 1042 643 1042 l 746 1042 q 764 1034 758 1042 q 767 1015 769 1026 q 728 917 756 961 q 653 846 701 872 q 531 819 606 819 z "},"û":{"ha":889,"x_min":29,"x_max":869,"o":"m 271 -14 q 130 22 188 -14 q 51 128 72 58 q 51 300 29 199 l 132 688 q 147 713 135 703 q 175 722 160 722 l 350 722 q 372 713 364 722 q 376 688 379 703 l 297 308 q 292 233 288 264 q 318 188 296 203 q 382 172 340 172 q 485 208 442 172 q 543 308 529 243 l 624 688 q 639 713 626 703 q 665 722 651 722 l 839 722 q 862 713 854 722 q 867 688 869 703 l 728 35 q 713 10 725 21 q 686 0 701 0 l 526 0 q 503 10 511 0 q 497 35 494 21 l 508 88 q 446 33 479 56 q 371 -2 413 10 q 271 -14 329 -14 m 278 826 q 261 846 258 826 q 272 865 263 857 l 451 1018 q 480 1038 468 1033 q 504 1042 492 1042 l 614 1042 q 638 1038 628 1042 q 658 1018 647 1033 l 771 865 q 775 846 778 857 q 750 826 771 826 l 689 826 q 667 828 678 826 q 647 836 657 831 l 540 904 l 406 836 q 383 828 393 831 q 360 826 372 826 l 278 826 z "},"ü":{"ha":889,"x_min":29,"x_max":869,"o":"m 271 -14 q 130 22 188 -14 q 51 128 72 58 q 51 300 29 199 l 132 688 q 147 713 135 703 q 175 722 160 722 l 350 722 q 372 713 364 722 q 376 688 379 703 l 297 308 q 292 233 288 264 q 318 188 296 203 q 382 172 340 172 q 485 208 442 172 q 543 308 529 243 l 624 688 q 639 713 626 703 q 665 722 651 722 l 839 722 q 862 713 854 722 q 867 688 869 703 l 728 35 q 713 10 725 21 q 686 0 701 0 l 526 0 q 503 10 511 0 q 497 35 494 21 l 508 88 q 446 33 479 56 q 371 -2 413 10 q 271 -14 329 -14 m 603 843 q 582 852 589 843 q 578 875 575 861 l 604 1001 q 618 1024 607 1015 q 643 1033 629 1033 l 769 1033 q 791 1024 783 1033 q 796 1001 799 1015 l 768 875 q 755 852 765 861 q 731 843 744 843 l 603 843 m 315 843 q 294 852 301 843 q 290 875 288 861 l 318 1001 q 331 1024 321 1015 q 356 1033 342 1033 l 483 1033 q 504 1024 497 1033 q 508 1001 511 1015 l 481 875 q 467 852 478 861 q 443 843 457 843 l 315 843 z "},"ù":{"ha":889,"x_min":29,"x_max":869,"o":"m 271 -14 q 130 22 188 -14 q 51 128 72 58 q 51 300 29 199 l 132 688 q 147 713 135 703 q 175 722 160 722 l 350 722 q 372 713 364 722 q 376 688 379 703 l 297 308 q 292 233 288 264 q 318 188 296 203 q 382 172 340 172 q 485 208 442 172 q 543 308 529 243 l 624 688 q 639 713 626 703 q 665 722 651 722 l 839 722 q 862 713 854 722 q 867 688 869 703 l 728 35 q 713 10 725 21 q 686 0 701 0 l 526 0 q 503 10 511 0 q 497 35 494 21 l 508 88 q 446 33 479 56 q 371 -2 413 10 q 271 -14 329 -14 m 475 826 q 446 831 456 826 q 426 846 436 836 l 275 996 q 271 1015 269 1004 q 301 1042 275 1042 l 494 1042 q 521 1037 511 1042 q 540 1015 531 1032 l 631 868 q 633 849 636 860 q 607 826 629 826 l 475 826 z "},"ű":{"ha":889,"x_min":29,"x_max":926,"o":"m 271 -14 q 130 22 188 -14 q 51 128 72 58 q 51 300 29 199 l 132 688 q 147 713 135 703 q 175 722 160 722 l 350 722 q 372 713 364 722 q 376 688 379 703 l 297 308 q 292 233 288 264 q 318 188 296 203 q 382 172 340 172 q 485 208 442 172 q 543 308 529 243 l 624 688 q 639 713 626 703 q 665 722 651 722 l 839 722 q 862 713 854 722 q 867 688 869 703 l 728 35 q 713 10 725 21 q 686 0 701 0 l 526 0 q 503 10 511 0 q 497 35 494 21 l 508 88 q 446 33 479 56 q 371 -2 413 10 q 271 -14 329 -14 m 607 826 q 588 846 585 826 q 592 856 589 851 q 599 865 596 861 l 697 1015 q 719 1035 707 1029 q 754 1042 732 1042 l 900 1042 q 922 1018 926 1042 q 911 999 921 1007 l 742 846 q 693 826 719 826 l 607 826 m 310 826 q 292 846 289 826 q 295 856 292 851 q 301 865 299 861 l 400 1015 q 422 1035 410 1029 q 457 1042 435 1042 l 603 1042 q 625 1018 629 1042 q 614 999 625 1007 l 444 846 q 396 826 422 826 l 310 826 z "},"ū":{"ha":889,"x_min":29,"x_max":869,"o":"m 271 -14 q 130 22 188 -14 q 51 128 72 58 q 51 300 29 199 l 132 688 q 147 713 135 703 q 175 722 160 722 l 350 722 q 372 713 364 722 q 376 688 379 703 l 297 308 q 292 233 288 264 q 318 188 296 203 q 382 172 340 172 q 485 208 442 172 q 543 308 529 243 l 624 688 q 639 713 626 703 q 665 722 651 722 l 839 722 q 862 713 854 722 q 867 688 869 703 l 728 35 q 713 10 725 21 q 686 0 701 0 l 526 0 q 503 10 511 0 q 497 35 494 21 l 508 88 q 446 33 479 56 q 371 -2 413 10 q 271 -14 329 -14 m 325 840 q 304 849 311 840 q 300 872 297 858 l 321 969 q 335 992 324 983 q 360 1001 346 1001 l 747 1001 q 767 992 761 1001 q 771 969 774 983 l 750 872 q 738 849 749 858 q 713 840 726 840 l 325 840 z "},"ų":{"ha":890,"x_min":50,"x_max":890,"o":"m 624 -306 q 515 -278 556 -306 q 462 -201 475 -250 q 463 -89 449 -151 q 479 -45 468 -65 q 505 -8 490 -25 q 532 18 519 8 q 522 28 525 21 q 519 46 518 36 l 529 88 q 419 12 483 38 q 276 -14 356 -14 q 143 22 197 -14 q 69 128 89 58 q 71 300 50 199 l 153 688 q 168 713 156 703 q 196 722 181 722 l 369 722 q 392 713 385 722 q 397 688 400 703 l 317 308 q 408 172 288 172 q 508 208 467 172 q 563 308 549 243 l 643 688 q 658 713 646 703 q 686 722 671 722 l 860 722 q 883 713 875 722 q 888 688 890 703 l 749 35 q 735 13 746 22 q 708 0 724 3 l 693 -1 q 631 -34 653 -10 q 603 -89 610 -58 q 608 -147 596 -124 q 658 -169 621 -169 l 669 -169 q 692 -180 685 -169 q 697 -204 700 -190 l 683 -271 q 668 -295 681 -285 q 640 -306 656 -306 l 624 -306 z "},"ů":{"ha":889,"x_min":29,"x_max":869,"o":"m 271 -14 q 130 22 188 -14 q 51 128 72 58 q 51 300 29 199 l 132 688 q 147 713 135 703 q 175 722 160 722 l 350 722 q 372 713 364 722 q 376 688 379 703 l 297 308 q 292 233 288 264 q 318 188 296 203 q 382 172 340 172 q 485 208 442 172 q 543 308 529 243 l 624 688 q 639 713 626 703 q 665 722 651 722 l 839 722 q 862 713 854 722 q 867 688 869 703 l 728 35 q 713 10 725 21 q 686 0 701 0 l 526 0 q 503 10 511 0 q 497 35 494 21 l 508 88 q 446 33 479 56 q 371 -2 413 10 q 271 -14 329 -14 m 514 819 q 430 854 461 819 q 410 942 399 889 q 466 1028 422 994 q 563 1063 510 1063 q 647 1028 615 1063 q 667 942 679 994 q 611 853 656 888 q 514 819 567 819 m 528 900 q 562 912 547 900 q 581 942 576 924 q 576 972 585 960 q 549 983 567 983 q 515 972 529 983 q 497 942 501 960 q 502 912 493 924 q 528 900 511 900 z "},"ũ":{"ha":889,"x_min":29,"x_max":869,"o":"m 271 -14 q 130 22 188 -14 q 51 128 72 58 q 51 300 29 199 l 132 688 q 147 713 135 703 q 175 722 160 722 l 350 722 q 372 713 364 722 q 376 688 379 703 l 297 308 q 292 233 288 264 q 318 188 296 203 q 382 172 340 172 q 485 208 442 172 q 543 308 529 243 l 624 688 q 639 713 626 703 q 665 722 651 722 l 839 722 q 862 713 854 722 q 867 688 869 703 l 728 35 q 713 10 725 21 q 686 0 701 0 l 526 0 q 503 10 511 0 q 497 35 494 21 l 508 88 q 446 33 479 56 q 371 -2 413 10 q 271 -14 329 -14 m 619 819 q 557 832 581 819 q 515 856 533 844 q 471 868 496 868 q 441 858 453 868 q 419 838 429 849 q 394 826 410 826 l 311 826 q 296 834 301 826 q 292 850 290 842 q 308 902 296 872 q 343 960 321 932 q 398 1006 365 988 q 474 1025 431 1025 q 536 1013 513 1025 q 579 988 560 1000 q 622 976 599 976 q 652 987 642 976 q 672 1008 663 997 q 697 1018 682 1018 l 781 1018 q 797 1011 792 1018 q 800 993 803 1004 q 783 942 796 971 q 749 884 771 913 q 694 838 726 856 q 619 819 663 819 z "},"v":{"ha":826,"x_min":83,"x_max":865,"o":"m 251 0 q 222 10 231 0 q 211 35 214 21 l 86 683 q 92 711 83 700 q 122 722 101 722 l 269 722 q 296 713 288 722 q 306 690 304 704 l 372 267 l 621 693 q 638 713 626 703 q 667 722 649 722 l 835 722 q 858 709 851 722 q 854 679 865 696 l 456 35 q 434 10 446 21 q 401 0 422 0 l 251 0 z "},"w":{"ha":1167,"x_min":89,"x_max":1193,"o":"m 193 0 q 165 10 174 0 q 156 35 157 21 l 90 682 q 100 710 89 697 q 129 722 111 722 l 267 722 q 293 713 285 722 q 303 693 301 704 l 336 296 l 544 692 q 562 712 550 701 q 593 722 574 722 l 686 722 q 713 712 706 722 q 722 692 721 701 l 764 296 l 965 693 q 982 713 971 703 q 1011 722 993 722 l 1167 722 q 1190 709 1186 722 q 1186 681 1193 696 l 850 35 q 831 10 843 21 q 799 0 818 0 l 672 0 q 644 10 653 0 q 632 35 635 21 l 576 415 l 369 35 q 349 10 361 21 q 315 0 336 0 l 193 0 z "},"ẃ":{"ha":1167,"x_min":89,"x_max":1193,"o":"m 193 0 q 165 10 174 0 q 156 35 157 21 l 90 682 q 100 710 89 697 q 129 722 111 722 l 267 722 q 293 713 285 722 q 303 693 301 704 l 336 296 l 544 692 q 562 712 550 701 q 593 722 574 722 l 686 722 q 713 712 706 722 q 722 692 721 701 l 764 296 l 965 693 q 982 713 971 703 q 1011 722 993 722 l 1167 722 q 1190 709 1186 722 q 1186 681 1193 696 l 850 35 q 831 10 843 21 q 799 0 818 0 l 672 0 q 644 10 653 0 q 632 35 635 21 l 576 415 l 369 35 q 349 10 361 21 q 315 0 336 0 l 193 0 m 572 826 q 554 849 550 826 q 565 867 557 860 l 719 1015 q 749 1037 738 1032 q 776 1042 760 1042 l 960 1042 q 981 1017 983 1042 q 969 997 979 1004 l 754 846 q 728 831 740 836 q 696 826 715 826 l 572 826 z "},"ŵ":{"ha":1167,"x_min":89,"x_max":1193,"o":"m 193 0 q 165 10 174 0 q 156 35 157 21 l 90 682 q 100 710 89 697 q 129 722 111 722 l 267 722 q 293 713 285 722 q 303 693 301 704 l 336 296 l 544 692 q 562 712 550 701 q 593 722 574 722 l 686 722 q 713 712 706 722 q 722 692 721 701 l 764 296 l 965 693 q 982 713 971 703 q 1011 722 993 722 l 1167 722 q 1190 709 1186 722 q 1186 681 1193 696 l 850 35 q 831 10 843 21 q 799 0 818 0 l 672 0 q 644 10 653 0 q 632 35 635 21 l 576 415 l 369 35 q 349 10 361 21 q 315 0 336 0 l 193 0 m 415 826 q 399 846 396 826 q 410 865 400 857 l 589 1018 q 617 1038 606 1033 q 642 1042 629 1042 l 751 1042 q 775 1038 765 1042 q 796 1018 785 1033 l 908 865 q 913 846 915 857 q 888 826 908 826 l 826 826 q 805 828 815 826 q 785 836 794 831 l 678 904 l 543 836 q 520 828 531 831 q 497 826 510 826 l 415 826 z "},"ẅ":{"ha":1167,"x_min":89,"x_max":1193,"o":"m 193 0 q 165 10 174 0 q 156 35 157 21 l 90 682 q 100 710 89 697 q 129 722 111 722 l 267 722 q 293 713 285 722 q 303 693 301 704 l 336 296 l 544 692 q 562 712 550 701 q 593 722 574 722 l 686 722 q 713 712 706 722 q 722 692 721 701 l 764 296 l 965 693 q 982 713 971 703 q 1011 722 993 722 l 1167 722 q 1190 709 1186 722 q 1186 681 1193 696 l 850 35 q 831 10 843 21 q 799 0 818 0 l 672 0 q 644 10 653 0 q 632 35 635 21 l 576 415 l 369 35 q 349 10 361 21 q 315 0 336 0 l 193 0 m 739 843 q 718 852 725 843 q 714 875 711 861 l 740 1001 q 754 1024 743 1015 q 779 1033 765 1033 l 906 1033 q 927 1024 919 1033 q 932 1001 935 1015 l 904 875 q 891 852 901 861 q 867 843 881 843 l 739 843 m 451 843 q 431 852 438 843 q 426 875 424 861 l 454 1001 q 467 1024 457 1015 q 492 1033 478 1033 l 619 1033 q 640 1024 633 1033 q 644 1001 647 1015 l 617 875 q 603 852 614 861 q 579 843 593 843 l 451 843 z "},"ẁ":{"ha":1167,"x_min":89,"x_max":1193,"o":"m 193 0 q 165 10 174 0 q 156 35 157 21 l 90 682 q 100 710 89 697 q 129 722 111 722 l 267 722 q 293 713 285 722 q 303 693 301 704 l 336 296 l 544 692 q 562 712 550 701 q 593 722 574 722 l 686 722 q 713 712 706 722 q 722 692 721 701 l 764 296 l 965 693 q 982 713 971 703 q 1011 722 993 722 l 1167 722 q 1190 709 1186 722 q 1186 681 1193 696 l 850 35 q 831 10 843 21 q 799 0 818 0 l 672 0 q 644 10 653 0 q 632 35 635 21 l 576 415 l 369 35 q 349 10 361 21 q 315 0 336 0 l 193 0 m 613 826 q 583 831 593 826 q 564 846 574 836 l 413 996 q 408 1015 407 1004 q 439 1042 413 1042 l 632 1042 q 658 1037 649 1042 q 678 1015 668 1032 l 768 868 q 771 849 774 860 q 744 826 767 826 l 613 826 z "},"x":{"ha":817,"x_min":-64,"x_max":851,"o":"m -33 0 q -59 18 -54 0 q -53 50 -64 36 l 254 378 l 106 674 q 109 706 99 690 q 138 722 119 722 l 301 722 q 327 714 319 722 q 339 699 335 706 l 429 524 l 597 699 q 614 714 603 706 q 646 722 625 722 l 821 722 q 846 704 840 722 q 838 672 851 686 l 547 360 l 701 49 q 701 16 710 32 q 669 0 693 0 l 503 0 q 478 8 486 0 q 465 22 469 15 l 369 208 l 193 22 q 177 8 188 17 q 147 0 167 0 l -33 0 z "},"y":{"ha":839,"x_min":44,"x_max":882,"o":"m 72 -264 q 50 -249 56 -264 q 54 -219 44 -235 l 224 47 l 89 682 q 96 710 86 697 q 126 722 106 722 l 274 722 q 299 713 292 722 q 308 693 307 704 l 386 289 l 640 693 q 658 713 646 704 q 688 722 669 722 l 853 722 q 876 709 869 722 q 874 681 882 696 l 283 -235 q 265 -255 276 -246 q 235 -264 253 -264 l 72 -264 z "},"ý":{"ha":839,"x_min":44,"x_max":882,"o":"m 72 -264 q 50 -249 56 -264 q 54 -219 44 -235 l 224 47 l 89 682 q 96 710 86 697 q 126 722 106 722 l 274 722 q 299 713 292 722 q 308 693 307 704 l 386 289 l 640 693 q 658 713 646 704 q 688 722 669 722 l 853 722 q 876 709 869 722 q 874 681 882 696 l 283 -235 q 265 -255 276 -246 q 235 -264 253 -264 l 72 -264 m 428 826 q 410 849 406 826 q 421 867 413 860 l 575 1015 q 604 1037 593 1032 q 632 1042 615 1042 l 815 1042 q 836 1017 839 1042 q 825 997 835 1004 l 610 846 q 583 831 596 836 q 551 826 571 826 l 428 826 z "},"ŷ":{"ha":839,"x_min":44,"x_max":882,"o":"m 72 -264 q 50 -249 56 -264 q 54 -219 44 -235 l 224 47 l 89 682 q 96 710 86 697 q 126 722 106 722 l 274 722 q 299 713 292 722 q 308 693 307 704 l 386 289 l 640 693 q 658 713 646 704 q 688 722 669 722 l 853 722 q 876 709 869 722 q 874 681 882 696 l 283 -235 q 265 -255 276 -246 q 235 -264 253 -264 l 72 -264 m 269 826 q 253 846 250 826 q 264 865 254 857 l 443 1018 q 472 1038 460 1033 q 496 1042 483 1042 l 606 1042 q 629 1038 619 1042 q 650 1018 639 1033 l 763 865 q 767 846 769 857 q 742 826 763 826 l 681 826 q 659 828 669 826 q 639 836 649 831 l 532 904 l 397 836 q 374 828 385 831 q 351 826 364 826 l 269 826 z "},"ÿ":{"ha":839,"x_min":44,"x_max":882,"o":"m 72 -264 q 50 -249 56 -264 q 54 -219 44 -235 l 224 47 l 89 682 q 96 710 86 697 q 126 722 106 722 l 274 722 q 299 713 292 722 q 308 693 307 704 l 386 289 l 640 693 q 658 713 646 704 q 688 722 669 722 l 853 722 q 876 709 869 722 q 874 681 882 696 l 283 -235 q 265 -255 276 -246 q 235 -264 253 -264 l 72 -264 m 594 843 q 574 852 581 843 q 569 875 567 861 l 596 1001 q 610 1024 599 1015 q 635 1033 621 1033 l 761 1033 q 783 1024 775 1033 q 788 1001 790 1015 l 760 875 q 747 852 757 861 q 722 843 736 843 l 594 843 m 307 843 q 286 852 293 843 q 282 875 279 861 l 310 1001 q 323 1024 313 1015 q 347 1033 333 1033 l 475 1033 q 496 1024 489 1033 q 500 1001 503 1015 l 472 875 q 459 852 469 861 q 435 843 449 843 l 307 843 z "},"ỳ":{"ha":839,"x_min":44,"x_max":882,"o":"m 72 -264 q 50 -249 56 -264 q 54 -219 44 -235 l 224 47 l 89 682 q 96 710 86 697 q 126 722 106 722 l 274 722 q 299 713 292 722 q 308 693 307 704 l 386 289 l 640 693 q 658 713 646 704 q 688 722 669 722 l 853 722 q 876 709 869 722 q 874 681 882 696 l 283 -235 q 265 -255 276 -246 q 235 -264 253 -264 l 72 -264 m 468 826 q 439 831 449 826 q 419 846 429 836 l 268 996 q 264 1015 263 1004 q 294 1042 268 1042 l 488 1042 q 514 1037 504 1042 q 533 1015 524 1032 l 624 868 q 626 849 629 860 q 600 826 622 826 l 468 826 z "},"z":{"ha":767,"x_min":-31,"x_max":754,"o":"m 1 0 q -22 10 -14 0 q -28 35 -31 21 l -4 143 q 6 167 -1 158 q 21 183 13 176 l 419 543 l 126 543 q 104 553 113 543 q 99 578 96 563 l 122 688 q 138 713 125 703 q 165 722 150 722 l 724 722 q 747 713 739 722 q 751 688 754 703 l 726 569 q 703 535 722 549 l 314 179 l 638 179 q 660 169 651 179 q 664 144 668 160 l 640 35 q 626 10 638 21 q 600 0 614 0 l 1 0 z "},"ź":{"ha":767,"x_min":-31,"x_max":806,"o":"m 1 0 q -22 10 -14 0 q -28 35 -31 21 l -4 143 q 6 167 -1 158 q 21 183 13 176 l 419 543 l 126 543 q 104 553 113 543 q 99 578 96 563 l 122 688 q 138 713 125 703 q 165 722 150 722 l 724 722 q 747 713 739 722 q 751 688 754 703 l 726 569 q 703 535 722 549 l 314 179 l 638 179 q 660 169 651 179 q 664 144 668 160 l 640 35 q 626 10 638 21 q 600 0 614 0 l 1 0 m 394 826 q 376 849 372 826 q 388 867 379 860 l 542 1015 q 571 1037 560 1032 q 599 1042 582 1042 l 782 1042 q 803 1017 806 1042 q 792 997 801 1004 l 576 846 q 550 831 563 836 q 518 826 538 826 l 394 826 z "},"ž":{"ha":767,"x_min":-31,"x_max":779,"o":"m 1 0 q -22 10 -14 0 q -28 35 -31 21 l -4 143 q 6 167 -1 158 q 21 183 13 176 l 419 543 l 126 543 q 104 553 113 543 q 99 578 96 563 l 122 688 q 138 713 125 703 q 165 722 150 722 l 724 722 q 747 713 739 722 q 751 688 754 703 l 726 569 q 703 535 722 549 l 314 179 l 638 179 q 660 169 651 179 q 664 144 668 160 l 640 35 q 626 10 638 21 q 600 0 614 0 l 1 0 m 424 826 q 401 831 411 826 q 381 850 392 836 l 268 1003 q 264 1021 261 1011 q 272 1036 265 1031 q 289 1042 279 1042 l 349 1042 q 372 1040 361 1042 q 392 1032 382 1038 l 497 964 l 633 1032 q 656 1040 644 1038 q 678 1042 667 1042 l 760 1042 q 778 1022 779 1042 q 765 1004 775 1013 l 588 850 q 559 831 571 836 q 533 826 547 826 l 424 826 z "},"ż":{"ha":767,"x_min":-31,"x_max":754,"o":"m 1 0 q -22 10 -14 0 q -28 35 -31 21 l -4 143 q 6 167 -1 158 q 21 183 13 176 l 419 543 l 126 543 q 104 553 113 543 q 99 578 96 563 l 122 688 q 138 713 125 703 q 165 722 150 722 l 724 722 q 747 713 739 722 q 751 688 754 703 l 726 569 q 703 535 722 549 l 314 179 l 638 179 q 660 169 651 179 q 664 144 668 160 l 640 35 q 626 10 638 21 q 600 0 614 0 l 1 0 m 408 838 q 388 847 394 838 q 383 869 381 856 l 414 1008 q 427 1031 417 1022 q 451 1040 438 1040 l 590 1040 q 611 1031 604 1040 q 615 1008 618 1022 l 586 869 q 572 847 583 856 q 547 838 561 838 l 408 838 z "},"ﬁ":{"ha":939,"x_min":54,"x_max":983,"o":"m 111 0 q 89 10 97 0 q 83 35 81 21 l 190 540 l 85 540 q 62 550 69 540 q 57 575 54 560 l 81 688 q 96 713 83 703 q 124 722 108 722 l 229 722 l 239 767 q 306 919 260 861 q 420 1002 351 976 q 578 1028 489 1028 l 954 1028 q 976 1018 968 1028 q 981 993 983 1008 l 957 881 q 942 856 954 865 q 915 846 929 846 l 574 846 q 502 824 528 846 q 468 760 476 801 l 460 722 l 889 722 q 910 713 903 722 q 915 688 918 703 l 776 35 q 762 10 774 21 q 736 0 750 0 l 575 0 q 551 10 560 0 q 546 35 543 21 l 653 540 l 421 540 l 314 35 q 299 10 311 21 q 272 0 288 0 l 111 0 z "},"ﬂ":{"ha":981,"x_min":54,"x_max":1025,"o":"m 111 0 q 89 10 97 0 q 83 35 81 21 l 190 540 l 86 540 q 63 550 71 540 q 58 575 54 560 l 81 688 q 97 713 83 703 q 124 722 110 722 l 229 722 l 239 767 q 306 919 260 861 q 420 1002 351 976 q 578 1028 489 1028 l 689 1028 q 712 1018 704 1028 q 717 993 719 1008 l 692 881 q 677 856 689 865 q 650 846 665 846 l 574 846 q 502 824 528 846 q 468 760 476 801 l 460 722 l 733 722 l 792 993 q 806 1018 794 1008 q 832 1028 818 1028 l 993 1028 q 1017 1018 1008 1028 q 1022 993 1025 1008 l 818 35 q 803 10 815 21 q 776 0 792 0 l 615 0 q 593 10 601 0 q 588 35 585 21 l 694 540 l 421 540 l 314 35 q 299 10 311 21 q 272 0 288 0 l 111 0 z "}}}
